<?xml version="1.0" encoding="UTF-8"?>
<!DOCTYPE svg PUBLIC "-//W3C//DTD SVG 1.1//EN" "http://www.w3.org/Graphics/SVG/1.1/DTD/svg11.dtd">
<svg xmlns="http://www.w3.org/2000/svg" version="1.1" width="128px" height="128px" style="shape-rendering:geometricPrecision; text-rendering:geometricPrecision; image-rendering:optimizeQuality; fill-rule:evenodd; clip-rule:evenodd" xmlns:xlink="http://www.w3.org/1999/xlink">
<g><path style="opacity:0.99" fill="#d70f67" d="M 51.5,-0.5 C 54.1667,-0.5 56.8333,-0.5 59.5,-0.5C 81.8333,22.5 104.5,45.1667 127.5,67.5C 127.5,70.1667 127.5,72.8333 127.5,75.5C 127.167,75.5 126.833,75.5 126.5,75.5C 101.701,51.2016 77.0347,26.7016 52.5,2C 51.2625,1.76791 50.2625,1.26791 49.5,0.5C 50.4916,0.67158 51.1583,0.338246 51.5,-0.5 Z"/></g>
<g><path style="opacity:0.997" fill="#de0b64" d="M 59.5,-0.5 C 63.1667,-0.5 66.8333,-0.5 70.5,-0.5C 88.7983,18.2986 107.298,36.9653 126,55.5C 126.383,54.944 126.883,54.6107 127.5,54.5C 127.5,58.8333 127.5,63.1667 127.5,67.5C 104.5,45.1667 81.8333,22.5 59.5,-0.5 Z"/></g>
<g><path style="opacity:0.995" fill="#cf156b" d="M 49.5,0.5 C 50.2625,1.26791 51.2625,1.76791 52.5,2C 77.0347,26.7016 101.701,51.2016 126.5,75.5C 126.095,80.4564 124.762,85.1231 122.5,89.5C 109.86,76.1937 96.8604,63.1937 83.5,50.5C 83.7947,48.2646 83.4614,46.2646 82.5,44.5C 82.1667,43.5 81.5,42.8333 80.5,42.5C 77.0381,41.5184 73.3714,41.185 69.5,41.5C 69.81,38.2869 69.4767,35.2869 68.5,32.5C 67.1667,26.5 63.5,22.8333 57.5,21.5C 55.369,20.6862 53.0356,20.1862 50.5,20C 45.6047,14.936 40.6047,10.1026 35.5,5.5C 39.869,3.04335 44.5356,1.37668 49.5,0.5 Z"/></g>
<g><path style="opacity:0.965" fill="#e80560" d="M 70.5,-0.5 C 72.1667,-0.5 73.8333,-0.5 75.5,-0.5C 103.14,6.47339 120.473,23.8067 127.5,51.5C 127.5,52.5 127.5,53.5 127.5,54.5C 126.883,54.6107 126.383,54.944 126,55.5C 107.298,36.9653 88.7983,18.2986 70.5,-0.5 Z"/></g>
<g><path style="opacity:0.988" fill="#bd2373" d="M 35.5,5.5 C 40.6047,10.1026 45.6047,14.936 50.5,20C 53.0356,20.1862 55.369,20.6862 57.5,21.5C 47.5049,20.3182 41.8383,24.6516 40.5,34.5C 39.8826,34.6107 39.3826,34.944 39,35.5C 32.6048,28.9365 26.1048,22.6032 19.5,16.5C 24.1295,11.8486 29.4628,8.1819 35.5,5.5 Z"/></g>
<g><path style="opacity:1" fill="#fdf7f9" d="M 57.5,21.5 C 63.5,22.8333 67.1667,26.5 68.5,32.5C 68.5,35.5 68.5,38.5 68.5,41.5C 67.5,41.5 66.5,41.5 65.5,41.5C 67.1671,29.6738 62.1671,24.1738 50.5,25C 47.1828,26.4802 45.1828,28.9802 44.5,32.5C 43.5233,35.2869 43.19,38.2869 43.5,41.5C 42.5,41.5 41.5,41.5 40.5,41.5C 40.5,39.1667 40.5,36.8333 40.5,34.5C 41.8383,24.6516 47.5049,20.3182 57.5,21.5 Z"/></g>
<g><path style="opacity:0.994" fill="#ae2878" d="M 19.5,16.5 C 26.1048,22.6032 32.6048,28.9365 39,35.5C 39.3826,34.944 39.8826,34.6107 40.5,34.5C 40.5,36.8333 40.5,39.1667 40.5,41.5C 36.2984,41.1832 32.2984,41.5166 28.5,42.5C 28.1667,42.5 27.8333,42.5 27.5,42.5C 21.4405,37.4428 16.1072,31.7762 11.5,25.5C 13.4528,21.8797 16.1195,18.8797 19.5,16.5 Z"/></g>
<g><path style="opacity:1" fill="#c32272" d="M 65.5,41.5 C 58.5,41.5 51.5,41.5 44.5,41.5C 44.5,38.5 44.5,35.5 44.5,32.5C 45.1828,28.9802 47.1828,26.4802 50.5,25C 62.1671,24.1738 67.1671,29.6738 65.5,41.5 Z"/></g>
<g><path style="opacity:0.988" fill="#a32f7c" d="M 11.5,25.5 C 16.1072,31.7762 21.4405,37.4428 27.5,42.5C 26.8902,43.391 26.5569,44.391 26.5,45.5C 25.5206,48.6248 25.1872,51.9581 25.5,55.5C 18.8333,49.1667 12.1667,42.8333 5.5,36.5C 6.7219,32.3881 8.7219,28.7214 11.5,25.5 Z"/></g>
<g><path style="opacity:0.988" fill="#9a3481" d="M 5.5,36.5 C 12.1667,42.8333 18.8333,49.1667 25.5,55.5C 25.6659,60.5111 25.4993,65.5111 25,70.5C 17.2983,62.6309 9.46494,54.9642 1.5,47.5C 1.6667,43.3266 3.00003,39.6599 5.5,36.5 Z"/></g>
<g><path style="opacity:1" fill="#d879aa" d="M 44.5,32.5 C 44.5,35.5 44.5,38.5 44.5,41.5C 51.5,41.5 58.5,41.5 65.5,41.5C 66.5,41.5 67.5,41.5 68.5,41.5C 68.5,38.5 68.5,35.5 68.5,32.5C 69.4767,35.2869 69.81,38.2869 69.5,41.5C 73.3714,41.185 77.0381,41.5184 80.5,42.5C 76.8333,42.5 73.1667,42.5 69.5,42.5C 69.7947,44.7354 69.4614,46.7354 68.5,48.5C 68.5,46.5 68.5,44.5 68.5,42.5C 67.5,42.5 66.5,42.5 65.5,42.5C 58.5,42.5 51.5,42.5 44.5,42.5C 44.7947,44.7354 44.4614,46.7354 43.5,48.5C 43.5,46.5 43.5,44.5 43.5,42.5C 42.5,42.5 41.5,42.5 40.5,42.5C 36.5,42.5 32.5,42.5 28.5,42.5C 32.2984,41.5166 36.2984,41.1832 40.5,41.5C 41.5,41.5 42.5,41.5 43.5,41.5C 43.19,38.2869 43.5233,35.2869 44.5,32.5 Z"/></g>
<g><path style="opacity:1" fill="#fefdfe" d="M 27.5,42.5 C 27.8333,42.5 28.1667,42.5 28.5,42.5C 32.5,42.5 36.5,42.5 40.5,42.5C 40.3379,44.5273 40.5045,46.5273 41,48.5C 41.9772,49.7736 42.8106,49.7736 43.5,48.5C 44.4614,46.7354 44.7947,44.7354 44.5,42.5C 51.5,42.5 58.5,42.5 65.5,42.5C 65.3379,44.5273 65.5045,46.5273 66,48.5C 66.9772,49.7736 67.8106,49.7736 68.5,48.5C 69.4614,46.7354 69.7947,44.7354 69.5,42.5C 73.1667,42.5 76.8333,42.5 80.5,42.5C 81.5,42.8333 82.1667,43.5 82.5,44.5C 82.5,51.8333 82.5,59.1667 82.5,66.5C 71.9865,66.1724 61.6532,66.5058 51.5,67.5C 51.5,68.1667 51.5,68.8333 51.5,69.5C 49.854,79.2927 48.854,89.2927 48.5,99.5C 44.5,99.5 40.5,99.5 36.5,99.5C 32.9929,100.006 29.8263,99.3398 27,97.5C 26.5001,80.1699 26.3334,62.8365 26.5,45.5C 26.5569,44.391 26.8902,43.391 27.5,42.5 Z"/></g>
<g><path style="opacity:1" fill="#b4327c" d="M 40.5,42.5 C 41.5,42.5 42.5,42.5 43.5,42.5C 43.5,44.5 43.5,46.5 43.5,48.5C 42.8106,49.7736 41.9772,49.7736 41,48.5C 40.5045,46.5273 40.3379,44.5273 40.5,42.5 Z"/></g>
<g><path style="opacity:1" fill="#c42b76" d="M 65.5,42.5 C 66.5,42.5 67.5,42.5 68.5,42.5C 68.5,44.5 68.5,46.5 68.5,48.5C 67.8106,49.7736 66.9772,49.7736 66,48.5C 65.5045,46.5273 65.3379,44.5273 65.5,42.5 Z"/></g>
<g><path style="opacity:0.995" fill="#c31d70" d="M 83.5,50.5 C 96.8604,63.1937 109.86,76.1937 122.5,89.5C 120.584,94.3386 117.918,98.6719 114.5,102.5C 109.833,97.1667 104.833,92.1667 99.5,87.5C 98.7838,81.9286 97.7838,76.4286 96.5,71C 88.8406,70.5003 81.1739,70.3336 73.5,70.5C 72.8333,69.5 72.1667,68.5 71.5,67.5C 75.5,67.5 79.5,67.5 83.5,67.5C 83.5,61.8333 83.5,56.1667 83.5,50.5 Z"/></g>
<g><path style="opacity:1" fill="#df9dc1" d="M 82.5,44.5 C 83.4614,46.2646 83.7947,48.2646 83.5,50.5C 83.5,56.1667 83.5,61.8333 83.5,67.5C 79.5,67.5 75.5,67.5 71.5,67.5C 64.8333,67.5 58.1667,67.5 51.5,67.5C 61.6532,66.5058 71.9865,66.1724 82.5,66.5C 82.5,59.1667 82.5,51.8333 82.5,44.5 Z"/></g>
<g><path style="opacity:1" fill="#ae2a79" d="M 51.5,67.5 C 58.1667,67.5 64.8333,67.5 71.5,67.5C 72.1667,68.5 72.8333,69.5 73.5,70.5C 67.4908,70.3338 61.4908,70.5005 55.5,71C 54.6198,72.3561 54.2865,73.8561 54.5,75.5C 53.7321,76.2625 53.2321,77.2625 53,78.5C 51.6081,75.7216 51.1081,72.7216 51.5,69.5C 51.5,68.8333 51.5,68.1667 51.5,67.5 Z"/></g>
<g><path style="opacity:0.996" fill="#8a4189" d="M 26.5,45.5 C 26.3334,62.8365 26.5001,80.1699 27,97.5C 29.8263,99.3398 32.9929,100.006 36.5,99.5C 45.5,108.833 54.5,118.167 63.5,127.5C 59.8333,127.5 56.1667,127.5 52.5,127.5C 52.5,127.167 52.5,126.833 52.5,126.5C 35.4999,108.493 18.1665,91.4933 0.5,75.5C 0.166667,75.5 -0.166667,75.5 -0.5,75.5C -0.5,67.5 -0.5,59.5 -0.5,51.5C 0.166667,50.1667 0.833333,48.8333 1.5,47.5C 9.46494,54.9642 17.2983,62.6309 25,70.5C 25.4993,65.5111 25.6659,60.5111 25.5,55.5C 25.1872,51.9581 25.5206,48.6248 26.5,45.5 Z"/></g>
<g><path style="opacity:1" fill="#fcf9fb" d="M 73.5,70.5 C 81.1739,70.3336 88.8406,70.5003 96.5,71C 97.7838,76.4286 98.7838,81.9286 99.5,87.5C 99.8693,93.5129 100.036,99.5129 100,105.5C 97.2809,106.444 94.4475,106.777 91.5,106.5C 81.5,106.5 71.5,106.5 61.5,106.5C 58.2234,106.784 55.0567,106.451 52,105.5C 51.8404,95.4274 52.6738,85.4274 54.5,75.5C 54.2865,73.8561 54.6198,72.3561 55.5,71C 61.4908,70.5005 67.4908,70.3338 73.5,70.5 Z"/></g>
<g><path style="opacity:0.985" fill="#7f448c" d="M 52.5,126.5 C 23.9555,120.956 6.62221,103.956 0.5,75.5C 18.1665,91.4933 35.4999,108.493 52.5,126.5 Z"/></g>
<g><path style="opacity:1" fill="#b43981" d="M 61.5,76.5 C 62.8333,76.5 64.1667,76.5 65.5,76.5C 66.4935,86.6648 71.8269,90.1648 81.5,87C 84.9852,84.3829 86.6519,80.8829 86.5,76.5C 87.8333,76.5 89.1667,76.5 90.5,76.5C 88.6515,89.8387 81.3181,94.3387 68.5,90C 63.9134,86.6599 61.5801,82.1599 61.5,76.5 Z"/></g>
<g><path style="opacity:0.984" fill="#b52777" d="M 99.5,87.5 C 104.833,92.1667 109.833,97.1667 114.5,102.5C 111.167,107.833 106.833,112.167 101.5,115.5C 97.5644,113.234 94.2311,110.234 91.5,106.5C 94.4475,106.777 97.2809,106.444 100,105.5C 100.036,99.5129 99.8693,93.5129 99.5,87.5 Z"/></g>
<g><path style="opacity:0.992" fill="#913d86" d="M 51.5,69.5 C 51.1081,72.7216 51.6081,75.7216 53,78.5C 53.2321,77.2625 53.7321,76.2625 54.5,75.5C 52.6738,85.4274 51.8404,95.4274 52,105.5C 55.0567,106.451 58.2234,106.784 61.5,106.5C 67.5,112.833 73.5,119.167 79.5,125.5C 77.8333,126.167 76.1667,126.833 74.5,127.5C 70.8333,127.5 67.1667,127.5 63.5,127.5C 54.5,118.167 45.5,108.833 36.5,99.5C 40.5,99.5 44.5,99.5 48.5,99.5C 48.854,89.2927 49.854,79.2927 51.5,69.5 Z"/></g>
<g><path style="opacity:0.974" fill="#9f317e" d="M 61.5,106.5 C 71.5,106.5 81.5,106.5 91.5,106.5C 94.2311,110.234 97.5644,113.234 101.5,115.5C 94.9538,120.438 87.6205,123.771 79.5,125.5C 73.5,119.167 67.5,112.833 61.5,106.5 Z"/></g>
</svg>
