<?xml version="1.0" encoding="UTF-8"?>
<!DOCTYPE svg PUBLIC "-//W3C//DTD SVG 1.1//EN" "http://www.w3.org/Graphics/SVG/1.1/DTD/svg11.dtd">
<svg xmlns="http://www.w3.org/2000/svg" version="1.1" width="512px" height="512px" style="shape-rendering:geometricPrecision; text-rendering:geometricPrecision; image-rendering:optimizeQuality; fill-rule:evenodd; clip-rule:evenodd" xmlns:xlink="http://www.w3.org/1999/xlink">
<g><path style="opacity:0.986" fill="#00c2fe" d="M 201.5,-0.5 C 237.5,-0.5 273.5,-0.5 309.5,-0.5C 329.7,0.642197 350.033,1.97553 370.5,3.5C 352.323,13.1195 333.657,21.7862 314.5,29.5C 280.816,28.3374 247.149,28.3374 213.5,29.5C 192.789,29.8349 172.123,30.8349 151.5,32.5C 132.369,33.5998 113.369,35.7664 94.5,39C 61.1992,50.9738 41.6992,74.4738 36,109.5C 34.1135,127.138 32.6135,144.804 31.5,162.5C 21.5,167.167 11.5,171.833 1.5,176.5C 2.19398,153.784 3.69398,131.117 6,108.5C 6.02716,64.2327 25.8605,32.7327 65.5,14C 71.0482,11.9284 76.7148,10.2617 82.5,9C 122.209,4.42028 161.875,1.25361 201.5,-0.5 Z"/></g>
<g><path style="opacity:0.989" fill="#00bffb" d="M 370.5,3.5 C 392.685,4.48499 414.685,6.98499 436.5,11C 450.767,15.1238 463.101,22.2905 473.5,32.5C 461.974,38.0958 450.307,43.4291 438.5,48.5C 432.623,45.4695 426.623,42.6362 420.5,40C 413.843,38.8668 407.009,37.3668 400,35.5C 397.107,35.3174 394.107,35.6507 391,36.5C 389.846,34.0426 388.512,34.0426 387,36.5C 385.475,35.2799 383.641,34.6132 381.5,34.5C 358.576,32.4877 336.243,30.821 314.5,29.5C 333.657,21.7862 352.323,13.1195 370.5,3.5 Z"/></g>
<g><path style="opacity:1" fill="#00bcf7" d="M 314.5,29.5 C 336.243,30.821 358.576,32.4877 381.5,34.5C 383.641,34.6132 385.475,35.2799 387,36.5C 388.512,34.0426 389.846,34.0426 391,36.5C 394.107,35.6507 397.107,35.3174 400,35.5C 407.009,37.3668 413.843,38.8668 420.5,40C 426.623,42.6362 432.623,45.4695 438.5,48.5C 450.307,43.4291 461.974,38.0958 473.5,32.5C 480.843,38.2095 486.509,45.2095 490.5,53.5C 479.537,59.648 468.204,65.3146 456.5,70.5C 455.904,69.2839 455.737,67.9506 456,66.5C 454.327,69.0011 452.493,71.3345 450.5,73.5C 450.965,70.3498 452.298,67.1831 454.5,64C 453.324,61.8752 451.491,59.7085 449,57.5C 445.461,65.8391 440.961,73.5058 435.5,80.5C 435.167,80.3333 434.833,80.1667 434.5,80C 438.039,73.0871 441.706,66.2538 445.5,59.5C 445.167,59.1667 444.833,58.8333 444.5,58.5C 442.711,59.8772 440.711,60.8772 438.5,61.5C 437.808,60.9747 437.308,60.3081 437,59.5C 433.855,62.7341 430.522,65.7341 427,68.5C 425.333,68.1667 423.667,67.8333 422,67.5C 420.97,69.7764 419.47,70.4431 417.5,69.5C 421.167,62.8333 424.833,56.1667 428.5,49.5C 428.167,49.1667 427.833,48.8333 427.5,48.5C 421.843,57.1385 416.676,66.1385 412,75.5C 410.333,75.1667 408.667,74.8333 407,74.5C 405.97,76.7764 404.47,77.4431 402.5,76.5C 406.167,69.8333 409.833,63.1667 413.5,56.5C 413.167,56.1667 412.833,55.8333 412.5,55.5C 407.762,63.303 403.262,71.303 399,79.5C 398.346,80.6956 397.846,80.6956 397.5,79.5C 401.402,72.1758 404.902,64.8424 408,57.5C 406.414,58.376 404.914,59.376 403.5,60.5C 399.412,67.6758 395.578,75.0091 392,82.5C 390.561,84.0139 389.061,84.3473 387.5,83.5C 391.788,76.6058 395.121,69.6058 397.5,62.5C 392.667,70.8333 387.833,79.1667 383,87.5C 385.638,79.8851 389.138,72.5517 393.5,65.5C 393.333,65.1667 393.167,64.8333 393,64.5C 391.414,65.376 389.914,66.376 388.5,67.5C 384.868,74.9579 381.035,82.2912 377,89.5C 375.561,91.0139 374.061,91.3473 372.5,90.5C 376.788,83.6058 380.121,76.6058 382.5,69.5C 377.667,77.8333 372.833,86.1667 368,94.5C 370.638,86.8851 374.138,79.5517 378.5,72.5C 378.333,72.1667 378.167,71.8333 378,71.5C 375.574,73.8592 372.741,75.0258 369.5,75C 374.066,67.3452 378.066,59.8452 381.5,52.5C 380.522,52.9767 379.689,53.6433 379,54.5C 370.745,69.3413 362.745,84.3413 355,99.5C 354.163,101.007 352.996,101.507 351.5,101C 355.627,93.914 359.627,86.7474 363.5,79.5C 363.333,79.1667 363.167,78.8333 363,78.5C 360.574,80.8592 357.741,82.0258 354.5,82C 358.987,75.1948 362.487,68.0281 365,60.5C 360.5,68.3333 356,76.1667 351.5,84C 350.833,84.6667 350.167,84.6667 349.5,84C 354.059,76.713 357.892,69.213 361,61.5C 359.488,62.2567 358.154,63.2567 357,64.5C 352.833,72.1667 348.667,79.8333 344.5,87.5C 342.966,88.7362 341.3,89.2362 339.5,89C 341.088,87.013 341.921,84.8463 342,82.5C 340.414,84.6705 339.08,87.0038 338,89.5C 337.163,91.0074 335.996,91.5074 334.5,91C 339.059,83.713 342.892,76.213 346,68.5C 342.46,70.6843 338.793,72.6843 335,74.5C 331,81.8333 327,89.1667 323,96.5C 322.163,98.0074 320.996,98.5074 319.5,98C 324.059,90.713 327.892,83.213 331,75.5C 328.857,77.4705 326.357,78.8038 323.5,79.5C 322.808,78.9747 322.308,78.3081 322,77.5C 321.417,79.0016 320.584,80.3349 319.5,81.5C 313.539,84.1533 308.039,86.82 303,89.5C 306.075,81.6862 309.409,74.0195 313,66.5C 312,67.1667 311,67.8333 310,68.5C 305.912,75.6758 302.078,83.0091 298.5,90.5C 296.417,91.9587 294.25,93.2921 292,94.5C 291.667,94.1667 291.333,93.8333 291,93.5C 290.333,94.8333 289.333,95.8333 288,96.5C 290.638,88.8851 294.138,81.5517 298.5,74.5C 298.333,74.1667 298.167,73.8333 298,73.5C 295.978,74.7865 293.811,75.7865 291.5,76.5C 290.808,75.9747 290.308,75.3081 290,74.5C 285.075,84.6953 279.408,94.362 273,103.5C 275.638,95.8851 279.138,88.5517 283.5,81.5C 281.437,80.9757 279.937,81.9757 279,84.5C 278.667,83.8333 278.333,83.1667 278,82.5C 275.128,83.2088 272.295,84.3754 269.5,86C 274.059,78.713 277.892,71.213 281,63.5C 280,64.1667 279,64.8333 278,65.5C 273.333,74.1667 268.667,82.8333 264,91.5C 263.667,90.8333 263.333,90.1667 263,89.5C 260.128,90.2088 257.295,91.3754 254.5,93C 259.059,85.713 262.892,78.213 266,70.5C 264,71.1667 262.667,72.5 262,74.5C 259.911,74.2549 257.911,74.2549 256,74.5C 251.745,82.0092 247.745,89.6759 244,97.5C 242.887,99.3293 241.387,100.163 239.5,100C 244.059,92.713 247.892,85.213 251,77.5C 248.574,79.8592 245.741,81.0258 242.5,81C 244.088,79.013 244.921,76.8463 245,74.5C 243.414,76.6705 242.08,79.0038 241,81.5C 240.163,83.0074 238.996,83.5074 237.5,83C 241.548,76.4053 245.215,69.572 248.5,62.5C 247.132,61.4063 245.965,61.7397 245,63.5C 240.833,71.1667 236.667,78.8333 232.5,86.5C 230.966,87.7362 229.3,88.2362 227.5,88C 229.745,84.6929 231.245,81.1929 232,77.5C 229.651,82.2118 226.817,86.5452 223.5,90.5C 223.167,90.3333 222.833,90.1667 222.5,90C 226.548,83.4053 230.215,76.572 233.5,69.5C 233.167,69.1667 232.833,68.8333 232.5,68.5C 230.711,69.8772 228.711,70.8772 226.5,71.5C 225.904,70.2839 225.737,68.9506 226,67.5C 220.598,76.5819 215.598,85.9153 211,95.5C 210.163,97.0074 208.996,97.5074 207.5,97C 215.373,82.087 223.373,67.2536 231.5,52.5C 229.887,52.0321 228.387,52.6987 227,54.5C 223.078,61.3423 219.412,68.3423 216,75.5C 214.428,77.5628 212.595,78.2294 210.5,77.5C 214.167,70.8333 217.833,64.1667 221.5,57.5C 220.833,56.1667 220.167,56.1667 219.5,57.5C 215.922,64.9909 212.088,72.3242 208,79.5C 207.163,81.0074 205.996,81.5074 204.5,81C 209.059,73.713 212.892,66.213 216,58.5C 214.488,59.2567 213.154,60.2567 212,61.5C 210.865,61.273 209.698,60.9396 208.5,60.5C 214.267,50.2999 219.433,39.9666 224,29.5C 213.167,49 202.333,68.5 191.5,88C 190.833,88.6667 190.167,88.6667 189.5,88C 194.059,80.713 197.892,73.213 201,65.5C 198.607,67.3669 196.107,68.0335 193.5,67.5C 200.179,54.8065 206.846,42.1398 213.5,29.5C 247.149,28.3374 280.816,28.3374 314.5,29.5 Z"/></g>
<g><path style="opacity:0.999" fill="#02b9f5" d="M 213.5,29.5 C 206.846,42.1398 200.179,54.8065 193.5,67.5C 196.107,68.0335 198.607,67.3669 201,65.5C 197.892,73.213 194.059,80.713 189.5,88C 190.167,88.6667 190.833,88.6667 191.5,88C 202.333,68.5 213.167,49 224,29.5C 219.433,39.9666 214.267,50.2999 208.5,60.5C 209.698,60.9396 210.865,61.273 212,61.5C 213.154,60.2567 214.488,59.2567 216,58.5C 212.892,66.213 209.059,73.713 204.5,81C 205.996,81.5074 207.163,81.0074 208,79.5C 212.088,72.3242 215.922,64.9909 219.5,57.5C 220.167,56.1667 220.833,56.1667 221.5,57.5C 217.833,64.1667 214.167,70.8333 210.5,77.5C 212.595,78.2294 214.428,77.5628 216,75.5C 219.412,68.3423 223.078,61.3423 227,54.5C 228.387,52.6987 229.887,52.0321 231.5,52.5C 223.373,67.2536 215.373,82.087 207.5,97C 208.996,97.5074 210.163,97.0074 211,95.5C 215.598,85.9153 220.598,76.5819 226,67.5C 225.737,68.9506 225.904,70.2839 226.5,71.5C 228.711,70.8772 230.711,69.8772 232.5,68.5C 232.833,68.8333 233.167,69.1667 233.5,69.5C 230.215,76.572 226.548,83.4053 222.5,90C 222.833,90.1667 223.167,90.3333 223.5,90.5C 226.817,86.5452 229.651,82.2118 232,77.5C 231.245,81.1929 229.745,84.6929 227.5,88C 229.3,88.2362 230.966,87.7362 232.5,86.5C 236.667,78.8333 240.833,71.1667 245,63.5C 245.965,61.7397 247.132,61.4063 248.5,62.5C 245.215,69.572 241.548,76.4053 237.5,83C 238.996,83.5074 240.163,83.0074 241,81.5C 242.08,79.0038 243.414,76.6705 245,74.5C 244.921,76.8463 244.088,79.013 242.5,81C 245.741,81.0258 248.574,79.8592 251,77.5C 247.892,85.213 244.059,92.713 239.5,100C 241.387,100.163 242.887,99.3293 244,97.5C 247.745,89.6759 251.745,82.0092 256,74.5C 257.911,74.2549 259.911,74.2549 262,74.5C 262.667,72.5 264,71.1667 266,70.5C 262.892,78.213 259.059,85.713 254.5,93C 257.295,91.3754 260.128,90.2088 263,89.5C 263.333,90.1667 263.667,90.8333 264,91.5C 268.667,82.8333 273.333,74.1667 278,65.5C 279,64.8333 280,64.1667 281,63.5C 277.892,71.213 274.059,78.713 269.5,86C 272.295,84.3754 275.128,83.2088 278,82.5C 278.333,83.1667 278.667,83.8333 279,84.5C 279.937,81.9757 281.437,80.9757 283.5,81.5C 279.138,88.5517 275.638,95.8851 273,103.5C 279.408,94.362 285.075,84.6953 290,74.5C 290.308,75.3081 290.808,75.9747 291.5,76.5C 293.811,75.7865 295.978,74.7865 298,73.5C 298.167,73.8333 298.333,74.1667 298.5,74.5C 294.138,81.5517 290.638,88.8851 288,96.5C 289.333,95.8333 290.333,94.8333 291,93.5C 291.333,93.8333 291.667,94.1667 292,94.5C 294.25,93.2921 296.417,91.9587 298.5,90.5C 302.078,83.0091 305.912,75.6758 310,68.5C 311,67.8333 312,67.1667 313,66.5C 309.409,74.0195 306.075,81.6862 303,89.5C 308.039,86.82 313.539,84.1533 319.5,81.5C 320.584,80.3349 321.417,79.0016 322,77.5C 322.308,78.3081 322.808,78.9747 323.5,79.5C 326.357,78.8038 328.857,77.4705 331,75.5C 327.892,83.213 324.059,90.713 319.5,98C 320.996,98.5074 322.163,98.0074 323,96.5C 327,89.1667 331,81.8333 335,74.5C 338.793,72.6843 342.46,70.6843 346,68.5C 342.892,76.213 339.059,83.713 334.5,91C 335.996,91.5074 337.163,91.0074 338,89.5C 339.08,87.0038 340.414,84.6705 342,82.5C 341.921,84.8463 341.088,87.013 339.5,89C 341.3,89.2362 342.966,88.7362 344.5,87.5C 348.667,79.8333 352.833,72.1667 357,64.5C 358.154,63.2567 359.488,62.2567 361,61.5C 357.892,69.213 354.059,76.713 349.5,84C 350.167,84.6667 350.833,84.6667 351.5,84C 356,76.1667 360.5,68.3333 365,60.5C 362.487,68.0281 358.987,75.1948 354.5,82C 357.741,82.0258 360.574,80.8592 363,78.5C 363.167,78.8333 363.333,79.1667 363.5,79.5C 359.627,86.7474 355.627,93.914 351.5,101C 352.996,101.507 354.163,101.007 355,99.5C 362.745,84.3413 370.745,69.3413 379,54.5C 379.689,53.6433 380.522,52.9767 381.5,52.5C 378.066,59.8452 374.066,67.3452 369.5,75C 372.741,75.0258 375.574,73.8592 378,71.5C 378.167,71.8333 378.333,72.1667 378.5,72.5C 374.138,79.5517 370.638,86.8851 368,94.5C 372.833,86.1667 377.667,77.8333 382.5,69.5C 380.121,76.6058 376.788,83.6058 372.5,90.5C 374.061,91.3473 375.561,91.0139 377,89.5C 381.035,82.2912 384.868,74.9579 388.5,67.5C 389.914,66.376 391.414,65.376 393,64.5C 393.167,64.8333 393.333,65.1667 393.5,65.5C 389.138,72.5517 385.638,79.8851 383,87.5C 387.833,79.1667 392.667,70.8333 397.5,62.5C 395.121,69.6058 391.788,76.6058 387.5,83.5C 389.061,84.3473 390.561,84.0139 392,82.5C 395.578,75.0091 399.412,67.6758 403.5,60.5C 404.914,59.376 406.414,58.376 408,57.5C 404.902,64.8424 401.402,72.1758 397.5,79.5C 397.846,80.6956 398.346,80.6956 399,79.5C 403.262,71.303 407.762,63.303 412.5,55.5C 412.833,55.8333 413.167,56.1667 413.5,56.5C 409.833,63.1667 406.167,69.8333 402.5,76.5C 404.47,77.4431 405.97,76.7764 407,74.5C 408.667,74.8333 410.333,75.1667 412,75.5C 416.676,66.1385 421.843,57.1385 427.5,48.5C 427.833,48.8333 428.167,49.1667 428.5,49.5C 424.833,56.1667 421.167,62.8333 417.5,69.5C 419.47,70.4431 420.97,69.7764 422,67.5C 423.667,67.8333 425.333,68.1667 427,68.5C 430.522,65.7341 433.855,62.7341 437,59.5C 437.308,60.3081 437.808,60.9747 438.5,61.5C 440.711,60.8772 442.711,59.8772 444.5,58.5C 444.833,58.8333 445.167,59.1667 445.5,59.5C 441.706,66.2538 438.039,73.0871 434.5,80C 434.833,80.1667 435.167,80.3333 435.5,80.5C 440.961,73.5058 445.461,65.8391 449,57.5C 451.491,59.7085 453.324,61.8752 454.5,64C 452.298,67.1831 450.965,70.3498 450.5,73.5C 452.493,71.3345 454.327,69.0011 456,66.5C 455.737,67.9506 455.904,69.2839 456.5,70.5C 468.204,65.3146 479.537,59.648 490.5,53.5C 496.173,62.3344 500.006,72.0011 502,82.5C 504.161,98.1061 505.661,113.773 506.5,129.5C 483.167,140.5 459.833,151.5 436.5,162.5C 426.035,152.535 415.702,142.369 405.5,132C 404.563,131.308 403.897,131.475 403.5,132.5C 391.345,138.992 378.512,143.659 365,146.5C 342.837,126.443 317.671,121.61 289.5,132C 260.053,147.727 247.719,172.227 252.5,205.5C 198.554,202.36 154.22,180.36 119.5,139.5C 119.196,138.85 118.863,138.183 118.5,137.5C 120.29,134.612 121.457,131.612 122,128.5C 119.079,133.341 116.412,138.341 114,143.5C 113.163,145.007 111.996,145.507 110.5,145C 118.912,128.84 127.579,112.84 136.5,97C 135.551,96.3828 134.718,96.5494 134,97.5C 124.921,114.66 115.587,131.66 106,148.5C 113.771,132.488 121.938,116.488 130.5,100.5C 128.675,99.4291 127.508,100.096 127,102.5C 122.05,102.709 117.384,104.376 113,107.5C 112.833,107.167 112.667,106.833 112.5,106.5C 125.558,81.7995 138.558,57.1329 151.5,32.5C 172.123,30.8349 192.789,29.8349 213.5,29.5 Z"/></g>
<g><path style="opacity:1" fill="#01b7f1" d="M 151.5,32.5 C 138.558,57.1329 125.558,81.7995 112.5,106.5C 112.667,106.833 112.833,107.167 113,107.5C 117.384,104.376 122.05,102.709 127,102.5C 127.508,100.096 128.675,99.4291 130.5,100.5C 121.938,116.488 113.771,132.488 106,148.5C 115.587,131.66 124.921,114.66 134,97.5C 134.718,96.5494 135.551,96.3828 136.5,97C 127.579,112.84 118.912,128.84 110.5,145C 111.996,145.507 113.163,145.007 114,143.5C 116.412,138.341 119.079,133.341 122,128.5C 121.457,131.612 120.29,134.612 118.5,137.5C 118.863,138.183 119.196,138.85 119.5,139.5C 118.504,139.414 117.671,139.748 117,140.5C 103.934,169.265 108.1,195.098 129.5,218C 132.167,220 134.833,222 137.5,224C 127.257,224.523 117.591,222.357 108.5,217.5C 107.872,225.354 109.039,233.02 112,240.5C 113.786,243.736 115.286,247.07 116.5,250.5C 109.108,263.612 101.941,276.946 95,290.5C 94.059,292.061 92.8924,293.395 91.5,294.5C 91.1667,294.333 90.8333,294.167 90.5,294C 94.5483,287.405 98.215,280.572 101.5,273.5C 101.167,273.167 100.833,272.833 100.5,272.5C 98.5,273.5 96.5,274.5 94.5,275.5C 96.8791,268.394 100.212,261.394 104.5,254.5C 104.167,254.167 103.833,253.833 103.5,253.5C 98.8251,260.847 94.6584,268.514 91,276.5C 90.2825,277.451 89.4491,277.617 88.5,277C 92.0395,270.087 95.7061,263.254 99.5,256.5C 99.1667,256.167 98.8333,255.833 98.5,255.5C 96.5283,256.305 95.0283,257.639 94,259.5C 90.5883,266.658 86.9216,273.658 83,280.5C 81.561,282.014 80.061,282.347 78.5,281.5C 82.7876,274.606 86.1209,267.606 88.5,260.5C 83.9135,268.004 79.5801,275.671 75.5,283.5C 74.9984,284.521 74.3317,284.688 73.5,284C 77.0395,277.087 80.7061,270.254 84.5,263.5C 83.302,263.06 82.1353,262.727 81,262.5C 79.9698,264.776 78.4698,265.443 76.5,264.5C 80.2939,257.746 83.9605,250.913 87.5,244C 87.1667,243.833 86.8333,243.667 86.5,243.5C 77.0089,259.141 68.0089,275.141 59.5,291.5C 61.8612,284.428 65.1945,277.428 69.5,270.5C 69.1667,270.167 68.8333,269.833 68.5,269.5C 66.5,270.5 64.5,271.5 62.5,272.5C 62.1667,272.167 61.8333,271.833 61.5,271.5C 65.2939,264.746 68.9605,257.913 72.5,251C 70.2319,250.91 68.7319,252.077 68,254.5C 67.1247,252.487 65.7913,252.487 64,254.5C 63.6667,254.167 63.3333,253.833 63,253.5C 59.4118,259.675 56.0785,266.009 53,272.5C 51.6378,275.236 49.8044,277.569 47.5,279.5C 47.1667,279.167 46.8333,278.833 46.5,278.5C 50.2939,271.746 53.9605,264.913 57.5,258C 55.2319,257.91 53.7319,259.077 53,261.5C 52.1247,259.487 50.7913,259.487 49,261.5C 48.6667,260.833 48.3333,260.167 48,259.5C 43.6667,267.833 39.3333,276.167 35,284.5C 34.0347,286.26 32.868,286.594 31.5,285.5C 39.1185,270.428 47.1185,255.594 55.5,241C 53.9242,240.612 52.5909,241.112 51.5,242.5C 47,250.833 42.5,259.167 38,267.5C 36.6569,266.786 35.3236,267.12 34,268.5C 33.6667,267.833 33.3333,267.167 33,266.5C 32.2079,268.644 30.7079,269.977 28.5,270.5C 27.8928,234.446 28.8928,198.446 31.5,162.5C 32.6135,144.804 34.1135,127.138 36,109.5C 41.6992,74.4738 61.1992,50.9738 94.5,39C 113.369,35.7664 132.369,33.5998 151.5,32.5 Z"/></g>
<g><path style="opacity:1" fill="#fefefe" d="M 403.5,132.5 C 400.168,146.542 392.168,157.709 379.5,166C 384.168,165.779 388.835,165.112 393.5,164C 400.276,161.96 406.943,159.96 413.5,158C 405.42,170.748 395.253,181.581 383,190.5C 383.154,216.245 378.987,241.245 370.5,265.5C 356.41,300.59 334.077,329.256 303.5,351.5C 272.721,372.092 238.721,383.092 201.5,384.5C 164.714,385.677 130.714,376.677 99.5,357.5C 120.13,357.405 140.796,353.572 161.5,346C 166.387,343.726 171.054,341.226 175.5,338.5C 180.959,335.931 185.959,332.598 190.5,328.5C 178.006,326.796 166.339,322.796 155.5,316.5C 144.343,307.874 136.343,296.874 131.5,283.5C 133.003,282.948 134.669,282.948 136.5,283.5C 144.495,284.834 152.495,284.167 160.5,281.5C 150.813,278.489 141.813,274.156 133.5,268.5C 127.157,263.157 121.491,257.157 116.5,250.5C 115.286,247.07 113.786,243.736 112,240.5C 109.039,233.02 107.872,225.354 108.5,217.5C 117.591,222.357 127.257,224.523 137.5,224C 134.833,222 132.167,220 129.5,218C 108.1,195.098 103.934,169.265 117,140.5C 117.671,139.748 118.504,139.414 119.5,139.5C 154.22,180.36 198.554,202.36 252.5,205.5C 247.719,172.227 260.053,147.727 289.5,132C 317.671,121.61 342.837,126.443 365,146.5C 378.512,143.659 391.345,138.992 403.5,132.5 Z"/></g>
<g><path style="opacity:1" fill="#06aadd" d="M 403.5,132.5 C 403.897,131.475 404.563,131.308 405.5,132C 415.702,142.369 426.035,152.535 436.5,162.5C 441.833,168.5 447.5,174.167 453.5,179.5C 447.762,186.744 441.428,193.577 434.5,200C 436.095,199.383 437.428,199.716 438.5,201C 425.5,214 412.5,227 399.5,240C 389.949,247.544 380.949,255.878 372.5,265C 371.906,265.464 371.239,265.631 370.5,265.5C 378.987,241.245 383.154,216.245 383,190.5C 395.253,181.581 405.42,170.748 413.5,158C 406.943,159.96 400.276,161.96 393.5,164C 388.835,165.112 384.168,165.779 379.5,166C 392.168,157.709 400.168,146.542 403.5,132.5 Z"/></g>
<g><path style="opacity:0.989" fill="#00b4f1" d="M 506.5,129.5 C 508.578,153.267 510.244,176.933 511.5,200.5C 511.5,212.5 511.5,224.5 511.5,236.5C 510.078,235.075 508.411,234.075 506.5,233.5C 488.8,215.467 471.133,197.467 453.5,179.5C 447.5,174.167 441.833,168.5 436.5,162.5C 459.833,151.5 483.167,140.5 506.5,129.5 Z"/></g>
<g><path style="opacity:0.99" fill="#00befa" d="M 31.5,162.5 C 28.8928,198.446 27.8928,234.446 28.5,270.5C 18.9453,275.111 9.27864,279.445 -0.5,283.5C -0.5,255.833 -0.5,228.167 -0.5,200.5C 0.195172,192.599 0.861839,184.599 1.5,176.5C 11.5,171.833 21.5,167.167 31.5,162.5 Z"/></g>
<g><path style="opacity:1" fill="#00ace4" d="M 453.5,179.5 C 471.133,197.467 488.8,215.467 506.5,233.5C 487.675,250.494 488.841,252.494 510,239.5C 510.667,240.167 510.667,240.833 510,241.5C 444.167,307.333 378.333,373.167 312.5,439C 313,439.5 313.5,440 314,440.5C 316.105,439.585 318.605,439.418 321.5,440C 384.333,377.167 447.167,314.333 510,251.5C 510.667,252.167 510.667,252.833 510,253.5C 444.833,318.667 379.667,383.833 314.5,449C 315,449.5 315.5,450 316,450.5C 317.647,449.86 319.481,449.86 321.5,450.5C 331.167,445.928 331.833,447.095 323.5,454C 324,454.5 324.5,455 325,455.5C 327.295,455.311 329.295,453.977 331,451.5C 333.069,452.264 335.236,452.764 337.5,453C 336.833,453.667 336.167,454.333 335.5,455C 338.914,455.297 342.247,455.964 345.5,457C 341.167,457.333 336.833,457.667 332.5,458C 335.095,458.226 337.595,458.726 340,459.5C 343.7,458.546 348.033,458.879 353,460.5C 360.589,459.742 368.255,459.409 376,459.5C 378.069,460.264 380.236,460.764 382.5,461C 379.3,461.101 376.3,461.768 373.5,463C 377.414,463.234 380.414,464.067 382.5,465.5C 384.808,465.635 386.808,464.969 388.5,463.5C 389.478,463.977 390.311,464.643 391,465.5C 393.333,465.167 395.667,464.833 398,464.5C 401.076,465.288 404.242,465.788 407.5,466C 409.221,467.437 410.721,466.937 412,464.5C 416.551,465.008 421.717,465.508 427.5,466C 426.112,466.889 426.278,467.389 428,467.5C 433,464.833 438,464.833 443,467.5C 447.914,467.859 453.081,467.193 458.5,465.5C 463.516,467.248 468.016,467.914 472,467.5C 475.248,463.777 478.248,463.777 481,467.5C 481.333,467.167 481.667,466.833 482,466.5C 482.483,467.448 482.649,468.448 482.5,469.5C 478.167,474.5 473.5,479.167 468.5,483.5C 468.414,482.504 468.748,481.671 469.5,481C 468.833,480.833 468.167,480.667 467.5,480.5C 451.55,480.64 436.55,480.64 422.5,480.5C 420.083,481.404 417.583,482.071 415,482.5C 413.176,481.53 411.009,480.863 408.5,480.5C 405.911,480.442 403.577,481.108 401.5,482.5C 399.971,482.471 398.804,481.804 398,480.5C 395.684,481.196 393.184,481.196 390.5,480.5C 386.939,483.018 383.439,483.018 380,480.5C 378,481.833 376,481.833 374,480.5C 373,481.5 372,482.5 371,483.5C 367.924,482.712 364.758,482.212 361.5,482C 361.833,481.667 362.167,481.333 362.5,481C 359.86,480.161 357.527,480.661 355.5,482.5C 354.522,482.023 353.689,481.357 353,480.5C 350.45,480.734 347.617,480.734 344.5,480.5C 342.519,480.437 340.852,481.104 339.5,482.5C 338.522,482.023 337.689,481.357 337,480.5C 334.45,480.734 331.617,480.734 328.5,480.5C 326.519,480.437 324.852,481.104 323.5,482.5C 321.702,480.668 319.868,480.335 318,481.5C 313.251,480.695 308.418,480.195 303.5,480C 302.5,478 301.5,478 300.5,480C 298.667,480.167 296.833,480.333 295,480.5C 292.46,480.038 290.127,480.038 288,480.5C 287.333,479.833 286.667,479.167 286,478.5C 282.927,479.93 279.594,480.597 276,480.5C 275.333,479.833 274.667,479.167 274,478.5C 271.301,478.299 268.468,478.632 265.5,479.5C 262.876,478.453 262.042,476.787 263,474.5C 260.908,475.64 258.741,475.64 256.5,474.5C 255.167,475.5 253.833,476.5 252.5,477.5C 252.678,476.044 251.844,474.711 250,473.5C 247.457,473.635 244.79,474.302 242,475.5C 239.989,471.998 238.656,471.998 238,475.5C 236.174,473.926 234.007,473.093 231.5,473C 233.937,471.721 234.437,470.221 233,468.5C 232.333,469.167 231.667,469.833 231,470.5C 228.595,469.726 226.095,469.226 223.5,469C 225.657,467.915 225.824,466.749 224,465.5C 220.492,469.611 219.992,469.444 222.5,465C 220.926,464.647 219.259,463.98 217.5,463C 219.225,462.135 220.892,461.469 222.5,461C 219.993,460.907 217.826,460.074 216,458.5C 214.598,460.973 213.098,460.973 211.5,458.5C 210.549,459.326 209.549,459.492 208.5,459C 210.026,457.113 212.026,456.113 214.5,456C 213.833,455.667 213.167,455.333 212.5,455C 213.5,454 214.5,453 215.5,452C 214.123,450.603 213.29,449.103 213,447.5C 211.757,449.763 209.924,450.597 207.5,450C 239.421,418.079 271.088,386.412 302.5,355C 302.167,354.667 301.833,354.333 301.5,354C 302.381,353.292 303.047,352.458 303.5,351.5C 334.077,329.256 356.41,300.59 370.5,265.5C 371.239,265.631 371.906,265.464 372.5,265C 380.949,255.878 389.949,247.544 399.5,240C 412.5,227 425.5,214 438.5,201C 437.428,199.716 436.095,199.383 434.5,200C 441.428,193.577 447.762,186.744 453.5,179.5 Z"/></g>
<g><path style="opacity:0.999" fill="#01b3ef" d="M 116.5,250.5 C 121.491,257.157 127.157,263.157 133.5,268.5C 137.233,273.74 141.566,278.574 146.5,283C 143.183,283.498 139.85,283.665 136.5,283.5C 134.669,282.948 133.003,282.948 131.5,283.5C 136.343,296.874 144.343,307.874 155.5,316.5C 162.508,323.508 169.174,330.842 175.5,338.5C 171.054,341.226 166.387,343.726 161.5,346C 140.796,353.572 120.13,357.405 99.5,357.5C 100.075,359.411 101.075,361.078 102.5,362.5C 94.8613,376.15 87.1947,389.816 79.5,403.5C 78.4835,404.893 77.4835,405.227 76.5,404.5C 80.5,397.167 84.5,389.833 88.5,382.5C 88.1667,382.167 87.8333,381.833 87.5,381.5C 82.5,390.167 77.5,398.833 72.5,407.5C 72.1667,407.167 71.8333,406.833 71.5,406.5C 75.9335,398.967 79.7668,391.3 83,383.5C 79.8504,387.119 77.1837,391.119 75,395.5C 75.4183,392.479 76.585,389.645 78.5,387C 75.5724,386.909 73.7391,388.409 73,391.5C 72.6121,390.572 71.9454,389.905 71,389.5C 66.0202,391.747 61.5202,393.914 57.5,396C 56.5,396.667 55.5,396.667 54.5,396C 59.0588,388.713 62.8922,381.213 66,373.5C 61.2467,381.338 56.7467,389.338 52.5,397.5C 51.7579,398.287 50.9246,398.953 50,399.5C 53.2332,391.7 57.0665,384.033 61.5,376.5C 61.1667,376.167 60.8333,375.833 60.5,375.5C 55.5,384.167 50.5,392.833 45.5,401.5C 45.1667,401.333 44.8333,401.167 44.5,401C 48.8076,393.221 52.6409,385.388 56,377.5C 54.3333,378.5 53,379.833 52,381.5C 51.586,381.043 51.086,380.709 50.5,380.5C 46.1352,382.099 41.9686,384.099 38,386.5C 37.6667,386.167 37.3333,385.833 37,385.5C 34.3913,405.086 38.8913,423.252 50.5,440C 47.5,440.333 44.5,440.667 41.5,441C 44.8333,441.333 48.1667,441.667 51.5,442C 52.1667,442.667 52.8333,443.333 53.5,444C 45.7291,444.066 38.0624,444.733 30.5,446C 38.8333,446.333 47.1667,446.667 55.5,447C 42.4113,447.065 29.4113,447.898 16.5,449.5C 11.9943,441.144 9.16097,432.144 8,422.5C 6.01497,402.831 4.18164,383.164 2.5,363.5C 3.14987,363.804 3.81654,364.137 4.5,364.5C 13.3074,360.067 22.1407,355.734 31,351.5C 30.1703,336.22 29.6703,320.887 29.5,305.5C 29.5076,297.591 29.8409,289.757 30.5,282C 28.623,278.506 27.9564,274.673 28.5,270.5C 30.7079,269.977 32.2079,268.644 33,266.5C 33.3333,267.167 33.6667,267.833 34,268.5C 35.3236,267.12 36.6569,266.786 38,267.5C 42.5,259.167 47,250.833 51.5,242.5C 52.5909,241.112 53.9242,240.612 55.5,241C 47.1185,255.594 39.1185,270.428 31.5,285.5C 32.868,286.594 34.0347,286.26 35,284.5C 39.3333,276.167 43.6667,267.833 48,259.5C 48.3333,260.167 48.6667,260.833 49,261.5C 50.7913,259.487 52.1247,259.487 53,261.5C 53.7319,259.077 55.2319,257.91 57.5,258C 53.9605,264.913 50.2939,271.746 46.5,278.5C 46.8333,278.833 47.1667,279.167 47.5,279.5C 49.8044,277.569 51.6378,275.236 53,272.5C 56.0785,266.009 59.4118,259.675 63,253.5C 63.3333,253.833 63.6667,254.167 64,254.5C 65.7913,252.487 67.1247,252.487 68,254.5C 68.7319,252.077 70.2319,250.91 72.5,251C 68.9605,257.913 65.2939,264.746 61.5,271.5C 61.8333,271.833 62.1667,272.167 62.5,272.5C 64.5,271.5 66.5,270.5 68.5,269.5C 68.8333,269.833 69.1667,270.167 69.5,270.5C 65.1945,277.428 61.8612,284.428 59.5,291.5C 68.0089,275.141 77.0089,259.141 86.5,243.5C 86.8333,243.667 87.1667,243.833 87.5,244C 83.9605,250.913 80.2939,257.746 76.5,264.5C 78.4698,265.443 79.9698,264.776 81,262.5C 82.1353,262.727 83.302,263.06 84.5,263.5C 80.7061,270.254 77.0395,277.087 73.5,284C 74.3317,284.688 74.9984,284.521 75.5,283.5C 79.5801,275.671 83.9135,268.004 88.5,260.5C 86.1209,267.606 82.7876,274.606 78.5,281.5C 80.061,282.347 81.561,282.014 83,280.5C 86.9216,273.658 90.5883,266.658 94,259.5C 95.0283,257.639 96.5283,256.305 98.5,255.5C 98.8333,255.833 99.1667,256.167 99.5,256.5C 95.7061,263.254 92.0395,270.087 88.5,277C 89.4491,277.617 90.2825,277.451 91,276.5C 94.6584,268.514 98.8251,260.847 103.5,253.5C 103.833,253.833 104.167,254.167 104.5,254.5C 100.212,261.394 96.8791,268.394 94.5,275.5C 96.5,274.5 98.5,273.5 100.5,272.5C 100.833,272.833 101.167,273.167 101.5,273.5C 98.215,280.572 94.5483,287.405 90.5,294C 90.8333,294.167 91.1667,294.333 91.5,294.5C 92.8924,293.395 94.059,292.061 95,290.5C 101.941,276.946 109.108,263.612 116.5,250.5 Z"/></g>
<g><path style="opacity:1" fill="#00aee8" d="M 506.5,233.5 C 508.411,234.075 510.078,235.075 511.5,236.5C 511.5,261.167 511.5,285.833 511.5,310.5C 510.523,313.287 510.19,316.287 510.5,319.5C 467.467,361.866 424.8,404.533 382.5,447.5C 384.585,449.575 386.419,449.575 388,447.5C 390.497,449.154 392.997,449.987 395.5,450C 395,450.5 394.5,451 394,451.5C 392.732,451.384 391.398,451.051 390,450.5C 388.266,451.249 386.433,451.749 384.5,452C 386.618,453.142 388.618,453.642 390.5,453.5C 390,454.5 389.5,455.5 389,456.5C 387.757,455.664 386.59,455.997 385.5,457.5C 385.667,457.833 385.833,458.167 386,458.5C 401.297,458.547 416.297,458.214 431,457.5C 436.512,459.386 442.179,459.386 448,457.5C 450.271,459.434 452.271,459.434 454,457.5C 456.271,459.434 458.271,459.434 460,457.5C 461.333,458.167 462.667,458.833 464,459.5C 466,458.167 468,458.167 470,459.5C 471.333,458.833 472.667,458.167 474,457.5C 478,457.5 482,457.5 486,457.5C 486.71,458.973 487.876,459.64 489.5,459.5C 487.646,463.221 485.313,466.554 482.5,469.5C 482.649,468.448 482.483,467.448 482,466.5C 481.667,466.833 481.333,467.167 481,467.5C 478.248,463.777 475.248,463.777 472,467.5C 468.016,467.914 463.516,467.248 458.5,465.5C 453.081,467.193 447.914,467.859 443,467.5C 438,464.833 433,464.833 428,467.5C 426.278,467.389 426.112,466.889 427.5,466C 421.717,465.508 416.551,465.008 412,464.5C 410.721,466.937 409.221,467.437 407.5,466C 404.242,465.788 401.076,465.288 398,464.5C 395.667,464.833 393.333,465.167 391,465.5C 390.311,464.643 389.478,463.977 388.5,463.5C 386.808,464.969 384.808,465.635 382.5,465.5C 380.414,464.067 377.414,463.234 373.5,463C 376.3,461.768 379.3,461.101 382.5,461C 380.236,460.764 378.069,460.264 376,459.5C 368.255,459.409 360.589,459.742 353,460.5C 348.033,458.879 343.7,458.546 340,459.5C 337.595,458.726 335.095,458.226 332.5,458C 336.833,457.667 341.167,457.333 345.5,457C 342.247,455.964 338.914,455.297 335.5,455C 336.167,454.333 336.833,453.667 337.5,453C 335.236,452.764 333.069,452.264 331,451.5C 329.295,453.977 327.295,455.311 325,455.5C 324.5,455 324,454.5 323.5,454C 331.833,447.095 331.167,445.928 321.5,450.5C 319.481,449.86 317.647,449.86 316,450.5C 315.5,450 315,449.5 314.5,449C 379.667,383.833 444.833,318.667 510,253.5C 510.667,252.833 510.667,252.167 510,251.5C 447.167,314.333 384.333,377.167 321.5,440C 318.605,439.418 316.105,439.585 314,440.5C 313.5,440 313,439.5 312.5,439C 378.333,373.167 444.167,307.333 510,241.5C 510.667,240.833 510.667,240.167 510,239.5C 488.841,252.494 487.675,250.494 506.5,233.5 Z"/></g>
<g><path style="opacity:0.989" fill="#00b9f5" d="M 28.5,270.5 C 27.9564,274.673 28.623,278.506 30.5,282C 29.8409,289.757 29.5076,297.591 29.5,305.5C 29.6703,320.887 30.1703,336.22 31,351.5C 22.1407,355.734 13.3074,360.067 4.5,364.5C 3.81654,364.137 3.14987,363.804 2.5,363.5C 1.75007,345.665 0.750069,327.998 -0.5,310.5C -0.5,301.5 -0.5,292.5 -0.5,283.5C 9.27864,279.445 18.9453,275.111 28.5,270.5 Z"/></g>
<g><path style="opacity:1" fill="#38aed5" d="M 133.5,268.5 C 141.813,274.156 150.813,278.489 160.5,281.5C 152.495,284.167 144.495,284.834 136.5,283.5C 139.85,283.665 143.183,283.498 146.5,283C 141.566,278.574 137.233,273.74 133.5,268.5 Z"/></g>
<g><path style="opacity:1" fill="#1ea8d4" d="M 155.5,316.5 C 166.339,322.796 178.006,326.796 190.5,328.5C 185.959,332.598 180.959,335.931 175.5,338.5C 169.174,330.842 162.508,323.508 155.5,316.5 Z"/></g>
<g><path style="opacity:0.996" fill="#00afeb" d="M 510.5,319.5 C 509.199,353.917 506.699,388.25 503,422.5C 501.147,435.9 496.647,448.233 489.5,459.5C 487.876,459.64 486.71,458.973 486,457.5C 482,457.5 478,457.5 474,457.5C 472.667,458.167 471.333,458.833 470,459.5C 468,458.167 466,458.167 464,459.5C 462.667,458.833 461.333,458.167 460,457.5C 458.271,459.434 456.271,459.434 454,457.5C 452.271,459.434 450.271,459.434 448,457.5C 442.179,459.386 436.512,459.386 431,457.5C 416.297,458.214 401.297,458.547 386,458.5C 385.833,458.167 385.667,457.833 385.5,457.5C 386.59,455.997 387.757,455.664 389,456.5C 389.5,455.5 390,454.5 390.5,453.5C 388.618,453.642 386.618,453.142 384.5,452C 386.433,451.749 388.266,451.249 390,450.5C 391.398,451.051 392.732,451.384 394,451.5C 394.5,451 395,450.5 395.5,450C 392.997,449.987 390.497,449.154 388,447.5C 386.419,449.575 384.585,449.575 382.5,447.5C 424.8,404.533 467.467,361.866 510.5,319.5 Z"/></g>
<g><path style="opacity:0.999" fill="#00afeb" d="M 102.5,362.5 C 103.239,362.369 103.906,362.536 104.5,363C 123.397,382.399 142.731,401.232 162.5,419.5C 177.05,434.716 191.716,449.383 206.5,463.5C 206.007,465.49 204.84,465.49 203,463.5C 199.936,464.783 196.603,465.45 193,465.5C 169.469,464.743 146.136,464.743 123,465.5C 119.333,464.833 115.667,464.167 112,463.5C 107.905,464.769 103.738,464.769 99.5,463.5C 93.7996,465.293 87.9663,465.293 82,463.5C 80.9326,464.191 79.7659,464.691 78.5,465C 61.1371,464.844 44.1371,465.678 27.5,467.5C 22.3311,462.51 18.6644,456.51 16.5,449.5C 29.4113,447.898 42.4113,447.065 55.5,447C 47.1667,446.667 38.8333,446.333 30.5,446C 38.0624,444.733 45.7291,444.066 53.5,444C 52.8333,443.333 52.1667,442.667 51.5,442C 48.1667,441.667 44.8333,441.333 41.5,441C 44.5,440.667 47.5,440.333 50.5,440C 38.8913,423.252 34.3913,405.086 37,385.5C 37.3333,385.833 37.6667,386.167 38,386.5C 41.9686,384.099 46.1352,382.099 50.5,380.5C 51.086,380.709 51.586,381.043 52,381.5C 53,379.833 54.3333,378.5 56,377.5C 52.6409,385.388 48.8076,393.221 44.5,401C 44.8333,401.167 45.1667,401.333 45.5,401.5C 50.5,392.833 55.5,384.167 60.5,375.5C 60.8333,375.833 61.1667,376.167 61.5,376.5C 57.0665,384.033 53.2332,391.7 50,399.5C 50.9246,398.953 51.7579,398.287 52.5,397.5C 56.7467,389.338 61.2467,381.338 66,373.5C 62.8922,381.213 59.0588,388.713 54.5,396C 55.5,396.667 56.5,396.667 57.5,396C 61.5202,393.914 66.0202,391.747 71,389.5C 71.9454,389.905 72.6121,390.572 73,391.5C 73.7391,388.409 75.5724,386.909 78.5,387C 76.585,389.645 75.4183,392.479 75,395.5C 77.1837,391.119 79.8504,387.119 83,383.5C 79.7668,391.3 75.9335,398.967 71.5,406.5C 71.8333,406.833 72.1667,407.167 72.5,407.5C 77.5,398.833 82.5,390.167 87.5,381.5C 87.8333,381.833 88.1667,382.167 88.5,382.5C 84.5,389.833 80.5,397.167 76.5,404.5C 77.4835,405.227 78.4835,404.893 79.5,403.5C 87.1947,389.816 94.8613,376.15 102.5,362.5 Z"/></g>
<g><path style="opacity:1" fill="#06a6d7" d="M 99.5,357.5 C 130.714,376.677 164.714,385.677 201.5,384.5C 200.391,385.29 199.058,385.79 197.5,386C 186.247,397.756 174.58,408.923 162.5,419.5C 142.731,401.232 123.397,382.399 104.5,363C 103.906,362.536 103.239,362.369 102.5,362.5C 101.075,361.078 100.075,359.411 99.5,357.5 Z"/></g>
<g><path style="opacity:0.998" fill="#00abe4" d="M 206.5,463.5 C 210.117,466.319 213.783,469.152 217.5,472C 217.167,472.333 216.833,472.667 216.5,473C 218.833,475.333 221.167,477.667 223.5,480C 164.189,479.839 103.189,480.339 40.5,481.5C 35.438,477.441 31.1047,472.774 27.5,467.5C 44.1371,465.678 61.1371,464.844 78.5,465C 79.7659,464.691 80.9326,464.191 82,463.5C 87.9663,465.293 93.7996,465.293 99.5,463.5C 103.738,464.769 107.905,464.769 112,463.5C 115.667,464.167 119.333,464.833 123,465.5C 146.136,464.743 169.469,464.743 193,465.5C 196.603,465.45 199.936,464.783 203,463.5C 204.84,465.49 206.007,465.49 206.5,463.5 Z"/></g>
<g><path style="opacity:1" fill="#01a9de" d="M 303.5,351.5 C 303.047,352.458 302.381,353.292 301.5,354C 301.833,354.333 302.167,354.667 302.5,355C 271.088,386.412 239.421,418.079 207.5,450C 209.924,450.597 211.757,449.763 213,447.5C 213.29,449.103 214.123,450.603 215.5,452C 214.5,453 213.5,454 212.5,455C 213.167,455.333 213.833,455.667 214.5,456C 212.026,456.113 210.026,457.113 208.5,459C 209.549,459.492 210.549,459.326 211.5,458.5C 213.098,460.973 214.598,460.973 216,458.5C 217.826,460.074 219.993,460.907 222.5,461C 220.892,461.469 219.225,462.135 217.5,463C 219.259,463.98 220.926,464.647 222.5,465C 219.992,469.444 220.492,469.611 224,465.5C 225.824,466.749 225.657,467.915 223.5,469C 226.095,469.226 228.595,469.726 231,470.5C 231.667,469.833 232.333,469.167 233,468.5C 234.437,470.221 233.937,471.721 231.5,473C 234.007,473.093 236.174,473.926 238,475.5C 238.656,471.998 239.989,471.998 242,475.5C 244.79,474.302 247.457,473.635 250,473.5C 251.844,474.711 252.678,476.044 252.5,477.5C 253.833,476.5 255.167,475.5 256.5,474.5C 258.741,475.64 260.908,475.64 263,474.5C 262.042,476.787 262.876,478.453 265.5,479.5C 268.468,478.632 271.301,478.299 274,478.5C 274.667,479.167 275.333,479.833 276,480.5C 279.594,480.597 282.927,479.93 286,478.5C 286.667,479.167 287.333,479.833 288,480.5C 290.127,480.038 292.46,480.038 295,480.5C 296.833,480.333 298.667,480.167 300.5,480C 301.5,478 302.5,478 303.5,480C 308.418,480.195 313.251,480.695 318,481.5C 319.868,480.335 321.702,480.668 323.5,482.5C 324.852,481.104 326.519,480.437 328.5,480.5C 331.617,480.734 334.45,480.734 337,480.5C 337.689,481.357 338.522,482.023 339.5,482.5C 340.852,481.104 342.519,480.437 344.5,480.5C 347.617,480.734 350.45,480.734 353,480.5C 353.689,481.357 354.522,482.023 355.5,482.5C 357.527,480.661 359.86,480.161 362.5,481C 362.167,481.333 361.833,481.667 361.5,482C 364.758,482.212 367.924,482.712 371,483.5C 372,482.5 373,481.5 374,480.5C 376,481.833 378,481.833 380,480.5C 383.439,483.018 386.939,483.018 390.5,480.5C 393.184,481.196 395.684,481.196 398,480.5C 398.804,481.804 399.971,482.471 401.5,482.5C 403.577,481.108 405.911,480.442 408.5,480.5C 411.009,480.863 413.176,481.53 415,482.5C 417.583,482.071 420.083,481.404 422.5,480.5C 436.55,480.64 451.55,480.64 467.5,480.5C 468.167,480.667 468.833,480.833 469.5,481C 468.748,481.671 468.414,482.504 468.5,483.5C 463.97,487.266 458.97,490.266 453.5,492.5C 454.8,491.399 455.3,490.066 455,488.5C 452.765,489.239 450.765,489.239 449,488.5C 447.667,489.833 446.333,491.167 445,492.5C 443.667,492.5 442.333,492.5 441,492.5C 439.513,491.747 439.346,490.914 440.5,490C 439.5,489.833 438.5,489.667 437.5,489.5C 434.68,490.973 431.68,491.973 428.5,492.5C 425.292,491.978 422.458,491.645 420,491.5C 419.333,492.167 418.667,492.833 418,493.5C 401.629,493.408 385.629,493.075 370,492.5C 354.427,493.561 338.927,494.061 323.5,494C 323,494.5 322.5,495 322,495.5C 320.108,494.977 317.942,494.31 315.5,493.5C 313.519,493.437 311.852,494.104 310.5,495.5C 307.632,495.676 304.632,495.01 301.5,493.5C 299.519,493.437 297.852,494.104 296.5,495.5C 295.304,495.154 295.304,494.654 296.5,494C 294.833,493.833 293.167,493.667 291.5,493.5C 288.989,493.288 286.822,493.955 285,495.5C 283.352,493.972 281.352,493.305 279,493.5C 276.648,493.305 274.648,493.972 273,495.5C 271.026,494.745 268.692,494.078 266,493.5C 263.308,494.078 260.974,494.745 259,495.5C 257.352,493.972 255.352,493.305 253,493.5C 250.648,493.305 248.648,493.972 247,495.5C 246.085,494.672 245.419,493.672 245,492.5C 240.528,494.65 236.695,493.483 233.5,489C 173.167,488.333 112.833,488.333 52.5,489C 53.056,489.383 53.3893,489.883 53.5,490.5C 48.6355,488.237 44.3021,485.237 40.5,481.5C 103.189,480.339 164.189,479.839 223.5,480C 221.167,477.667 218.833,475.333 216.5,473C 216.833,472.667 217.167,472.333 217.5,472C 213.783,469.152 210.117,466.319 206.5,463.5C 191.716,449.383 177.05,434.716 162.5,419.5C 174.58,408.923 186.247,397.756 197.5,386C 199.058,385.79 200.391,385.29 201.5,384.5C 238.721,383.092 272.721,372.092 303.5,351.5 Z"/></g>
<g><path style="opacity:0.999" fill="#00a6d7" d="M 453.5,492.5 C 443.688,498.27 433.022,501.77 421.5,503C 384.092,506.926 346.759,509.759 309.5,511.5C 291.833,511.5 274.167,511.5 256.5,511.5C 251.388,506.561 246.054,501.728 240.5,497C 183.5,496.333 126.5,496.333 69.5,497C 70.4158,497.278 71.0825,497.778 71.5,498.5C 64.9705,496.899 58.9705,494.233 53.5,490.5C 53.3893,489.883 53.056,489.383 52.5,489C 112.833,488.333 173.167,488.333 233.5,489C 236.695,493.483 240.528,494.65 245,492.5C 245.419,493.672 246.085,494.672 247,495.5C 248.648,493.972 250.648,493.305 253,493.5C 255.352,493.305 257.352,493.972 259,495.5C 260.974,494.745 263.308,494.078 266,493.5C 268.692,494.078 271.026,494.745 273,495.5C 274.648,493.972 276.648,493.305 279,493.5C 281.352,493.305 283.352,493.972 285,495.5C 286.822,493.955 288.989,493.288 291.5,493.5C 293.167,493.667 294.833,493.833 296.5,494C 295.304,494.654 295.304,495.154 296.5,495.5C 297.852,494.104 299.519,493.437 301.5,493.5C 304.632,495.01 307.632,495.676 310.5,495.5C 311.852,494.104 313.519,493.437 315.5,493.5C 317.942,494.31 320.108,494.977 322,495.5C 322.5,495 323,494.5 323.5,494C 338.927,494.061 354.427,493.561 370,492.5C 385.629,493.075 401.629,493.408 418,493.5C 418.667,492.833 419.333,492.167 420,491.5C 422.458,491.645 425.292,491.978 428.5,492.5C 431.68,491.973 434.68,490.973 437.5,489.5C 438.5,489.667 439.5,489.833 440.5,490C 439.346,490.914 439.513,491.747 441,492.5C 442.333,492.5 443.667,492.5 445,492.5C 446.333,491.167 447.667,489.833 449,488.5C 450.765,489.239 452.765,489.239 455,488.5C 455.3,490.066 454.8,491.399 453.5,492.5 Z"/></g>
<g><path style="opacity:1" fill="#00a3d0" d="M 256.5,511.5 C 238.167,511.5 219.833,511.5 201.5,511.5C 161.875,509.746 122.209,506.58 82.5,502C 78.5727,501.276 74.906,500.109 71.5,498.5C 71.0825,497.778 70.4158,497.278 69.5,497C 126.5,496.333 183.5,496.333 240.5,497C 246.054,501.728 251.388,506.561 256.5,511.5 Z"/></g>
</svg>
