<?xml version="1.0" encoding="UTF-8"?>
<!DOCTYPE svg PUBLIC "-//W3C//DTD SVG 1.1//EN" "http://www.w3.org/Graphics/SVG/1.1/DTD/svg11.dtd">
<svg xmlns="http://www.w3.org/2000/svg" version="1.1" width="128px" height="128px" style="shape-rendering:geometricPrecision; text-rendering:geometricPrecision; image-rendering:optimizeQuality; fill-rule:evenodd; clip-rule:evenodd" xmlns:xlink="http://www.w3.org/1999/xlink">
<g><path style="opacity:0.986" fill="#e60661" d="M 70.5,-0.5 C 72.1667,-0.5 73.8333,-0.5 75.5,-0.5C 103.14,6.47339 120.473,23.8067 127.5,51.5C 127.5,52.5 127.5,53.5 127.5,54.5C 126.883,54.6107 126.383,54.944 126,55.5C 107.298,36.9653 88.7983,18.2986 70.5,-0.5 Z"/></g>
<g><path style="opacity:0.99" fill="#d31269" d="M 51.5,-0.5 C 54.1667,-0.5 56.8333,-0.5 59.5,-0.5C 68.5,8.83333 77.5,18.1667 86.5,27.5C 80.4908,27.6662 74.4908,27.4995 68.5,27C 59.9074,18.912 51.9074,10.412 44.5,1.5C 47.0673,1.27852 49.4006,0.611848 51.5,-0.5 Z"/></g>
<g><path style="opacity:0.995" fill="#c92471" d="M 44.5,1.5 C 51.9074,10.412 59.9074,18.912 68.5,27C 74.4908,27.4995 80.4908,27.6662 86.5,27.5C 88.4147,27.2155 90.0813,27.5489 91.5,28.5C 83.8261,28.3336 76.1594,28.5003 68.5,29C 67.1667,30.6667 67.1667,32.3333 68.5,34C 76.0115,34.1712 83.3448,34.6712 90.5,35.5C 83.4921,35.3337 76.4921,35.5004 69.5,36C 78.035,44.7023 86.7017,53.2023 95.5,61.5C 95.5,65.1667 95.5,68.8333 95.5,72.5C 73.8333,51.1667 52.1667,29.8333 30.5,8.5C 34.8222,5.67217 39.4889,3.33883 44.5,1.5 Z"/></g>
<g><path style="opacity:0.997" fill="#be2273" d="M 30.5,8.5 C 52.1667,29.8333 73.8333,51.1667 95.5,72.5C 95.5,75.8333 95.5,79.1667 95.5,82.5C 89.4405,77.4428 84.1072,71.7762 79.5,65.5C 80.3029,64.5768 80.4696,63.5768 80,62.5C 71.3639,52.863 62.3639,43.5297 53,34.5C 52.5008,39.1548 52.3342,43.8215 52.5,48.5C 52.1667,48.5 51.8333,48.5 51.5,48.5C 41.1396,37.4729 30.4729,26.8063 19.5,16.5C 22.6012,13.0669 26.2679,10.4002 30.5,8.5 Z"/></g>
<g><path style="opacity:0.996" fill="#b22677" d="M 19.5,16.5 C 30.4729,26.8063 41.1396,37.4729 51.5,48.5C 47.8183,48.6653 44.1516,48.4986 40.5,48C 31.631,39.2983 22.9644,30.465 14.5,21.5C 15.8333,19.5 17.5,17.8333 19.5,16.5 Z"/></g>
<g><path style="opacity:1" fill="#fdfafc" d="M 91.5,28.5 C 98.202,30.224 101.869,34.5574 102.5,41.5C 102.5,47.8333 102.5,54.1667 102.5,60.5C 102.5,69.8333 102.5,79.1667 102.5,88.5C 100.791,93.8712 97.1244,97.2046 91.5,98.5C 83.8261,98.6664 76.1594,98.4997 68.5,98C 67.2475,96.1722 67.2475,94.3388 68.5,92.5C 76.0881,91.6994 83.7548,91.1994 91.5,91C 94.8212,89.1881 96.1546,86.3547 95.5,82.5C 95.5,79.1667 95.5,75.8333 95.5,72.5C 95.5,68.8333 95.5,65.1667 95.5,61.5C 95.6663,54.1591 95.4997,46.8258 95,39.5C 94.2079,37.3563 92.7079,36.023 90.5,35.5C 83.3448,34.6712 76.0115,34.1712 68.5,34C 67.1667,32.3333 67.1667,30.6667 68.5,29C 76.1594,28.5003 83.8261,28.3336 91.5,28.5 Z"/></g>
<g><path style="opacity:0.997" fill="#dd0f65" d="M 59.5,-0.5 C 63.1667,-0.5 66.8333,-0.5 70.5,-0.5C 88.7983,18.2986 107.298,36.9653 126,55.5C 126.383,54.944 126.883,54.6107 127.5,54.5C 127.5,61.5 127.5,68.5 127.5,75.5C 127.167,75.5 126.833,75.5 126.5,75.5C 118.868,68.3692 111.368,61.0358 104,53.5C 103.824,49.3123 103.324,45.3123 102.5,41.5C 101.869,34.5574 98.202,30.224 91.5,28.5C 90.0813,27.5489 88.4147,27.2155 86.5,27.5C 77.5,18.1667 68.5,8.83333 59.5,-0.5 Z"/></g>
<g><path style="opacity:0.987" fill="#a5307d" d="M 14.5,21.5 C 22.9644,30.465 31.631,39.2983 40.5,48C 44.1516,48.4986 47.8183,48.6653 51.5,48.5C 51.8333,48.5 52.1667,48.5 52.5,48.5C 43.3483,49.4936 34.015,49.8269 24.5,49.5C 23.6829,51.9686 23.1829,54.6353 23,57.5C 16.9101,50.9043 10.4101,44.9043 3.5,39.5C 6.16411,32.8291 9.83078,26.8291 14.5,21.5 Z"/></g>
<g><path style="opacity:1" fill="#d0166b" d="M 90.5,35.5 C 92.7079,36.023 94.2079,37.3563 95,39.5C 95.4997,46.8258 95.6663,54.1591 95.5,61.5C 86.7017,53.2023 78.035,44.7023 69.5,36C 76.4921,35.5004 83.4921,35.3337 90.5,35.5 Z"/></g>
<g><path style="opacity:1" fill="#fefdfd" d="M 79.5,65.5 C 72.8333,71.5 66.5,77.8333 60.5,84.5C 58.5,85.8333 56.8333,87.5 55.5,89.5C 54.5416,89.9528 53.7083,90.6195 53,91.5C 52.501,87.1794 52.3343,82.8461 52.5,78.5C 43.3483,77.5064 34.015,77.1731 24.5,77.5C 24.5,68.1667 24.5,58.8333 24.5,49.5C 34.015,49.8269 43.3483,49.4936 52.5,48.5C 52.3342,43.8215 52.5008,39.1548 53,34.5C 62.3639,43.5297 71.3639,52.863 80,62.5C 80.4696,63.5768 80.3029,64.5768 79.5,65.5 Z"/></g>
<g><path style="opacity:0.996" fill="#953883" d="M 3.5,39.5 C 10.4101,44.9043 16.9101,50.9043 23,57.5C 23.1829,54.6353 23.6829,51.9686 24.5,49.5C 24.5,58.8333 24.5,68.1667 24.5,77.5C 16.1667,70.1667 7.83333,62.8333 -0.5,55.5C -0.5,54.1667 -0.5,52.8333 -0.5,51.5C 0.818976,47.5841 2.15231,43.5841 3.5,39.5 Z"/></g>
<g><path style="opacity:0.987" fill="#ce166b" d="M 102.5,41.5 C 103.324,45.3123 103.824,49.3123 104,53.5C 111.368,61.0358 118.868,68.3692 126.5,75.5C 126.095,80.4564 124.762,85.1231 122.5,89.5C 116.564,83.0619 110.397,76.7286 104,70.5C 103.821,66.9748 103.321,63.6414 102.5,60.5C 102.5,54.1667 102.5,47.8333 102.5,41.5 Z"/></g>
<g><path style="opacity:0.995" fill="#893f88" d="M -0.5,55.5 C 7.83333,62.8333 16.1667,70.1667 24.5,77.5C 34.015,77.1731 43.3483,77.5064 52.5,78.5C 46.1667,78.5 39.8333,78.5 33.5,78.5C 30.4816,78.3354 27.4816,78.502 24.5,79C 40.7018,95.0348 56.7018,111.201 72.5,127.5C 67.1667,127.5 61.8333,127.5 56.5,127.5C 38.2017,108.701 19.7017,90.0347 1,71.5C 0.50999,72.7932 0.343323,74.1266 0.5,75.5C 0.166667,75.5 -0.166667,75.5 -0.5,75.5C -0.5,68.8333 -0.5,62.1667 -0.5,55.5 Z"/></g>
<g><path style="opacity:1" fill="#b22a78" d="M 79.5,65.5 C 84.1072,71.7762 89.4405,77.4428 95.5,82.5C 96.1546,86.3547 94.8212,89.1881 91.5,91C 83.7548,91.1994 76.0881,91.6994 68.5,92.5C 64.8333,90.8333 62.1667,88.1667 60.5,84.5C 66.5,77.8333 72.8333,71.5 79.5,65.5 Z"/></g>
<g><path style="opacity:0.985" fill="#80448b" d="M 56.5,127.5 C 55.1667,127.5 53.8333,127.5 52.5,127.5C 24.1984,121.198 6.86504,103.865 0.5,75.5C 0.343323,74.1266 0.50999,72.7932 1,71.5C 19.7017,90.0347 38.2017,108.701 56.5,127.5 Z"/></g>
<g><path style="opacity:0.992" fill="#923984" d="M 33.5,78.5 C 48.8333,94.1667 64.1667,109.833 79.5,125.5C 77.8333,126.167 76.1667,126.833 74.5,127.5C 73.8333,127.5 73.1667,127.5 72.5,127.5C 56.7018,111.201 40.7018,95.0348 24.5,79C 27.4816,78.502 30.4816,78.3354 33.5,78.5 Z"/></g>
<g><path style="opacity:0.992" fill="#993581" d="M 33.5,78.5 C 39.8333,78.5 46.1667,78.5 52.5,78.5C 52.3343,82.8461 52.501,87.1794 53,91.5C 53.7083,90.6195 54.5416,89.9528 55.5,89.5C 66.1667,100.833 77.1667,111.833 88.5,122.5C 85.9164,124.472 82.9164,125.472 79.5,125.5C 64.1667,109.833 48.8333,94.1667 33.5,78.5 Z"/></g>
<g><path style="opacity:0.977" fill="#c21f71" d="M 102.5,60.5 C 103.321,63.6414 103.821,66.9748 104,70.5C 110.397,76.7286 116.564,83.0619 122.5,89.5C 120.584,94.3386 117.918,98.6719 114.5,102.5C 110.103,98.1082 106.103,93.4416 102.5,88.5C 102.5,79.1667 102.5,69.8333 102.5,60.5 Z"/></g>
<g><path style="opacity:0.995" fill="#a53580" d="M 60.5,84.5 C 62.1667,88.1667 64.8333,90.8333 68.5,92.5C 67.2475,94.3388 67.2475,96.1722 68.5,98C 76.1594,98.4997 83.8261,98.6664 91.5,98.5C 89.369,99.3138 87.0356,99.8138 84.5,100C 89.7578,105.764 95.4245,110.931 101.5,115.5C 97.6528,118.593 93.3195,120.926 88.5,122.5C 77.1667,111.833 66.1667,100.833 55.5,89.5C 56.8333,87.5 58.5,85.8333 60.5,84.5 Z"/></g>
<g><path style="opacity:0.987" fill="#b02878" d="M 102.5,88.5 C 106.103,93.4416 110.103,98.1082 114.5,102.5C 111.167,107.833 106.833,112.167 101.5,115.5C 95.4245,110.931 89.7578,105.764 84.5,100C 87.0356,99.8138 89.369,99.3138 91.5,98.5C 97.1244,97.2046 100.791,93.8712 102.5,88.5 Z"/></g>
</svg>
