<?xml version="1.0" encoding="UTF-8"?>
<!DOCTYPE svg PUBLIC "-//W3C//DTD SVG 1.1//EN" "http://www.w3.org/Graphics/SVG/1.1/DTD/svg11.dtd">
<svg xmlns="http://www.w3.org/2000/svg" version="1.1" width="512px" height="512px" style="shape-rendering:geometricPrecision; text-rendering:geometricPrecision; image-rendering:optimizeQuality; fill-rule:evenodd; clip-rule:evenodd" xmlns:xlink="http://www.w3.org/1999/xlink">
<g><path style="opacity:0.979" fill="#c432e1" d="M 262.5,32.5 C 262.918,33.2216 263.584,33.7216 264.5,34C 253.298,45.0349 242.298,56.2016 231.5,67.5C 221.165,69.7146 210.832,72.3813 200.5,75.5C 213.631,61.8682 226.965,48.3682 240.5,35C 239.584,34.7216 238.918,34.2216 238.5,33.5C 246.483,32.8345 254.483,32.5012 262.5,32.5 Z"/></g>
<g><path style="opacity:0.978" fill="#be32e2" d="M 262.5,32.5 C 271.044,32.3709 279.377,33.0375 287.5,34.5C 277.368,44.1312 267.368,53.9645 257.5,64C 258.056,64.3826 258.389,64.8826 258.5,65.5C 249.473,65.8361 240.473,66.5027 231.5,67.5C 242.298,56.2016 253.298,45.0349 264.5,34C 263.584,33.7216 262.918,33.2216 262.5,32.5 Z"/></g>
<g><path style="opacity:0.988" fill="#b832e2" d="M 287.5,34.5 C 294.111,34.5473 300.444,35.5473 306.5,37.5C 297.111,46.8859 288.111,56.5526 279.5,66.5C 272.535,65.6591 265.535,65.3257 258.5,65.5C 258.389,64.8826 258.056,64.3826 257.5,64C 267.368,53.9645 277.368,44.1312 287.5,34.5 Z"/></g>
<g><path style="opacity:0.984" fill="#b231e3" d="M 306.5,37.5 C 313.47,38.3873 320.137,40.0539 326.5,42.5C 326.611,43.1174 326.944,43.6174 327.5,44C 318.964,52.3683 310.631,60.8683 302.5,69.5C 294.874,68.2201 287.207,67.2201 279.5,66.5C 288.111,56.5526 297.111,46.8859 306.5,37.5 Z"/></g>
<g><path style="opacity:0.995" fill="#d133df" d="M 204.5,40.5 C 154.704,91.7994 104.038,142.966 52.5,194C 51.9056,194.464 51.2389,194.631 50.5,194.5C 53.7093,183.205 57.7093,172.205 62.5,161.5C 100.476,125.188 137.476,88.5211 173.5,51.5C 183.251,46.47 193.584,42.8033 204.5,40.5 Z"/></g>
<g><path style="opacity:0.985" fill="#ab30e4" d="M 326.5,42.5 C 333.216,44.0351 339.55,46.3684 345.5,49.5C 336.833,57.5 328.5,65.8333 320.5,74.5C 314.313,73.1227 308.313,71.4561 302.5,69.5C 310.631,60.8683 318.964,52.3683 327.5,44C 326.944,43.6174 326.611,43.1174 326.5,42.5 Z"/></g>
<g><path style="opacity:0.986" fill="#a530e4" d="M 345.5,49.5 C 350.93,51.0502 355.93,53.3836 360.5,56.5C 352.86,64.8063 344.86,72.8063 336.5,80.5C 330.891,79.0199 325.557,77.0199 320.5,74.5C 328.5,65.8333 336.833,57.5 345.5,49.5 Z"/></g>
<g><path style="opacity:0.978" fill="#d733e0" d="M 173.5,51.5 C 137.476,88.5211 100.476,125.188 62.5,161.5C 85.5802,110.753 122.58,74.0863 173.5,51.5 Z"/></g>
<g><path style="opacity:0.989" fill="#9f31e5" d="M 360.5,56.5 C 366.35,58.7072 371.684,61.7072 376.5,65.5C 375.448,65.3505 374.448,65.5172 373.5,66C 365.964,73.3684 358.631,80.8684 351.5,88.5C 346.307,86.0717 341.307,83.405 336.5,80.5C 344.86,72.8063 352.86,64.8063 360.5,56.5 Z"/></g>
<g><path style="opacity:0.981" fill="#9930e5" d="M 376.5,65.5 C 382.024,68.0921 387.024,71.4254 391.5,75.5C 383.111,82.8877 375.444,90.8877 368.5,99.5C 363.004,95.5842 357.337,91.9175 351.5,88.5C 358.631,80.8684 365.964,73.3684 373.5,66C 374.448,65.5172 375.448,65.3505 376.5,65.5 Z"/></g>
<g><path style="opacity:0.982" fill="#9330e6" d="M 391.5,75.5 C 395.909,78.3673 399.909,81.7006 403.5,85.5C 395.776,93.2203 388.443,101.22 381.5,109.5C 377.347,105.925 373.014,102.591 368.5,99.5C 375.444,90.8877 383.111,82.8877 391.5,75.5 Z"/></g>
<g><path style="opacity:0.984" fill="#8d2fe7" d="M 403.5,85.5 C 408.105,88.4357 412.105,92.1024 415.5,96.5C 407.776,104.22 400.443,112.22 393.5,120.5C 389.5,116.833 385.5,113.167 381.5,109.5C 388.443,101.22 395.776,93.2203 403.5,85.5 Z"/></g>
<g><path style="opacity:0.982" fill="#862fe7" d="M 415.5,96.5 C 420.208,100.207 424.208,104.54 427.5,109.5C 426.761,109.369 426.094,109.536 425.5,110C 417.906,117.089 410.906,124.589 404.5,132.5C 400.862,128.526 397.195,124.526 393.5,120.5C 400.443,112.22 407.776,104.22 415.5,96.5 Z"/></g>
<g><path style="opacity:0.985" fill="#802fe8" d="M 427.5,109.5 C 431.922,113.587 435.589,118.254 438.5,123.5C 431.167,131.5 423.5,139.167 415.5,146.5C 411.844,141.872 408.178,137.206 404.5,132.5C 410.906,124.589 417.906,117.089 425.5,110C 426.094,109.536 426.761,109.369 427.5,109.5 Z"/></g>
<g><path style="opacity:0.983" fill="#792ee8" d="M 438.5,123.5 C 442.312,127.777 445.645,132.443 448.5,137.5C 440.447,145.557 432.113,153.223 423.5,160.5C 420.821,155.806 418.155,151.139 415.5,146.5C 423.5,139.167 431.167,131.5 438.5,123.5 Z"/></g>
<g><path style="opacity:0.981" fill="#cb32e1" d="M 238.5,33.5 C 238.918,34.2216 239.584,34.7216 240.5,35C 226.965,48.3682 213.631,61.8682 200.5,75.5C 144.371,96.9627 106.038,135.963 85.5,192.5C 85.631,191.761 85.4643,191.094 85,190.5C 71.6318,204.035 58.1318,217.369 44.5,230.5C 45.636,218.351 47.636,206.351 50.5,194.5C 51.2389,194.631 51.9056,194.464 52.5,194C 104.038,142.966 154.704,91.7994 204.5,40.5C 215.497,37.1071 226.831,34.7738 238.5,33.5 Z"/></g>
<g><path style="opacity:0.981" fill="#732de9" d="M 448.5,137.5 C 451.421,142.341 454.088,147.341 456.5,152.5C 448.193,160.472 439.86,168.472 431.5,176.5C 428.833,171.167 426.167,165.833 423.5,160.5C 432.113,153.223 440.447,145.557 448.5,137.5 Z"/></g>
<g><path style="opacity:0.981" fill="#6d2dea" d="M 456.5,152.5 C 459.351,157.541 461.684,162.875 463.5,168.5C 455.202,176.298 447.035,184.298 439,192.5C 438.617,191.944 438.117,191.611 437.5,191.5C 435.5,186.5 433.5,181.5 431.5,176.5C 439.86,168.472 448.193,160.472 456.5,152.5 Z"/></g>
<g><path style="opacity:0.975" fill="#b832e2" d="M 185.5,158.5 C 175.167,169.167 164.833,179.833 154.5,190.5C 146.811,188.325 142.811,183.159 142.5,175C 143.298,166.712 147.631,161.379 155.5,159C 165.494,158.5 175.494,158.334 185.5,158.5 Z"/></g>
<g><path style="opacity:0.969" fill="#b131e3" d="M 185.5,158.5 C 195.5,158.5 205.5,158.5 215.5,158.5C 214.391,159.29 213.058,159.79 211.5,160C 200.965,170.368 190.631,180.868 180.5,191.5C 171.651,191.826 162.984,191.493 154.5,190.5C 164.833,179.833 175.167,169.167 185.5,158.5 Z"/></g>
<g><path style="opacity:0.978" fill="#9830e5" d="M 280.5,158.5 C 294.115,156.47 302.115,162.136 304.5,175.5C 303.49,183.037 299.49,188.204 292.5,191C 279.171,191.5 265.837,191.667 252.5,191.5C 251.737,190.732 250.737,190.232 249.5,190C 260.035,179.632 270.369,169.132 280.5,158.5 Z"/></g>
<g><path style="opacity:0.99" fill="#ab31e4" d="M 215.5,158.5 C 222.167,158.5 228.833,158.5 235.5,158.5C 225.369,169.132 215.035,179.632 204.5,190C 202.618,190.198 200.952,190.698 199.5,191.5C 193.167,191.5 186.833,191.5 180.5,191.5C 190.631,180.868 200.965,170.368 211.5,160C 213.058,159.79 214.391,159.29 215.5,158.5 Z"/></g>
<g><path style="opacity:0.985" fill="#a530e4" d="M 235.5,158.5 C 244.167,158.5 252.833,158.5 261.5,158.5C 260.391,159.29 259.058,159.79 257.5,160C 246.965,170.368 236.631,180.868 226.5,191.5C 217.5,191.5 208.5,191.5 199.5,191.5C 200.952,190.698 202.618,190.198 204.5,190C 215.035,179.632 225.369,169.132 235.5,158.5 Z"/></g>
<g><path style="opacity:0.985" fill="#9f30e4" d="M 261.5,158.5 C 267.833,158.5 274.167,158.5 280.5,158.5C 270.369,169.132 260.035,179.632 249.5,190C 250.737,190.232 251.737,190.732 252.5,191.5C 243.833,191.5 235.167,191.5 226.5,191.5C 236.631,180.868 246.965,170.368 257.5,160C 259.058,159.79 260.391,159.29 261.5,158.5 Z"/></g>
<g><path style="opacity:0.98" fill="#662dea" d="M 463.5,168.5 C 466.608,174.82 468.941,181.486 470.5,188.5C 461.868,196.631 453.368,204.964 445,213.5C 444.51,214.793 444.343,216.127 444.5,217.5C 442.434,208.872 440.101,200.205 437.5,191.5C 438.117,191.611 438.617,191.944 439,192.5C 447.035,184.298 455.202,176.298 463.5,168.5 Z"/></g>
<g><path style="opacity:0.98" fill="#c433e1" d="M 85.5,192.5 C 82.896,201.88 80.5627,211.214 78.5,220.5C 67.3682,231.131 56.3682,241.965 45.5,253C 44.9056,253.464 44.2389,253.631 43.5,253.5C 43.4035,245.809 43.7368,238.142 44.5,230.5C 58.1318,217.369 71.6318,204.035 85,190.5C 85.4643,191.094 85.631,191.761 85.5,192.5 Z"/></g>
<g><path style="opacity:0.984" fill="#5c2ceb" d="M 470.5,188.5 C 474.679,200.387 477.346,212.72 478.5,225.5C 468.563,235.938 458.396,246.272 448,256.5C 447.722,255.584 447.222,254.918 446.5,254.5C 446.836,242.203 446.169,229.87 444.5,217.5C 444.343,216.127 444.51,214.793 445,213.5C 453.368,204.964 461.868,196.631 470.5,188.5 Z"/></g>
<g><path style="opacity:0.981" fill="#be32e2" d="M 78.5,220.5 C 77.7673,228.828 77.1006,237.161 76.5,245.5C 66.1667,255.5 55.8333,265.5 45.5,275.5C 44.0722,268.38 43.4055,261.047 43.5,253.5C 44.2389,253.631 44.9056,253.464 45.5,253C 56.3682,241.965 67.3682,231.131 78.5,220.5 Z"/></g>
<g><path style="opacity:0.982" fill="#542cec" d="M 478.5,225.5 C 479.358,233.132 479.691,240.799 479.5,248.5C 467.833,259.833 456.167,271.167 444.5,282.5C 445.996,273.234 446.663,263.901 446.5,254.5C 447.222,254.918 447.722,255.584 448,256.5C 458.396,246.272 468.563,235.938 478.5,225.5 Z"/></g>
<g><path style="opacity:0.98" fill="#a530e4" d="M 180.5,239.5 C 179.391,240.29 178.058,240.79 176.5,241C 167.298,250.035 158.298,259.202 149.5,268.5C 140.301,259.865 140.301,251.032 149.5,242C 150.833,241.333 152.167,240.667 153.5,240C 162.494,239.5 171.494,239.334 180.5,239.5 Z"/></g>
<g><path style="opacity:0.991" fill="#9f31e5" d="M 180.5,239.5 C 186.833,239.5 193.167,239.5 199.5,239.5C 189.369,250.132 179.035,260.632 168.5,271C 166.942,271.21 165.609,271.71 164.5,272.5C 158.811,273.164 153.811,271.83 149.5,268.5C 158.298,259.202 167.298,250.035 176.5,241C 178.058,240.79 179.391,240.29 180.5,239.5 Z"/></g>
<g><path style="opacity:0.994" fill="#9930e5" d="M 199.5,239.5 C 208.5,239.5 217.5,239.5 226.5,239.5C 216.369,250.132 206.035,260.632 195.5,271C 198.036,271.186 200.369,271.686 202.5,272.5C 189.833,272.5 177.167,272.5 164.5,272.5C 165.609,271.71 166.942,271.21 168.5,271C 179.035,260.632 189.369,250.132 199.5,239.5 Z"/></g>
<g><path style="opacity:0.994" fill="#9230e6" d="M 226.5,239.5 C 234.167,239.5 241.833,239.5 249.5,239.5C 239.369,250.132 229.035,260.632 218.5,271C 219.737,271.232 220.737,271.732 221.5,272.5C 215.167,272.5 208.833,272.5 202.5,272.5C 200.369,271.686 198.036,271.186 195.5,271C 206.035,260.632 216.369,250.132 226.5,239.5 Z"/></g>
<g><path style="opacity:0.991" fill="#8c2fe6" d="M 249.5,239.5 C 258.5,239.5 267.5,239.5 276.5,239.5C 275.048,240.302 273.382,240.802 271.5,241C 260.965,251.368 250.631,261.868 240.5,272.5C 234.167,272.5 227.833,272.5 221.5,272.5C 220.737,271.732 219.737,271.232 218.5,271C 229.035,260.632 239.369,250.132 249.5,239.5 Z"/></g>
<g><path style="opacity:0.971" fill="#872ee6" d="M 276.5,239.5 C 281.5,239.5 286.5,239.5 291.5,239.5C 280.833,250.5 270.167,261.5 259.5,272.5C 253.167,272.5 246.833,272.5 240.5,272.5C 250.631,261.868 260.965,251.368 271.5,241C 273.382,240.802 275.048,240.302 276.5,239.5 Z"/></g>
<g><path style="opacity:0.994" fill="#802ee7" d="M 291.5,239.5 C 301.833,239.5 312.167,239.5 322.5,239.5C 312.369,250.132 302.035,260.632 291.5,271C 294.036,271.186 296.369,271.686 298.5,272.5C 285.5,272.5 272.5,272.5 259.5,272.5C 270.167,261.5 280.833,250.5 291.5,239.5 Z"/></g>
<g><path style="opacity:0.975" fill="#792ee8" d="M 322.5,239.5 C 330.167,239.5 337.833,239.5 345.5,239.5C 335.369,250.132 325.035,260.632 314.5,271C 315.737,271.232 316.737,271.732 317.5,272.5C 311.167,272.5 304.833,272.5 298.5,272.5C 296.369,271.686 294.036,271.186 291.5,271C 302.035,260.632 312.369,250.132 322.5,239.5 Z"/></g>
<g><path style="opacity:0.974" fill="#732de9" d="M 345.5,239.5 C 353.167,239.5 360.833,239.5 368.5,239.5C 357.833,250.5 347.167,261.5 336.5,272.5C 330.167,272.5 323.833,272.5 317.5,272.5C 316.737,271.732 315.737,271.232 314.5,271C 325.035,260.632 335.369,250.132 345.5,239.5 Z"/></g>
<g><path style="opacity:0.969" fill="#6c2ee9" d="M 368.5,239.5 C 378.097,240.43 383.43,245.763 384.5,255.5C 383.608,264.223 378.942,269.723 370.5,272C 359.172,272.5 347.838,272.667 336.5,272.5C 347.167,261.5 357.833,250.5 368.5,239.5 Z"/></g>
<g><path style="opacity:0.983" fill="#b831e2" d="M 76.5,245.5 C 76.3536,253.196 76.6869,260.862 77.5,268.5C 67.5526,277.111 57.8859,286.111 48.5,295.5C 46.8516,288.942 45.8516,282.275 45.5,275.5C 55.8333,265.5 66.1667,255.5 76.5,245.5 Z"/></g>
<g><path style="opacity:0.989" fill="#4d2bec" d="M 479.5,248.5 C 479.923,249.265 480.257,250.098 480.5,251C 479.784,259.164 479.117,267.331 478.5,275.5C 464.201,289.298 450.035,303.298 436,317.5C 435.601,317.272 435.435,316.938 435.5,316.5C 439.129,305.315 442.129,293.981 444.5,282.5C 456.167,271.167 467.833,259.833 479.5,248.5 Z"/></g>
<g><path style="opacity:0.986" fill="#b131e3" d="M 77.5,268.5 C 78.1902,276.641 79.5235,284.641 81.5,292.5C 80.448,292.351 79.448,292.517 78.5,293C 70.9116,301.093 62.9116,308.593 54.5,315.5C 51.8984,309.112 49.8984,302.445 48.5,295.5C 57.8859,286.111 67.5526,277.111 77.5,268.5 Z"/></g>
<g><path style="opacity:0.983" fill="#ab31e4" d="M 81.5,292.5 C 82.5648,298.359 84.2315,304.026 86.5,309.5C 77.9216,316.574 69.7549,324.24 62,332.5C 61.5357,333.094 61.369,333.761 61.5,334.5C 58.2021,328.615 55.8688,322.282 54.5,315.5C 62.9116,308.593 70.9116,301.093 78.5,293C 79.448,292.517 80.448,292.351 81.5,292.5 Z"/></g>
<g><path style="opacity:0.997" fill="#452bed" d="M 478.5,275.5 C 477.028,290.709 473.695,305.376 468.5,319.5C 422.367,364.129 376.367,409.629 330.5,456C 331.056,456.383 331.389,456.883 331.5,457.5C 316.294,462.875 300.628,466.208 284.5,467.5C 299.551,453.953 314.218,439.786 328.5,425C 328.272,424.601 327.938,424.435 327.5,424.5C 378.5,403.5 414.5,367.5 435.5,316.5C 435.435,316.938 435.601,317.272 436,317.5C 450.035,303.298 464.201,289.298 478.5,275.5 Z"/></g>
<g><path style="opacity:0.984" fill="#a531e4" d="M 86.5,309.5 C 87.969,314.574 89.6357,319.574 91.5,324.5C 84.7601,332.745 77.4268,340.578 69.5,348C 68.9056,348.464 68.2389,348.631 67.5,348.5C 64.9517,344.07 62.9517,339.403 61.5,334.5C 61.369,333.761 61.5357,333.094 62,332.5C 69.7549,324.24 77.9216,316.574 86.5,309.5 Z"/></g>
<g><path style="opacity:0.917" fill="#872ee6" d="M 174.5,318.5 C 193.833,318.5 213.167,318.5 232.5,318.5C 225.679,319.329 218.679,319.829 211.5,320C 200.965,330.368 190.631,340.868 180.5,351.5C 174.167,351.5 167.833,351.5 161.5,351.5C 171.631,340.868 181.965,330.368 192.5,320C 186.319,319.828 180.319,319.328 174.5,318.5 Z"/></g>
<g><path style="opacity:0.993" fill="#8d2fe6" d="M 174.5,318.5 C 180.319,319.328 186.319,319.828 192.5,320C 181.965,330.368 171.631,340.868 161.5,351.5C 150.103,351.941 143.769,346.441 142.5,335C 143.091,327.743 146.758,322.743 153.5,320C 160.437,318.712 167.437,318.212 174.5,318.5 Z"/></g>
<g><path style="opacity:0.998" fill="#802ee7" d="M 232.5,318.5 C 239.167,318.5 245.833,318.5 252.5,318.5C 252.5,318.833 252.5,319.167 252.5,319.5C 249.15,319.335 245.817,319.502 242.5,320C 231.965,330.368 221.631,340.868 211.5,351.5C 201.167,351.5 190.833,351.5 180.5,351.5C 190.631,340.868 200.965,330.368 211.5,320C 218.679,319.829 225.679,319.329 232.5,318.5 Z"/></g>
<g><path style="opacity:0.998" fill="#792ee8" d="M 252.5,319.5 C 256.846,319.334 261.179,319.501 265.5,320C 254.965,330.368 244.631,340.868 234.5,351.5C 226.833,351.5 219.167,351.5 211.5,351.5C 221.631,340.868 231.965,330.368 242.5,320C 245.817,319.502 249.15,319.335 252.5,319.5 Z"/></g>
<g><path style="opacity:0.998" fill="#732de9" d="M 252.5,319.5 C 252.5,319.167 252.5,318.833 252.5,318.5C 264.678,318.172 276.678,318.505 288.5,319.5C 278.702,329.798 268.702,339.965 258.5,350C 259.737,350.232 260.737,350.732 261.5,351.5C 252.5,351.5 243.5,351.5 234.5,351.5C 244.631,340.868 254.965,330.368 265.5,320C 261.179,319.501 256.846,319.334 252.5,319.5 Z"/></g>
<g><path style="opacity:0.991" fill="#6c2de9" d="M 288.5,319.5 C 298.092,320.425 303.425,325.758 304.5,335.5C 303.892,342.897 300.225,348.063 293.5,351C 282.839,351.5 272.172,351.667 261.5,351.5C 260.737,350.732 259.737,350.232 258.5,350C 268.702,339.965 278.702,329.798 288.5,319.5 Z"/></g>
<g><path style="opacity:0.988" fill="#9f30e4" d="M 91.5,324.5 C 93.8195,329.093 96.1528,333.759 98.5,338.5C 98.6495,339.552 98.4828,340.552 98,341.5C 84.5809,355.422 70.7476,368.755 56.5,381.5C 60.3627,370.579 64.0294,359.579 67.5,348.5C 68.2389,348.631 68.9056,348.464 69.5,348C 77.4268,340.578 84.7601,332.745 91.5,324.5 Z"/></g>
<g><path style="opacity:0.983" fill="#982fe5" d="M 98.5,338.5 C 101.296,343.04 102.129,348.04 101,353.5C 98.7265,360.153 96.5598,366.82 94.5,373.5C 93.7611,373.369 93.0944,373.536 92.5,374C 76.2986,390.368 59.9652,406.535 43.5,422.5C 47.6313,408.773 51.9646,395.106 56.5,381.5C 70.7476,368.755 84.5809,355.422 98,341.5C 98.4828,340.552 98.6495,339.552 98.5,338.5 Z"/></g>
<g><path style="opacity:0.975" fill="#3d2aee" d="M 468.5,319.5 C 444.935,387.399 399.268,433.399 331.5,457.5C 331.389,456.883 331.056,456.383 330.5,456C 376.367,409.629 422.367,364.129 468.5,319.5 Z"/></g>
<g><path style="opacity:0.975" fill="#922fe5" d="M 94.5,373.5 C 90.6753,384.979 86.6753,396.312 82.5,407.5C 65.5,424.167 48.5,440.833 31.5,457.5C 35.1293,445.61 39.1293,433.943 43.5,422.5C 59.9652,406.535 76.2986,390.368 92.5,374C 93.0944,373.536 93.7611,373.369 94.5,373.5 Z"/></g>
<g><path style="opacity:0.99" fill="#8c2fe6" d="M 82.5,407.5 C 79.8333,416.5 77.1667,425.5 74.5,434.5C 73.1667,434.833 73.1667,435.167 74.5,435.5C 74.6107,436.117 74.944,436.617 75.5,437C 62.9652,449.702 50.2985,462.202 37.5,474.5C 32.0743,470.187 30.0743,464.521 31.5,457.5C 48.5,440.833 65.5,424.167 82.5,407.5 Z"/></g>
<g><path style="opacity:0.983" fill="#792ee8" d="M 171.5,412.5 C 171.631,413.239 171.464,413.906 171,414.5C 159.631,425.702 148.465,437.035 137.5,448.5C 127.784,452.405 117.784,455.739 107.5,458.5C 106.448,458.649 105.448,458.483 104.5,458C 120.167,442.333 135.833,426.667 151.5,411C 150.906,410.536 150.239,410.369 149.5,410.5C 157.12,406.545 164.453,407.212 171.5,412.5 Z"/></g>
<g><path style="opacity:0.99" fill="#802ee8" d="M 149.5,410.5 C 150.239,410.369 150.906,410.536 151.5,411C 135.833,426.667 120.167,442.333 104.5,458C 105.448,458.483 106.448,458.649 107.5,458.5C 93.7838,463.739 79.7838,468.405 65.5,472.5C 64.7611,472.631 64.0944,472.464 63.5,472C 80.0444,455.967 95.7111,439.8 110.5,423.5C 123.216,418.595 136.216,414.261 149.5,410.5 Z"/></g>
<g><path style="opacity:0.976" fill="#732ee8" d="M 171.5,412.5 C 177.041,415.437 182.708,418.104 188.5,420.5C 180.193,428.472 171.86,436.472 163.5,444.5C 161.843,443.425 160.009,442.758 158,442.5C 151.18,444.607 144.347,446.607 137.5,448.5C 148.465,437.035 159.631,425.702 171,414.5C 171.464,413.906 171.631,413.239 171.5,412.5 Z"/></g>
<g><path style="opacity:0.979" fill="#6d2de9" d="M 188.5,420.5 C 193.336,422.89 198.336,424.89 203.5,426.5C 196.222,435.446 188.222,443.779 179.5,451.5C 173.875,449.684 168.541,447.351 163.5,444.5C 171.86,436.472 180.193,428.472 188.5,420.5 Z"/></g>
<g><path style="opacity:0.992" fill="#4d2bec" d="M 327.5,424.5 C 327.938,424.435 328.272,424.601 328.5,425C 314.218,439.786 299.551,453.953 284.5,467.5C 276.221,468.44 267.888,468.773 259.5,468.5C 270.131,457.368 280.965,446.368 292,435.5C 292.464,434.906 292.631,434.239 292.5,433.5C 304.369,431.283 316.036,428.283 327.5,424.5 Z"/></g>
<g><path style="opacity:0.984" fill="#862ee7" d="M 110.5,423.5 C 95.7111,439.8 80.0444,455.967 63.5,472C 64.0944,472.464 64.7611,472.631 65.5,472.5C 59.8026,475.066 53.8026,477.066 47.5,478.5C 43.7037,478.064 40.3704,476.731 37.5,474.5C 50.2985,462.202 62.9652,449.702 75.5,437C 74.944,436.617 74.6107,436.117 74.5,435.5C 74.5,435.167 74.5,434.833 74.5,434.5C 86.5,430.833 98.5,427.167 110.5,423.5 Z"/></g>
<g><path style="opacity:0.978" fill="#662dea" d="M 203.5,426.5 C 210.746,428.811 218.079,430.811 225.5,432.5C 216.833,441.5 208.167,450.5 199.5,459.5C 192.523,457.401 185.857,454.735 179.5,451.5C 188.222,443.779 196.222,435.446 203.5,426.5 Z"/></g>
<g><path style="opacity:0.978" fill="#542cec" d="M 292.5,433.5 C 292.631,434.239 292.464,434.906 292,435.5C 280.965,446.368 270.131,457.368 259.5,468.5C 251.475,468.61 243.475,468.276 235.5,467.5C 247.136,457.864 257.803,447.197 267.5,435.5C 275.898,435.546 284.231,434.88 292.5,433.5 Z"/></g>
<g><path style="opacity:0.982" fill="#5c2deb" d="M 225.5,432.5 C 239.467,435.127 253.467,436.127 267.5,435.5C 257.803,447.197 247.136,457.864 235.5,467.5C 223.302,465.727 211.302,463.06 199.5,459.5C 208.167,450.5 216.833,441.5 225.5,432.5 Z"/></g>
</svg>
