<svg version="1.1" id="Layer_1" xmlns="http://www.w3.org/2000/svg" xmlns:xlink="http://www.w3.org/1999/xlink" x="0px" y="0px"
	 width="100%" viewBox="0 0 512 512" enable-background="new 0 0 512 512" xml:space="preserve">
<path fill="#000000" opacity="1.000000" stroke="none" 
	d="
M1.000000,189.000000 
	C1.000000,126.000000 1.000000,63.500000 1.000000,1.000000 
	C171.666672,1.000000 342.333344,1.000000 513.000000,1.000000 
	C513.000000,171.666672 513.000000,342.333344 513.000000,513.000000 
	C342.333344,513.000000 171.666672,513.000000 1.000000,513.000000 
	C1.000000,405.166656 1.000000,297.333344 1.000000,189.000000 
M54.293964,473.736267 
	C62.135162,477.477905 69.714172,482.132050 79.930138,480.978912 
	C100.618637,480.930298 121.307137,480.881683 142.923920,480.975311 
	C154.614990,480.928070 166.306061,480.880829 178.925430,480.974915 
	C183.920929,480.983490 188.928284,480.771484 193.909821,481.039551 
	C213.440811,482.090424 232.553421,467.375793 239.000717,448.488770 
	C242.417465,438.479675 240.630356,428.184692 240.969803,417.068909 
	C240.924316,402.379364 240.878830,387.689789 240.969711,372.071411 
	C240.924942,354.714783 240.880188,337.358154 240.970932,319.107758 
	C241.209549,304.543213 234.619507,293.259796 223.758026,283.261078 
	C214.464676,276.962982 204.825272,271.719910 192.063583,273.031342 
	C173.374268,273.076569 154.684967,273.121796 135.067978,273.028595 
	C122.044434,273.074524 109.020882,273.120422 95.069550,273.026581 
	C87.420158,273.028351 79.524918,271.802002 72.169899,273.274292 
	C53.968468,276.917847 41.347385,287.879639 34.998024,305.599274 
	C31.432043,315.551117 33.438622,325.843872 33.019779,336.924530 
	C33.068871,349.948151 33.117958,362.971741 33.020267,376.923126 
	C33.068527,390.947845 33.116787,404.972565 33.019161,419.924713 
	C33.012104,426.224731 32.520088,432.574585 33.160786,438.808044 
	C33.622669,443.301788 35.592751,447.640503 36.995312,452.778137 
	C40.365295,461.462311 46.273567,468.029083 54.293964,473.736267 
M459.706512,40.262806 
	C451.300812,36.016258 442.934296,31.622080 432.063202,33.031342 
	C411.708130,33.076122 391.353027,33.120907 370.069977,33.027279 
	C359.045654,33.073643 348.021332,33.120010 336.069275,33.026627 
	C328.087006,33.028362 319.855255,31.767017 312.172333,33.284405 
	C293.962677,36.880825 281.307220,47.865345 275.013245,65.605576 
	C271.372681,75.866852 273.441833,86.511574 273.019806,97.924400 
	C273.068817,110.281700 273.117859,122.639008 273.020203,135.923889 
	C273.068268,148.282730 273.116333,160.641571 273.018860,173.927277 
	C273.011230,179.719864 272.756256,185.525833 273.068909,191.301086 
	C273.353973,196.566940 274.254547,201.799500 274.980103,207.804871 
	C276.962585,212.008026 278.370911,216.635742 281.081116,220.300781 
	C284.084412,224.362167 288.277496,227.543716 292.233337,231.737396 
	C300.221069,237.522705 308.750427,241.714508 319.930359,240.978882 
	C340.618774,240.930267 361.307190,240.881653 382.923859,240.975342 
	C394.614929,240.928101 406.306030,240.880859 418.925385,240.974899 
	C423.920868,240.983490 428.928253,240.771606 433.909760,241.039612 
	C453.441345,242.090378 472.553375,227.375488 479.000763,208.488815 
	C482.417572,198.479660 480.630219,188.184708 480.969849,177.068954 
	C480.924469,163.711929 480.879089,150.354889 480.969727,136.069504 
	C480.923676,122.710800 480.877655,109.352097 480.967834,95.065956 
	C480.977753,88.436005 481.465790,81.759926 480.832092,75.192070 
	C480.398773,70.700935 478.401642,66.360680 476.996460,61.224480 
	C473.364929,52.761383 467.908234,45.819584 459.706512,40.262806 
M91.913689,240.981445 
	C105.941299,240.932144 119.968910,240.882843 134.924133,240.980026 
	C148.613953,240.930939 162.303772,240.881866 176.921738,240.979431 
	C185.224792,240.971710 193.793106,242.287888 201.777191,240.688202 
	C219.933350,237.050461 232.747055,226.185287 238.986801,208.348404 
	C242.690659,197.760620 240.533508,186.797836 240.971222,175.066132 
	C240.925262,161.709518 240.879318,148.352905 240.973282,134.068756 
	C240.926407,115.710022 240.879517,97.351288 240.968964,78.111229 
	C241.032364,62.921406 233.691437,51.234638 222.368881,42.279488 
	C215.509659,36.854450 207.355621,32.875885 197.064133,33.031063 
	C175.041367,33.076256 153.018585,33.121449 130.068619,33.024296 
	C114.942192,33.013992 99.813797,33.146648 84.690079,32.939148 
	C75.780647,32.816910 67.348495,33.597435 59.108829,37.808228 
	C44.162525,45.446373 34.720753,57.614704 33.384506,73.693932 
	C31.780060,93.000443 33.108368,112.550674 33.015690,132.922501 
	C33.014629,154.801910 32.876083,176.682999 33.142059,198.559158 
	C33.188717,202.396866 34.932407,206.213974 35.990311,210.776978 
	C40.851906,223.438889 49.878403,231.929108 62.042202,237.634613 
	C71.428139,242.037140 81.217979,240.893280 91.913689,240.981445 
M480.966553,341.058594 
	C480.976715,333.581940 480.955017,326.105103 481.003113,318.628693 
	C481.134277,298.243256 465.792053,279.093811 444.160400,273.997131 
	C442.911926,273.667664 441.663605,273.051971 440.414978,273.051453 
	C420.609436,273.043335 400.803833,273.114075 380.069977,273.030396 
	C366.712738,273.075806 353.355499,273.121216 339.069763,273.030457 
	C330.103607,273.034851 320.885742,271.697266 312.223419,273.321777 
	C293.946350,276.749481 281.254211,287.845520 275.029083,305.638275 
	C271.101959,316.862885 273.554016,328.528839 273.024139,340.925964 
	C273.071655,356.282379 273.119171,371.638824 273.025543,387.923889 
	C273.071503,403.619629 273.117432,419.315338 273.023041,435.890900 
	C273.009064,456.236847 288.375183,475.367981 308.837006,479.632935 
	C319.825165,481.923218 331.576630,480.551544 343.915009,480.971985 
	C356.943481,480.925934 369.971954,480.879883 383.928650,480.971771 
	C400.085419,480.980988 416.251068,480.670868 432.395599,481.119843 
	C441.986267,481.386566 450.512390,478.975677 458.558594,474.090942 
	C471.453400,466.262665 479.668213,454.627960 480.676147,439.933075 
	C481.949280,421.372253 480.888184,402.651337 480.969727,383.070862 
	C480.923889,369.375732 480.878052,355.680603 480.966553,341.058594 
z"/>
<path fill="#EA35DE" opacity="1.000000" stroke="none" 
	d="
M33.166801,131.995377 
	C33.108368,112.550674 31.780060,93.000443 33.384506,73.693932 
	C34.720753,57.614704 44.162525,45.446373 59.108829,37.808228 
	C67.348495,33.597435 75.780647,32.816910 84.690079,32.939148 
	C99.813797,33.146648 114.942192,33.013992 130.458282,33.424927 
	C129.883865,35.374409 129.159790,37.157143 127.916031,38.433441 
	C120.824211,45.710800 113.574341,52.833988 106.464973,60.094555 
	C105.109413,61.478935 104.142509,63.243881 102.532669,64.904396 
	C96.258759,64.983612 90.447510,64.927383 84.638367,65.013374 
	C73.228401,65.182274 68.041504,68.960480 66.106522,80.383362 
	C64.798607,88.104454 65.197609,96.114685 64.482346,104.016632 
	C62.518208,105.094719 60.681892,105.923752 59.328712,107.246887 
	C52.120216,114.295311 45.066723,121.502106 37.873325,128.566238 
	C36.503246,129.911697 34.745621,130.862488 33.166801,131.995377 
z"/>
<path fill="#292AF0" opacity="1.000000" stroke="none" 
	d="
M480.833923,383.999451 
	C480.888184,402.651337 481.949280,421.372253 480.676147,439.933075 
	C479.668213,454.627960 471.453400,466.262665 458.558594,474.090942 
	C450.512390,478.975677 441.986267,481.386566 432.395599,481.119843 
	C416.251068,480.670868 400.085419,480.980988 383.537903,480.577820 
	C384.273438,478.780640 385.286194,477.265137 386.544769,475.992798 
	C393.641602,468.818390 400.860687,461.763580 407.879517,454.514435 
	C409.273560,453.074646 409.977203,450.966370 411.463379,449.097351 
	C417.720459,449.018707 423.514526,449.079987 429.306030,448.984467 
	C440.773590,448.795288 445.961243,444.946350 447.933136,433.586853 
	C449.157776,426.532196 448.808777,419.204376 449.491333,411.925415 
	C451.219818,410.725586 452.735565,409.713135 454.007874,408.454590 
	C461.182220,401.358002 468.236908,394.139069 475.485779,387.120270 
	C476.925781,385.726013 479.033905,385.021851 480.833923,383.999451 
z"/>
<path fill="#472CED" opacity="1.000000" stroke="none" 
	d="
M342.983643,480.832306 
	C331.576630,480.551544 319.825165,481.923218 308.837006,479.632935 
	C288.375183,475.367981 273.009064,456.236847 273.418884,435.376648 
	C275.216949,433.738770 276.732452,432.729645 278.002625,431.472656 
	C285.400879,424.150940 292.708527,416.737427 300.131561,409.441193 
	C301.500671,408.095490 303.258240,407.144989 304.907043,406.474426 
	C304.986145,414.237244 304.670135,421.557495 305.112488,428.831573 
	C305.430450,434.060272 305.764801,439.337891 310.001678,443.668854 
	C314.375580,448.139954 319.799683,448.757660 325.202789,448.889893 
	C340.456543,449.263214 355.723145,449.112213 370.911987,449.492554 
	C369.713806,451.220551 368.702240,452.736511 367.444000,454.008545 
	C360.348083,461.182373 353.129883,468.236572 346.111359,475.484589 
	C344.716003,476.925568 344.008392,479.032471 342.983643,480.832306 
z"/>
<path fill="#692EEA" opacity="1.000000" stroke="none" 
	d="
M339.998260,273.166626 
	C353.355499,273.121216 366.712738,273.075806 380.514465,273.449066 
	C379.903015,275.481506 379.075714,277.318817 377.752960,278.671692 
	C370.704498,285.880615 363.497467,292.934357 356.432800,300.127716 
	C355.086639,301.498413 354.133362,303.254944 352.534485,304.901550 
	C343.110016,304.980469 334.136627,304.703003 325.194672,305.111847 
	C319.959229,305.351227 314.655609,305.779236 310.344360,309.960419 
	C305.879761,314.290314 305.300262,319.739075 305.106628,325.159424 
	C304.704102,336.426971 304.889435,347.715485 304.482300,359.016235 
	C302.518158,360.094086 300.681915,360.923096 299.328766,362.246216 
	C292.120148,369.294617 285.066528,376.501404 277.873108,383.565582 
	C276.502960,384.911102 274.745453,385.862183 273.166656,386.995239 
	C273.119171,371.638824 273.071655,356.282379 273.420471,340.389038 
	C285.698517,328.509399 297.708588,317.297180 309.420807,305.782043 
	C318.544800,296.811615 327.325836,287.490723 336.188599,278.257751 
	C337.645386,276.740112 338.737579,274.872498 339.998260,273.166626 
z"/>
<path fill="#472CED" opacity="1.000000" stroke="none" 
	d="
M444.999268,274.166077 
	C465.792053,279.093811 481.134277,298.243256 481.003113,318.628693 
	C480.955017,326.105103 480.976715,333.581940 480.574280,341.597778 
	C478.783173,343.259613 477.272736,344.269409 476.003998,345.523712 
	C469.085388,352.363495 462.299225,359.339233 455.294403,366.088562 
	C453.586304,367.734314 451.227631,368.704895 449.100830,369.523010 
	C449.022705,354.466553 449.102966,339.872131 448.967224,325.279755 
	C448.884033,316.336975 445.152985,305.823486 433.682068,305.857330 
	C428.455444,305.872772 423.226776,305.196167 418.019836,304.482758 
	C419.100067,302.516113 419.932495,300.678589 421.257141,299.321533 
	C427.965240,292.449188 434.837585,285.737305 441.561890,278.880493 
	C442.909210,277.506653 443.863678,275.747559 444.999268,274.166077 
z"/>
<path fill="#AB31E4" opacity="1.000000" stroke="none" 
	d="
M240.833359,134.996292 
	C240.879318,148.352905 240.925262,161.709518 240.551437,175.551239 
	C238.507736,177.103897 236.646088,177.932358 235.295776,179.275024 
	C216.521362,197.943314 197.791626,216.656860 179.145920,235.453506 
	C177.728241,236.882660 177.027542,239.023010 175.993591,240.832764 
	C162.303772,240.881866 148.613953,240.930939 134.481171,240.556183 
	C135.094971,238.518768 135.923492,236.682053 137.246597,235.328888 
	C144.295074,228.120193 151.501999,221.066605 158.566284,213.873108 
	C159.911926,212.502853 160.863144,210.745255 162.460205,209.093124 
	C171.555298,209.014130 180.197723,209.271957 188.813538,208.904861 
	C194.072983,208.680740 199.369064,208.219589 203.659668,204.051239 
	C208.093155,199.744064 208.661163,194.312042 208.911545,188.874207 
	C209.308029,180.262573 209.111862,171.623657 209.517242,162.976929 
	C211.481674,161.901672 213.318832,161.074356 214.671631,159.751648 
	C221.880676,152.703049 228.934616,145.495972 236.128036,138.431091 
	C237.498764,137.084854 239.255005,136.131119 240.833359,134.996292 
z"/>
<path fill="#AB31E4" opacity="1.000000" stroke="none" 
	d="
M95.997337,273.166351 
	C109.020882,273.120422 122.044434,273.074524 135.464325,273.433533 
	C134.580627,275.718628 133.540863,277.832550 131.978928,279.438599 
	C125.199112,286.409790 118.231491,293.197998 111.420593,300.139557 
	C110.078606,301.507263 109.127556,303.258545 107.532288,304.902130 
	C99.770508,304.980927 92.450600,304.648865 85.182335,305.117554 
	C80.145195,305.442413 74.973061,305.627441 70.714523,309.603851 
	C66.041412,313.967316 65.364174,319.494446 65.081406,325.121674 
	C64.699005,332.731415 64.888687,340.369934 64.507889,348.070953 
	C56.526001,355.526398 48.946129,362.989594 41.166164,370.238037 
	C38.781670,372.459686 35.848804,374.092773 33.167049,375.995361 
	C33.117958,362.971741 33.068871,349.948151 33.418259,336.388062 
	C34.753735,335.190704 35.810169,334.649506 36.610245,333.851349 
	C55.635880,314.871368 74.644203,295.873962 93.608604,276.832855 
	C94.616203,275.821167 95.210587,274.397980 95.997337,273.166351 
z"/>
<path fill="#692EEA" opacity="1.000000" stroke="none" 
	d="
M177.997131,480.833618 
	C166.306061,480.880829 154.614990,480.928070 142.528992,480.568634 
	C143.414902,478.281982 144.455856,476.168701 146.018127,474.562408 
	C152.798019,467.591522 159.765701,460.803528 166.576126,453.861755 
	C167.917328,452.494598 168.865356,450.741730 170.459106,449.095642 
	C177.058487,449.016327 183.230545,449.418915 189.316727,448.869629 
	C194.167145,448.431915 199.157471,448.253265 203.298859,444.373657 
	C207.995972,439.973511 208.662781,434.447571 208.905930,428.841125 
	C209.307846,419.574341 209.111038,410.281525 209.517395,400.980103 
	C211.481903,399.904388 213.319000,399.076813 214.671906,397.754028 
	C221.880814,390.705505 228.934570,383.498474 236.127975,376.433807 
	C237.498520,375.087769 239.254959,374.134674 240.833344,373.000244 
	C240.878830,387.689789 240.924316,402.379364 240.551239,417.553833 
	C238.513855,419.100677 236.657288,419.923370 235.312134,421.260529 
	C217.193100,439.272186 199.119064,457.329498 181.130295,475.471130 
	C179.718796,476.894592 179.024673,479.029419 177.997131,480.833618 
z"/>
<path fill="#E034DF" opacity="1.000000" stroke="none" 
	d="
M33.091248,132.458939 
	C34.745621,130.862488 36.503246,129.911697 37.873325,128.566238 
	C45.066723,121.502106 52.120216,114.295311 59.328712,107.246887 
	C60.681892,105.923752 62.518208,105.094719 64.557907,104.480225 
	C64.932198,130.942581 64.880165,156.962372 64.502960,183.058105 
	C62.543434,184.494110 60.814503,185.756439 59.290588,187.230682 
	C51.462177,194.804016 43.686478,202.431824 35.892357,210.040588 
	C34.932407,206.213974 33.188717,202.396866 33.142059,198.559158 
	C32.876083,176.682999 33.014629,154.801910 33.091248,132.458939 
z"/>
<path fill="#692EEA" opacity="1.000000" stroke="none" 
	d="
M480.833679,136.997864 
	C480.879089,150.354889 480.924469,163.711929 480.551270,177.553864 
	C478.513855,179.100647 476.657288,179.923340 475.312164,181.260513 
	C457.193115,199.272171 439.119110,217.329529 421.130310,235.471176 
	C419.718811,236.894638 419.024658,239.029419 417.997101,240.833618 
	C406.306030,240.880859 394.614929,240.928101 382.533936,240.579193 
	C383.266571,238.784088 384.276215,237.273529 385.530518,236.004791 
	C392.370758,229.085739 399.346954,222.299194 406.096680,215.293915 
	C407.742706,213.585541 408.713501,211.226562 410.459137,209.095642 
	C417.056976,209.016327 423.228149,209.422119 429.312042,208.868607 
	C434.159210,208.427597 439.152893,208.262756 443.293182,204.379593 
	C447.983521,199.980484 448.620300,194.460556 448.910126,188.853165 
	C449.320251,180.918137 449.111023,172.951080 449.517273,164.978210 
	C451.481750,163.902679 453.318848,163.075195 454.671692,161.752441 
	C461.880768,154.703842 468.934723,147.496735 476.128204,140.431946 
	C477.498871,139.085800 479.255280,138.132446 480.833679,136.997864 
z"/>
<path fill="#AB31E4" opacity="1.000000" stroke="none" 
	d="
M336.997009,33.166378 
	C348.021332,33.120010 359.045654,33.073643 370.514587,33.447170 
	C369.903687,35.481068 369.077118,37.318928 367.754486,38.671730 
	C360.705902,45.881008 353.498596,52.934967 346.433594,60.128510 
	C345.087280,61.499317 344.133484,63.255630 342.534424,64.903275 
	C336.267303,64.981812 330.380676,64.391724 324.687164,65.185822 
	C319.937286,65.848305 314.987762,67.422203 310.894745,69.874474 
	C305.439941,73.142670 305.376251,79.500748 305.079987,85.125580 
	C304.696869,92.400116 304.888702,99.704926 304.482239,107.017639 
	C302.518158,108.095558 300.681793,108.924484 299.328644,110.247597 
	C292.120178,117.296005 285.066742,124.502792 277.873352,131.566940 
	C276.503265,132.912430 274.745667,133.863342 273.166870,134.996307 
	C273.117859,122.639008 273.068817,110.281700 273.418243,97.387955 
	C274.757507,96.186752 275.817749,95.641716 276.621674,94.839699 
	C295.971741,75.535149 315.304474,56.213177 334.593506,36.847679 
	C335.606049,35.831120 336.205353,34.402931 336.997009,33.166378 
z"/>
<path fill="#C733E1" opacity="1.000000" stroke="none" 
	d="
M197.991898,33.166275 
	C207.355621,32.875885 215.509659,36.854450 222.368881,42.279488 
	C233.691437,51.234638 241.032364,62.921406 240.565323,78.621887 
	C238.282043,80.414177 236.169495,81.456367 234.563034,83.018867 
	C227.592377,89.798820 220.804459,96.766350 213.862656,103.576569 
	C212.495758,104.917564 210.742386,105.864616 209.098953,106.529480 
	C209.021484,98.928337 209.360794,91.767731 208.885056,84.661682 
	C208.547699,79.622719 208.116013,74.515648 204.050949,70.350456 
	C199.710464,65.903038 194.304138,65.457100 188.891129,65.097946 
	C182.281357,64.659393 175.627090,64.891594 169.067993,64.508781 
	C170.269424,62.782780 171.281647,61.269596 172.539093,59.999115 
	C179.860489,52.601818 187.273270,45.294716 194.568466,37.871922 
	C195.913300,36.503567 196.860931,34.744827 197.991898,33.166275 
z"/>
<path fill="#C733E1" opacity="1.000000" stroke="none" 
	d="
M35.941338,210.408783 
	C43.686478,202.431824 51.462177,194.804016 59.290588,187.230682 
	C60.814503,185.756439 62.543434,184.494110 64.580948,183.509995 
	C64.991928,185.877167 64.704704,187.923691 65.065613,189.848709 
	C65.971939,194.682907 66.012924,199.603745 69.943474,203.716019 
	C74.335938,208.311600 79.716347,208.733521 85.147110,208.909805 
	C96.417595,209.275665 107.705170,209.115128 118.967117,209.521179 
	C117.892601,211.484360 117.065033,213.320633 115.742661,214.673080 
	C108.694977,221.881012 101.489159,228.934189 94.424934,236.126251 
	C93.078186,237.497375 92.121429,239.251572 90.984741,240.829041 
	C81.217979,240.893280 71.428139,242.037140 62.042202,237.634613 
	C49.878403,231.929108 40.851906,223.438889 35.941338,210.408783 
z"/>
<path fill="#E034DF" opacity="1.000000" stroke="none" 
	d="
M197.528015,33.098671 
	C196.860931,34.744827 195.913300,36.503567 194.568466,37.871922 
	C187.273270,45.294716 179.860489,52.601818 172.539093,59.999115 
	C171.281647,61.269596 170.269424,62.782780 168.604080,64.576385 
	C146.374924,64.923698 124.685608,64.878471 102.996292,64.833244 
	C104.142509,63.243881 105.109413,61.478935 106.464973,60.094555 
	C113.574341,52.833988 120.824211,45.710800 127.916031,38.433441 
	C129.159790,37.157143 129.883865,35.374409 130.921875,33.496101 
	C153.018585,33.121449 175.041367,33.076256 197.528015,33.098671 
z"/>
<path fill="#5F2DEB" opacity="1.000000" stroke="none" 
	d="
M444.579834,274.081604 
	C443.863678,275.747559 442.909210,277.506653 441.561890,278.880493 
	C434.837585,285.737305 427.965240,292.449188 421.257141,299.321533 
	C419.932495,300.678589 419.100067,302.516113 417.555176,304.549194 
	C395.712738,304.922058 374.355774,304.877747 352.998779,304.833435 
	C354.133362,303.254944 355.086639,301.498413 356.432800,300.127716 
	C363.497467,292.934357 370.704498,285.880615 377.752960,278.671692 
	C379.075714,277.318817 379.903015,275.481506 380.978577,273.517273 
	C400.803833,273.114075 420.609436,273.043335 440.414978,273.051453 
	C441.663605,273.051971 442.911926,273.667664 444.579834,274.081604 
z"/>
<path fill="#752EE9" opacity="1.000000" stroke="none" 
	d="
M409.994781,209.166748 
	C408.713501,211.226562 407.742706,213.585541 406.096680,215.293915 
	C399.346954,222.299194 392.370758,229.085739 385.530518,236.004791 
	C384.276215,237.273529 383.266571,238.784088 382.069794,240.508041 
	C361.307190,240.881653 340.618774,240.930267 319.539856,240.582336 
	C320.275818,238.782501 321.288849,237.266968 322.547577,235.994461 
	C329.645233,228.819290 336.865295,221.763870 343.884766,214.513809 
	C345.278717,213.074066 345.981018,210.964630 347.465698,209.092438 
	C368.617676,209.069504 389.306213,209.118118 409.994781,209.166748 
z"/>
<path fill="#752EE9" opacity="1.000000" stroke="none" 
	d="
M169.994736,449.166748 
	C168.865356,450.741730 167.917328,452.494598 166.576126,453.861755 
	C159.765701,460.803528 152.798019,467.591522 146.018127,474.562408 
	C144.455856,476.168701 143.414902,478.281982 142.064850,480.497498 
	C121.307137,480.881683 100.618637,480.930298 79.539696,480.582336 
	C80.275780,478.782501 81.288879,477.266998 82.547630,475.994476 
	C89.645309,468.819336 96.865318,461.763885 103.884781,454.513794 
	C105.278740,453.074036 105.981010,450.964600 107.465652,449.092468 
	C128.617615,449.069550 149.306183,449.118164 169.994736,449.166748 
z"/>
<path fill="#9F31E5" opacity="1.000000" stroke="none" 
	d="
M342.998596,64.834068 
	C344.133484,63.255630 345.087280,61.499317 346.433594,60.128510 
	C353.498596,52.934967 360.705902,45.881008 367.754486,38.671730 
	C369.077118,37.318928 369.903687,35.481068 370.978577,33.516373 
	C391.353027,33.120907 411.708130,33.076122 432.508240,33.450455 
	C431.897369,35.482933 431.069885,37.319698 429.747284,38.672359 
	C422.699371,45.880672 415.493103,52.934078 408.428772,60.126629 
	C407.082245,61.497543 406.126892,63.252670 404.527710,64.899475 
	C383.709076,64.923637 363.353851,64.878853 342.998596,64.834068 
z"/>
<path fill="#752EE9" opacity="1.000000" stroke="none" 
	d="
M339.533997,273.098541 
	C338.737579,274.872498 337.645386,276.740112 336.188599,278.257751 
	C327.325836,287.490723 318.544800,296.811615 309.420807,305.782043 
	C297.708588,317.297180 285.698517,328.509399 273.491699,339.925079 
	C273.554016,328.528839 271.101959,316.862885 275.029083,305.638275 
	C281.254211,287.845520 293.946350,276.749481 312.223419,273.321777 
	C320.885742,271.697266 330.103607,273.034851 339.533997,273.098541 
z"/>
<path fill="#9F31E5" opacity="1.000000" stroke="none" 
	d="
M107.996216,304.832947 
	C109.127556,303.258545 110.078606,301.507263 111.420593,300.139557 
	C118.231491,293.197998 125.199112,286.409790 131.978928,279.438599 
	C133.540863,277.832550 134.580627,275.718628 135.928162,273.502747 
	C154.684967,273.121796 173.374268,273.076569 192.508530,273.450439 
	C191.897476,275.482880 191.069901,277.319611 189.747314,278.672272 
	C182.699326,285.880615 175.493073,292.934082 168.428665,300.126617 
	C167.082169,301.497559 166.126831,303.252686 164.527649,304.899475 
	C145.374924,304.923279 126.685570,304.878113 107.996216,304.832947 
z"/>
<path fill="#B432E3" opacity="1.000000" stroke="none" 
	d="
M209.167252,106.993347 
	C210.742386,105.864616 212.495758,104.917564 213.862656,103.576569 
	C220.804459,96.766350 227.592377,89.798820 234.563034,83.018867 
	C236.169495,81.456367 238.282043,80.414177 240.497162,79.062546 
	C240.879517,97.351288 240.926407,115.710022 240.903320,134.532532 
	C239.255005,136.131119 237.498764,137.084854 236.128036,138.431091 
	C228.934616,145.495972 221.880676,152.703049 214.671631,159.751648 
	C213.318832,161.074356 211.481674,161.901672 209.447342,162.513138 
	C209.073532,143.710236 209.120392,125.351784 209.167252,106.993347 
z"/>
<path fill="#9F31E5" opacity="1.000000" stroke="none" 
	d="
M176.457657,240.906097 
	C177.027542,239.023010 177.728241,236.882660 179.145920,235.453506 
	C197.791626,216.656860 216.521362,197.943314 235.295776,179.275024 
	C236.646088,177.932358 238.507736,177.103897 240.482208,176.014954 
	C240.533508,186.797836 242.690659,197.760620 238.986801,208.348404 
	C232.747055,226.185287 219.933350,237.050461 201.777191,240.688202 
	C193.793106,242.287888 185.224792,240.971710 176.457657,240.906097 
z"/>
<path fill="#752EE9" opacity="1.000000" stroke="none" 
	d="
M240.901520,372.535828 
	C239.254959,374.134674 237.498520,375.087769 236.127975,376.433807 
	C228.934570,383.498474 221.880814,390.705505 214.671906,397.754028 
	C213.319000,399.076813 211.481903,399.904388 209.449188,400.515686 
	C209.074860,382.714355 209.119598,365.357819 209.489960,347.928162 
	C211.219299,346.729340 212.735733,345.717590 214.008057,344.459076 
	C221.182877,337.362091 228.237869,330.142609 235.487167,323.123352 
	C236.927307,321.728912 239.035355,321.024261 240.835419,320.001526 
	C240.880188,337.358154 240.924942,354.714783 240.901520,372.535828 
z"/>
<path fill="#B432E3" opacity="1.000000" stroke="none" 
	d="
M336.533142,33.096504 
	C336.205353,34.402931 335.606049,35.831120 334.593506,36.847679 
	C315.304474,56.213177 295.971741,75.535149 276.621674,94.839699 
	C275.817749,95.641716 274.757507,96.186752 273.491516,96.924179 
	C273.441833,86.511574 271.372681,75.866852 275.013245,65.605576 
	C281.307220,47.865345 293.962677,36.880825 312.172333,33.284405 
	C319.855255,31.767017 328.087006,33.028362 336.533142,33.096504 
z"/>
<path fill="#5F2DEB" opacity="1.000000" stroke="none" 
	d="
M418.461243,240.904266 
	C419.024658,239.029419 419.718811,236.894638 421.130310,235.471176 
	C439.119110,217.329529 457.193115,199.272171 475.312164,181.260513 
	C476.657288,179.923340 478.513855,179.100647 480.483154,178.017944 
	C480.630219,188.184708 482.417572,198.479660 479.000763,208.488815 
	C472.553375,227.375488 453.441345,242.090378 433.909760,241.039612 
	C428.928253,240.771606 423.920868,240.983490 418.461243,240.904266 
z"/>
<path fill="#5F2DEB" opacity="1.000000" stroke="none" 
	d="
M178.461273,480.904266 
	C179.024673,479.029419 179.718796,476.894592 181.130295,475.471130 
	C199.119064,457.329498 217.193100,439.272186 235.312134,421.260529 
	C236.657288,419.923370 238.513855,419.100677 240.483139,418.017944 
	C240.630356,428.184692 242.417465,438.479675 239.000717,448.488770 
	C232.553421,467.375793 213.440811,482.090424 193.909821,481.039551 
	C188.928284,480.771484 183.920929,480.983490 178.461273,480.904266 
z"/>
<path fill="#B432E3" opacity="1.000000" stroke="none" 
	d="
M95.533447,273.096466 
	C95.210587,274.397980 94.616203,275.821167 93.608604,276.832855 
	C74.644203,295.873962 55.635880,314.871368 36.610245,333.851349 
	C35.810169,334.649506 34.753735,335.190704 33.491554,335.924316 
	C33.438622,325.843872 31.432043,315.551117 34.998024,305.599274 
	C41.347385,287.879639 53.968468,276.917847 72.169899,273.274292 
	C79.524918,271.802002 87.420158,273.028351 95.533447,273.096466 
z"/>
<path fill="#5F2DEB" opacity="1.000000" stroke="none" 
	d="
M273.096100,387.459564 
	C274.745453,385.862183 276.502960,384.911102 277.873108,383.565582 
	C285.066528,376.501404 292.120148,369.294617 299.328766,362.246216 
	C300.681915,360.923096 302.518158,360.094086 304.552917,359.480621 
	C304.928375,375.286804 304.882416,390.649445 304.836487,406.012054 
	C303.258240,407.144989 301.500671,408.095490 300.131561,409.441193 
	C292.708527,416.737427 285.400879,424.150940 278.002625,431.472656 
	C276.732452,432.729645 275.216949,433.738770 273.489075,434.936707 
	C273.117432,419.315338 273.071503,403.619629 273.096100,387.459564 
z"/>
<path fill="#832FE8" opacity="1.000000" stroke="none" 
	d="
M240.903168,319.554626 
	C239.035355,321.024261 236.927307,321.728912 235.487167,323.123352 
	C228.237869,330.142609 221.182877,337.362091 214.008057,344.459076 
	C212.735733,345.717590 211.219299,346.729340 209.422028,347.463501 
	C209.018677,341.250885 208.875534,335.426270 209.030563,329.609528 
	C209.260376,320.987671 208.198807,312.911774 201.183640,306.880554 
	C209.002457,299.105194 216.525558,291.497131 224.048660,283.889099 
	C234.619507,293.259796 241.209549,304.543213 240.903168,319.554626 
z"/>
<path fill="#9F31E5" opacity="1.000000" stroke="none" 
	d="
M33.093658,376.459229 
	C35.848804,374.092773 38.781670,372.459686 41.166164,370.238037 
	C48.946129,362.989594 56.526001,355.526398 64.581299,348.534790 
	C64.931488,362.948242 64.883224,376.972687 64.484154,391.018250 
	C62.519756,392.096191 60.683060,392.924866 59.329819,394.247986 
	C52.120697,401.296936 45.066715,408.504395 37.872643,415.569000 
	C36.502491,416.914490 34.744228,417.864685 33.165043,418.997284 
	C33.116787,404.972565 33.068527,390.947845 33.093658,376.459229 
z"/>
<path fill="#B432E3" opacity="1.000000" stroke="none" 
	d="
M91.449219,240.905243 
	C92.121429,239.251572 93.078186,237.497375 94.424934,236.126251 
	C101.489159,228.934189 108.694977,221.881012 115.742661,214.673080 
	C117.065033,213.320633 117.892601,211.484360 119.431610,209.444946 
	C133.941925,209.067825 147.969131,209.117111 161.996338,209.166382 
	C160.863144,210.745255 159.911926,212.502853 158.566284,213.873108 
	C151.501999,221.066605 144.295074,228.120193 137.246597,235.328888 
	C135.923492,236.682053 135.094971,238.518768 134.017365,240.482941 
	C119.968910,240.882843 105.941299,240.932144 91.449219,240.905243 
z"/>
<path fill="#352BEF" opacity="1.000000" stroke="none" 
	d="
M449.168060,369.985901 
	C451.227631,368.704895 453.586304,367.734314 455.294403,366.088562 
	C462.299225,359.339233 469.085388,352.363495 476.003998,345.523712 
	C477.272736,344.269409 478.783173,343.259613 480.507141,342.061218 
	C480.878052,355.680603 480.923889,369.375732 480.901825,383.535156 
	C479.033905,385.021851 476.925781,385.726013 475.485779,387.120270 
	C468.236908,394.139069 461.182220,401.358002 454.007874,408.454590 
	C452.735565,409.713135 451.219818,410.725586 449.423462,411.461121 
	C449.076263,397.375671 449.122162,383.680786 449.168060,369.985901 
z"/>
<path fill="#752EE9" opacity="1.000000" stroke="none" 
	d="
M480.901703,136.533691 
	C479.255280,138.132446 477.498871,139.085800 476.128204,140.431946 
	C468.934723,147.496735 461.880768,154.703842 454.671692,161.752441 
	C453.318848,163.075195 451.481750,163.902679 449.449219,164.514008 
	C449.076385,150.710571 449.122437,137.351852 449.504089,123.925125 
	C451.719696,122.577026 453.833344,121.537163 455.439270,119.975281 
	C462.410034,113.195824 469.197845,106.228600 476.138916,99.418060 
	C477.506561,98.076141 479.257477,97.124840 480.831635,95.993393 
	C480.877655,109.352097 480.923676,122.710800 480.901703,136.533691 
z"/>
<path fill="#352BEF" opacity="1.000000" stroke="none" 
	d="
M343.449341,480.902161 
	C344.008392,479.032471 344.716003,476.925568 346.111359,475.484589 
	C353.129883,468.236572 360.348083,461.182373 367.444000,454.008545 
	C368.702240,452.736511 369.713806,451.220551 371.377747,449.422607 
	C384.943878,449.074127 397.971527,449.120239 410.999207,449.166351 
	C409.977203,450.966370 409.273560,453.074646 407.879517,454.514435 
	C400.860687,461.763580 393.641602,468.818390 386.544769,475.992798 
	C385.286194,477.265137 384.273438,478.780640 383.073792,480.508850 
	C369.971954,480.879883 356.943481,480.925934 343.449341,480.902161 
z"/>
<path fill="#9F31E5" opacity="1.000000" stroke="none" 
	d="
M273.093536,135.460098 
	C274.745667,133.863342 276.503265,132.912430 277.873352,131.566940 
	C285.066742,124.502792 292.120178,117.296005 299.328644,110.247597 
	C300.681793,108.924484 302.518158,108.095558 304.555634,107.481430 
	C304.931763,119.950104 304.883759,131.975922 304.510773,144.076263 
	C302.784119,145.275299 301.269653,146.285858 299.999329,147.543091 
	C292.601257,154.864914 285.293610,162.278381 277.870331,169.574295 
	C276.501495,170.919647 274.743042,171.868546 273.164398,173.000412 
	C273.116333,160.641571 273.068268,148.282730 273.093536,135.460098 
z"/>
<path fill="#832FE8" opacity="1.000000" stroke="none" 
	d="
M480.899719,95.529678 
	C479.257477,97.124840 477.506561,98.076141 476.138916,99.418060 
	C469.197845,106.228600 462.410034,113.195824 455.439270,119.975281 
	C453.833344,121.537163 451.719696,122.577026 449.435974,123.461433 
	C449.078094,111.374466 449.124023,99.683197 449.494690,87.918625 
	C451.457153,86.484474 453.188995,85.221161 454.716614,83.746277 
	C462.208801,76.512741 469.646637,69.222908 477.103668,61.952965 
	C478.401642,66.360680 480.398773,70.700935 480.832092,75.192070 
	C481.465790,81.759926 480.977753,88.436005 480.899719,95.529678 
z"/>
<path fill="#9230E6" opacity="1.000000" stroke="none" 
	d="
M33.092102,419.460999 
	C34.744228,417.864685 36.502491,416.914490 37.872643,415.569000 
	C45.066715,408.504395 52.120697,401.296936 59.329819,394.247986 
	C60.683060,392.924866 62.519756,392.096191 64.557053,391.482056 
	C64.931847,403.616302 64.882927,415.307861 64.508896,427.073730 
	C58.813511,432.241302 53.501751,437.398285 48.052330,442.405457 
	C44.433468,445.730652 40.617729,448.841553 36.890121,452.048370 
	C35.592751,447.640503 33.622669,443.301788 33.160786,438.808044 
	C32.520088,432.574585 33.012104,426.224731 33.092102,419.460999 
z"/>
<path fill="#9230E6" opacity="1.000000" stroke="none" 
	d="
M273.091614,173.463837 
	C274.743042,171.868546 276.501495,170.919647 277.870331,169.574295 
	C285.293610,162.278381 292.601257,154.864914 299.999329,147.543091 
	C301.269653,146.285858 302.784119,145.275299 304.583496,144.539520 
	C304.932861,156.619247 304.884521,168.310196 304.510986,180.075226 
	C296.255829,187.801743 288.363037,195.493362 280.365051,203.073990 
	C278.741425,204.612900 276.721191,205.733353 274.883820,207.046722 
	C274.254547,201.799500 273.353973,196.566940 273.068909,191.301086 
	C272.756256,185.525833 273.011230,179.719864 273.091614,173.463837 
z"/>
<path fill="#9230E6" opacity="1.000000" stroke="none" 
	d="
M223.903351,283.575073 
	C216.525558,291.497131 209.002457,299.105194 200.773056,306.858673 
	C194.470581,306.335754 188.890045,305.407776 183.273972,305.069244 
	C177.196945,304.702911 171.086761,304.886688 164.991028,304.830566 
	C166.126831,303.252686 167.082169,301.497559 168.428665,300.126617 
	C175.493073,292.934082 182.699326,285.880615 189.747314,278.672272 
	C191.069901,277.319611 191.897476,275.482880 192.972107,273.519318 
	C204.825272,271.719910 214.464676,276.962982 223.903351,283.575073 
z"/>
<path fill="#832FE8" opacity="1.000000" stroke="none" 
	d="
M347.002258,209.164017 
	C345.981018,210.964630 345.278717,213.074066 343.884766,214.513809 
	C336.865295,221.763870 329.645233,228.819290 322.547577,235.994461 
	C321.288849,237.266968 320.275818,238.782501 319.076233,240.510788 
	C308.750427,241.714508 300.221069,237.522705 292.261292,231.127808 
	C298.111481,224.593658 304.020782,218.750565 309.697083,212.689285 
	C311.183502,211.102051 311.946472,208.837296 313.455139,206.931030 
	C319.635437,207.652069 325.387604,208.542389 331.173523,208.935532 
	C336.430664,209.292740 341.724579,209.109192 347.002258,209.164017 
z"/>
<path fill="#9230E6" opacity="1.000000" stroke="none" 
	d="
M404.991089,64.830536 
	C406.126892,63.252670 407.082245,61.497543 408.428772,60.126629 
	C415.493103,52.934078 422.699371,45.880672 429.747284,38.672359 
	C431.069885,37.319698 431.897369,35.482933 432.971802,33.519333 
	C442.934296,31.622080 451.300812,36.016258 459.805481,40.918404 
	C453.906158,47.912312 447.862305,54.208546 441.940857,60.617874 
	C440.416565,62.267784 439.277527,64.273621 437.528442,66.065262 
	C426.393921,65.619896 415.692505,65.225220 404.991089,64.830536 
z"/>
<path fill="#8C30E7" opacity="1.000000" stroke="none" 
	d="
M313.041687,206.883698 
	C311.946472,208.837296 311.183502,211.102051 309.697083,212.689285 
	C304.020782,218.750565 298.111481,224.593658 292.120850,230.813324 
	C288.277496,227.543716 284.084412,224.362167 281.081116,220.300781 
	C278.370911,216.635742 276.962585,212.008026 274.931946,207.425781 
	C276.721191,205.733353 278.741425,204.612900 280.365051,203.073990 
	C288.363037,195.493362 296.255829,187.801743 304.582092,180.534454 
	C304.848877,190.449234 304.526642,200.038681 313.041687,206.883698 
z"/>
<path fill="#832FE8" opacity="1.000000" stroke="none" 
	d="
M107.002251,449.164001 
	C105.981010,450.964600 105.278740,453.074036 103.884781,454.513794 
	C96.865318,461.763885 89.645309,468.819336 82.547630,475.994476 
	C81.288879,477.266998 80.275780,478.782501 79.076065,480.510803 
	C69.714172,482.132050 62.135162,477.477905 54.195061,473.080566 
	C57.517113,468.663544 60.964924,464.926239 64.351990,461.134644 
	C68.287682,456.728943 72.170128,452.275696 76.504570,447.908325 
	C86.956390,448.370361 96.979324,448.767181 107.002251,449.164001 
z"/>
<path fill="#8C30E7" opacity="1.000000" stroke="none" 
	d="
M437.961487,66.115936 
	C439.277527,64.273621 440.416565,62.267784 441.940857,60.617874 
	C447.862305,54.208546 453.906158,47.912312 459.973816,41.229630 
	C467.908234,45.819584 473.364929,52.761383 477.050049,61.588722 
	C469.646637,69.222908 462.208801,76.512741 454.716614,83.746277 
	C453.188995,85.221161 451.457153,86.484474 449.425598,87.482697 
	C448.990082,78.195801 447.187012,70.199860 437.961487,66.115936 
z"/>
<path fill="#8C30E7" opacity="1.000000" stroke="none" 
	d="
M76.075668,447.843079 
	C72.170128,452.275696 68.287682,456.728943 64.351990,461.134644 
	C60.964924,464.926239 57.517113,468.663544 54.027439,472.769226 
	C46.273567,468.029083 40.365295,461.462311 36.942711,452.413269 
	C40.617729,448.841553 44.433468,445.730652 48.052330,442.405457 
	C53.501751,437.398285 58.813511,432.241302 64.580154,427.509399 
	C65.020409,436.559875 66.664284,444.359802 76.075668,447.843079 
z"/>
<path fill="#000000" opacity="1.000000" stroke="none" 
	d="
M162.460205,209.093124 
	C147.969131,209.117111 133.941925,209.067825 119.450211,209.094757 
	C107.705170,209.115128 96.417595,209.275665 85.147110,208.909805 
	C79.716347,208.733521 74.335938,208.311600 69.943474,203.716019 
	C66.012924,199.603745 65.971939,194.682907 65.065613,189.848709 
	C64.704704,187.923691 64.991928,185.877167 64.906113,183.434067 
	C64.880165,156.962372 64.932198,130.942581 64.908676,104.459183 
	C65.197609,96.114685 64.798607,88.104454 66.106522,80.383362 
	C68.041504,68.960480 73.228401,65.182274 84.638367,65.013374 
	C90.447510,64.927383 96.258759,64.983612 102.532669,64.904396 
	C124.685608,64.878471 146.374924,64.923698 168.528152,64.901321 
	C175.627090,64.891594 182.281357,64.659393 188.891129,65.097946 
	C194.304138,65.457100 199.710464,65.903038 204.050949,70.350456 
	C208.116013,74.515648 208.547699,79.622719 208.885056,84.661682 
	C209.360794,91.767731 209.021484,98.928337 209.098953,106.529480 
	C209.120392,125.351784 209.073532,143.710236 209.096558,162.532471 
	C209.111862,171.623657 209.308029,180.262573 208.911545,188.874207 
	C208.661163,194.312042 208.093155,199.744064 203.659668,204.051239 
	C199.369064,208.219589 194.072983,208.680740 188.813538,208.904861 
	C180.197723,209.271957 171.555298,209.014130 162.460205,209.093124 
z"/>
<path fill="#000000" opacity="1.000000" stroke="none" 
	d="
M411.463379,449.097351 
	C397.971527,449.120239 384.943878,449.074127 371.450439,449.097931 
	C355.723145,449.112213 340.456543,449.263214 325.202789,448.889893 
	C319.799683,448.757660 314.375580,448.139954 310.001678,443.668854 
	C305.764801,439.337891 305.430450,434.060272 305.112488,428.831573 
	C304.670135,421.557495 304.986145,414.237244 304.907043,406.474426 
	C304.882416,390.649445 304.928375,375.286804 304.903717,359.459778 
	C304.889435,347.715485 304.704102,336.426971 305.106628,325.159424 
	C305.300262,319.739075 305.879761,314.290314 310.344360,309.960419 
	C314.655609,305.779236 319.959229,305.351227 325.194672,305.111847 
	C334.136627,304.703003 343.110016,304.980469 352.534485,304.901550 
	C374.355774,304.877747 395.712738,304.922058 417.534393,304.899902 
	C423.226776,305.196167 428.455444,305.872772 433.682068,305.857330 
	C445.152985,305.823486 448.884033,316.336975 448.967224,325.279755 
	C449.102966,339.872131 449.022705,354.466553 449.100800,369.522980 
	C449.122162,383.680786 449.076263,397.375671 449.098236,411.534851 
	C448.808777,419.204376 449.157776,426.532196 447.933136,433.586853 
	C445.961243,444.946350 440.773590,448.795288 429.306030,448.984467 
	C423.514526,449.079987 417.720459,449.018707 411.463379,449.097351 
z"/>
<path fill="#000000" opacity="1.000000" stroke="none" 
	d="
M76.504562,447.908325 
	C66.664284,444.359802 65.020409,436.559875 64.905258,427.435120 
	C64.882927,415.307861 64.931847,403.616302 64.907867,391.460938 
	C64.883224,376.972687 64.931488,362.948242 64.906342,348.459961 
	C64.888687,340.369934 64.699005,332.731415 65.081406,325.121674 
	C65.364174,319.494446 66.041412,313.967316 70.714523,309.603851 
	C74.973061,305.627441 80.145195,305.442413 85.182335,305.117554 
	C92.450600,304.648865 99.770508,304.980927 107.532295,304.902130 
	C126.685570,304.878113 145.374924,304.923279 164.527649,304.899475 
	C171.086761,304.886688 177.196945,304.702911 183.273972,305.069244 
	C188.890045,305.407776 194.470581,306.335754 200.477341,307.026001 
	C208.198807,312.911774 209.260376,320.987671 209.030563,329.609528 
	C208.875534,335.426270 209.018677,341.250885 209.096390,347.536652 
	C209.119598,365.357819 209.074860,382.714355 209.098328,400.535278 
	C209.111038,410.281525 209.307846,419.574341 208.905930,428.841125 
	C208.662781,434.447571 207.995972,439.973511 203.298859,444.373657 
	C199.157471,448.253265 194.167145,448.431915 189.316727,448.869629 
	C183.230545,449.418915 177.058487,449.016327 170.459106,449.095642 
	C149.306183,449.118164 128.617615,449.069550 107.465652,449.092468 
	C96.979324,448.767181 86.956390,448.370361 76.504562,447.908325 
z"/>
<path fill="#000000" opacity="1.000000" stroke="none" 
	d="
M437.528412,66.065254 
	C447.187012,70.199860 448.990082,78.195801 449.100861,87.556000 
	C449.124023,99.683197 449.078094,111.374466 449.100342,123.529434 
	C449.122437,137.351852 449.076385,150.710571 449.098419,164.533508 
	C449.111023,172.951080 449.320251,180.918137 448.910126,188.853165 
	C448.620300,194.460556 447.983521,199.980484 443.293182,204.379593 
	C439.152893,208.262756 434.159210,208.427597 429.312042,208.868607 
	C423.228149,209.422119 417.056976,209.016327 410.459137,209.095627 
	C389.306213,209.118118 368.617676,209.069504 347.465698,209.092438 
	C341.724579,209.109192 336.430664,209.292740 331.173523,208.935532 
	C325.387604,208.542389 319.635437,207.652069 313.455139,206.931015 
	C304.526642,200.038681 304.848877,190.449234 304.907318,180.460388 
	C304.884521,168.310196 304.932861,156.619247 304.908508,144.465012 
	C304.883759,131.975922 304.931763,119.950104 304.906372,107.460495 
	C304.888702,99.704926 304.696869,92.400116 305.079987,85.125580 
	C305.376251,79.500748 305.439941,73.142670 310.894745,69.874474 
	C314.987762,67.422203 319.937286,65.848305 324.687164,65.185822 
	C330.380676,64.391724 336.267303,64.981812 342.534424,64.903275 
	C363.353851,64.878853 383.709076,64.923637 404.527710,64.899475 
	C415.692505,65.225220 426.393921,65.619896 437.528412,66.065254 
z"/>
</svg>