<?xml version="1.0" encoding="UTF-8"?>
<!DOCTYPE svg PUBLIC "-//W3C//DTD SVG 1.1//EN" "http://www.w3.org/Graphics/SVG/1.1/DTD/svg11.dtd">
<svg xmlns="http://www.w3.org/2000/svg" version="1.1" width="512px" height="512px" style="shape-rendering:geometricPrecision; text-rendering:geometricPrecision; image-rendering:optimizeQuality; fill-rule:evenodd; clip-rule:evenodd" xmlns:xlink="http://www.w3.org/1999/xlink">
<g><path style="opacity:0.985" fill="#cb33e1" d="M 244.5,31.5 C 227.833,49.1735 210.833,65.8401 193.5,81.5C 194.212,79.0721 195.212,76.7388 196.5,74.5C 183.16,77.6318 170.493,82.9651 158.5,90.5C 158.369,89.7611 158.536,89.0944 159,88.5C 176.702,70.9652 194.202,53.2986 211.5,35.5C 222.359,33.1451 233.359,31.8118 244.5,31.5 Z"/></g>
<g><path style="opacity:0.991" fill="#c432e1" d="M 244.5,31.5 C 252.5,31.5 260.5,31.5 268.5,31.5C 238.194,61.4728 207.86,91.4728 177.5,121.5C 181.207,107.433 186.54,94.1001 193.5,81.5C 210.833,65.8401 227.833,49.1735 244.5,31.5 Z"/></g>
<g><path style="opacity:0.985" fill="#be32e2" d="M 268.5,31.5 C 275.212,31.8014 281.878,32.4681 288.5,33.5C 278.5,43.8333 268.5,54.1667 258.5,64.5C 249.518,63.9072 242.352,67.2405 237,74.5C 229.84,85.1486 223.34,96.1486 217.5,107.5C 216.883,107.389 216.383,107.056 216,106.5C 200.632,122.035 185.132,137.368 169.5,152.5C 171.409,141.861 174.076,131.528 177.5,121.5C 207.86,91.4728 238.194,61.4728 268.5,31.5 Z"/></g>
<g><path style="opacity:0.988" fill="#b831e2" d="M 288.5,33.5 C 296.42,34.5487 304.087,36.2154 311.5,38.5C 309.801,38.3398 308.134,38.5065 306.5,39C 294.91,50.0865 283.91,61.5865 273.5,73.5C 269.257,69.2128 264.257,66.2128 258.5,64.5C 268.5,54.1667 278.5,43.8333 288.5,33.5 Z"/></g>
<g><path style="opacity:0.988" fill="#d133e0" d="M 211.5,35.5 C 194.202,53.2986 176.702,70.9652 159,88.5C 158.536,89.0944 158.369,89.7611 158.5,90.5C 129.763,107.57 107.096,130.57 90.5,159.5C 72.1667,177.5 53.8333,195.5 35.5,213.5C 36.8897,203.275 39.2231,193.275 42.5,183.5C 89.8124,136.521 137.146,89.5211 184.5,42.5C 193.275,39.3894 202.275,37.0561 211.5,35.5 Z"/></g>
<g><path style="opacity:0.989" fill="#b131e3" d="M 311.5,38.5 C 316.911,39.5193 322.244,40.8527 327.5,42.5C 313.552,58.1154 298.886,73.1154 283.5,87.5C 279.811,83.1352 276.478,78.4685 273.5,73.5C 283.91,61.5865 294.91,50.0865 306.5,39C 308.134,38.5065 309.801,38.3398 311.5,38.5 Z"/></g>
<g><path style="opacity:0.985" fill="#ab31e4" d="M 327.5,42.5 C 333.247,44.638 338.914,46.9713 344.5,49.5C 336.5,58.1667 328.167,66.5 319.5,74.5C 317.488,73.9862 315.488,73.8195 313.5,74C 314.582,75.3297 315.249,76.8297 315.5,78.5C 307.472,86.8598 299.472,95.1932 291.5,103.5C 288.82,98.1401 286.153,92.8068 283.5,87.5C 298.886,73.1154 313.552,58.1154 327.5,42.5 Z"/></g>
<g><path style="opacity:0.993" fill="#d833df" d="M 184.5,42.5 C 137.146,89.5211 89.8124,136.521 42.5,183.5C 67.9207,114.413 115.254,67.4126 184.5,42.5 Z"/></g>
<g><path style="opacity:0.982" fill="#a531e4" d="M 344.5,49.5 C 350.151,51.6588 355.484,54.3255 360.5,57.5C 352.167,65.1667 344.167,73.1667 336.5,81.5C 330.651,79.4027 324.985,77.0694 319.5,74.5C 328.167,66.5 336.5,58.1667 344.5,49.5 Z"/></g>
<g><path style="opacity:0.983" fill="#9f30e4" d="M 360.5,57.5 C 366.005,59.7487 371.005,62.7487 375.5,66.5C 366.888,73.4439 358.888,81.1106 351.5,89.5C 346.333,87.0843 341.333,84.4176 336.5,81.5C 344.167,73.1667 352.167,65.1667 360.5,57.5 Z"/></g>
<g><path style="opacity:0.981" fill="#992fe5" d="M 375.5,66.5 C 378.09,67.1283 380.423,68.295 382.5,70C 385.69,72.3644 388.69,74.8644 391.5,77.5C 382.888,84.4439 374.888,92.1106 367.5,100.5C 362.144,96.8005 356.81,93.1339 351.5,89.5C 358.888,81.1106 366.888,73.4439 375.5,66.5 Z"/></g>
<g><path style="opacity:0.986" fill="#a530e4" d="M 315.5,78.5 C 318.674,83.5156 321.341,88.8489 323.5,94.5C 315.167,102.5 306.833,110.5 298.5,118.5C 295.989,113.658 293.656,108.658 291.5,103.5C 299.472,95.1932 307.472,86.8598 315.5,78.5 Z"/></g>
<g><path style="opacity:0.985" fill="#8e2fe6" d="M 391.5,77.5 C 396.572,80.3985 401.239,83.8985 405.5,88C 408.704,91.0359 411.704,94.2026 414.5,97.5C 406.804,105.194 399.471,113.194 392.5,121.5C 384.459,114.124 376.126,107.124 367.5,100.5C 374.888,92.1106 382.888,84.4439 391.5,77.5 Z"/></g>
<g><path style="opacity:0.985" fill="#9f31e5" d="M 323.5,94.5 C 326.029,100.086 328.362,105.753 330.5,111.5C 321.588,118.907 313.088,126.907 305,135.5C 304.536,136.094 304.369,136.761 304.5,137.5C 302.13,131.384 300.13,125.051 298.5,118.5C 306.833,110.5 315.167,102.5 323.5,94.5 Z"/></g>
<g><path style="opacity:0.981" fill="#872ee7" d="M 414.5,97.5 C 418.544,100.543 421.877,104.209 424.5,108.5C 416.22,115.443 408.22,122.776 400.5,130.5C 397.862,127.526 395.195,124.526 392.5,121.5C 399.471,113.194 406.804,105.194 414.5,97.5 Z"/></g>
<g><path style="opacity:0.993" fill="#b832e2" d="M 217.5,107.5 C 213.08,118.433 209.08,129.433 205.5,140.5C 188.167,157.167 171.167,174.167 154.5,191.5C 146.833,191.5 139.167,191.5 131.5,191.5C 141.833,180.833 152.167,170.167 162.5,159.5C 164.199,159.66 165.866,159.494 167.5,159C 168.23,156.846 168.897,154.679 169.5,152.5C 185.132,137.368 200.632,122.035 216,106.5C 216.383,107.056 216.883,107.389 217.5,107.5 Z"/></g>
<g><path style="opacity:0.989" fill="#802ee8" d="M 424.5,108.5 C 429.561,113.229 433.894,118.562 437.5,124.5C 429.833,132.5 422.167,140.5 414.5,148.5C 409.845,142.539 405.178,136.539 400.5,130.5C 408.22,122.776 416.22,115.443 424.5,108.5 Z"/></g>
<g><path style="opacity:0.981" fill="#992fe5" d="M 330.5,111.5 C 333.101,117.972 335.101,124.639 336.5,131.5C 327.5,140.167 318.5,148.833 309.5,157.5C 307.547,151.02 305.88,144.354 304.5,137.5C 304.369,136.761 304.536,136.094 305,135.5C 313.088,126.907 321.588,118.907 330.5,111.5 Z"/></g>
<g><path style="opacity:0.993" fill="#792ee8" d="M 437.5,124.5 C 441.281,128.624 444.281,133.291 446.5,138.5C 429.167,156.167 411.833,173.833 394.5,191.5C 386.833,191.5 379.167,191.5 371.5,191.5C 381.833,180.833 392.167,170.167 402.5,159.5C 408.537,159.829 414.537,159.496 420.5,158.5C 418.048,155.394 416.048,152.061 414.5,148.5C 422.167,140.5 429.833,132.5 437.5,124.5 Z"/></g>
<g><path style="opacity:0.994" fill="#9230e6" d="M 336.5,131.5 C 338.788,137.987 340.455,144.654 341.5,151.5C 340.883,151.389 340.383,151.056 340,150.5C 326.298,164.035 312.798,177.701 299.5,191.5C 291.833,191.5 284.167,191.5 276.5,191.5C 286.833,180.833 297.167,170.167 307.5,159.5C 308.833,159.5 309.5,158.833 309.5,157.5C 318.5,148.833 327.5,140.167 336.5,131.5 Z"/></g>
<g><path style="opacity:0.996" fill="#712de9" d="M 446.5,138.5 C 453.121,148.073 458.454,158.406 462.5,169.5C 453.833,177.833 445.167,186.167 436.5,194.5C 436.586,193.504 436.252,192.671 435.5,192C 421.837,191.5 408.171,191.333 394.5,191.5C 411.833,173.833 429.167,156.167 446.5,138.5 Z"/></g>
<g><path style="opacity:0.99" fill="#b132e3" d="M 205.5,140.5 C 204.296,146.518 202.963,152.518 201.5,158.5C 204.768,159.487 208.102,159.82 211.5,159.5C 195.167,176.5 178.5,193.167 161.5,209.5C 161.593,203.484 161.926,197.484 162.5,191.5C 159.833,191.5 157.167,191.5 154.5,191.5C 171.167,174.167 188.167,157.167 205.5,140.5 Z"/></g>
<g><path style="opacity:0.993" fill="#ca33e1" d="M 90.5,159.5 C 99.1667,159.5 107.833,159.5 116.5,159.5C 106.167,170.167 95.8333,180.833 85.5,191.5C 81.8936,191.211 78.3936,191.544 75,192.5C 73.19,197.428 71.69,202.428 70.5,207.5C 69.7611,207.369 69.0944,207.536 68.5,208C 56.2985,220.369 43.9651,232.535 31.5,244.5C 31.6775,233.881 33.0108,223.548 35.5,213.5C 53.8333,195.5 72.1667,177.5 90.5,159.5 Z"/></g>
<g><path style="opacity:1" fill="#c432e1" d="M 116.5,159.5 C 124.167,159.5 131.833,159.5 139.5,159.5C 129.167,170.167 118.833,180.833 108.5,191.5C 100.833,191.5 93.1667,191.5 85.5,191.5C 95.8333,180.833 106.167,170.167 116.5,159.5 Z"/></g>
<g><path style="opacity:1" fill="#be32e2" d="M 139.5,159.5 C 147.167,159.5 154.833,159.5 162.5,159.5C 152.167,170.167 141.833,180.833 131.5,191.5C 123.833,191.5 116.167,191.5 108.5,191.5C 118.833,180.833 129.167,170.167 139.5,159.5 Z"/></g>
<g><path style="opacity:0.995" fill="#ab31e4" d="M 211.5,159.5 C 219.167,159.5 226.833,159.5 234.5,159.5C 224.167,170.167 213.833,180.833 203.5,191.5C 201.167,191.5 198.833,191.5 196.5,191.5C 195.838,195.466 195.505,199.466 195.5,203.5C 194.732,202.737 194.232,201.737 194,200.5C 182.914,212.09 171.414,223.09 159.5,233.5C 159.776,225.319 160.443,217.319 161.5,209.5C 178.5,193.167 195.167,176.5 211.5,159.5 Z"/></g>
<g><path style="opacity:1" fill="#a530e4" d="M 234.5,159.5 C 242.167,159.5 249.833,159.5 257.5,159.5C 247.167,170.167 236.833,180.833 226.5,191.5C 218.833,191.5 211.167,191.5 203.5,191.5C 213.833,180.833 224.167,170.167 234.5,159.5 Z"/></g>
<g><path style="opacity:1" fill="#9f31e5" d="M 257.5,159.5 C 265.167,159.5 272.833,159.5 280.5,159.5C 270.167,170.167 259.833,180.833 249.5,191.5C 241.833,191.5 234.167,191.5 226.5,191.5C 236.833,180.833 247.167,170.167 257.5,159.5 Z"/></g>
<g><path style="opacity:1" fill="#9830e5" d="M 280.5,159.5 C 289.5,159.5 298.5,159.5 307.5,159.5C 297.167,170.167 286.833,180.833 276.5,191.5C 267.5,191.5 258.5,191.5 249.5,191.5C 259.833,180.833 270.167,170.167 280.5,159.5 Z"/></g>
<g><path style="opacity:0.992" fill="#882fe7" d="M 341.5,151.5 C 341.979,154.064 342.645,156.564 343.5,159C 354.161,159.5 364.828,159.667 375.5,159.5C 356.139,179.193 336.806,198.86 317.5,218.5C 316.566,209.493 315.566,200.493 314.5,191.5C 309.5,191.5 304.5,191.5 299.5,191.5C 312.798,177.701 326.298,164.035 340,150.5C 340.383,151.056 340.883,151.389 341.5,151.5 Z"/></g>
<g><path style="opacity:0.994" fill="#802fe8" d="M 375.5,159.5 C 384.5,159.5 393.5,159.5 402.5,159.5C 392.167,170.167 381.833,180.833 371.5,191.5C 363.833,191.5 356.167,191.5 348.5,191.5C 349.035,198.847 349.701,206.181 350.5,213.5C 339.92,222.576 329.754,232.242 320,242.5C 319.617,241.944 319.117,241.611 318.5,241.5C 318.222,233.83 317.889,226.164 317.5,218.5C 336.806,198.86 356.139,179.193 375.5,159.5 Z"/></g>
<g><path style="opacity:0.98" fill="#622dea" d="M 462.5,169.5 C 468.072,181.22 472.072,193.553 474.5,206.5C 464.833,215.833 455.167,225.167 445.5,234.5C 444.282,220.738 441.282,207.404 436.5,194.5C 445.167,186.167 453.833,177.833 462.5,169.5 Z"/></g>
<g><path style="opacity:0.983" fill="#a530e4" d="M 195.5,203.5 C 194.237,211.066 193.57,218.732 193.5,226.5C 192.883,226.389 192.383,226.056 192,225.5C 181.667,235.833 171.333,246.167 161,256.5C 160.617,255.944 160.117,255.611 159.5,255.5C 159.5,248.167 159.5,240.833 159.5,233.5C 171.414,223.09 182.914,212.09 194,200.5C 194.232,201.737 194.732,202.737 195.5,203.5 Z"/></g>
<g><path style="opacity:0.987" fill="#c433e1" d="M 70.5,207.5 C 67.8099,216.62 66.1432,225.954 65.5,235.5C 53.5257,245.807 42.1924,256.807 31.5,268.5C 31.5,260.5 31.5,252.5 31.5,244.5C 43.9651,232.535 56.2985,220.369 68.5,208C 69.0944,207.536 69.7611,207.369 70.5,207.5 Z"/></g>
<g><path style="opacity:0.986" fill="#9f31e4" d="M 193.5,226.5 C 192.589,235.126 192.255,243.792 192.5,252.5C 191.732,251.737 191.232,250.737 191,249.5C 180.913,260.091 170.413,270.091 159.5,279.5C 159.5,271.5 159.5,263.5 159.5,255.5C 160.117,255.611 160.617,255.944 161,256.5C 171.333,246.167 181.667,235.833 192,225.5C 192.383,226.056 192.883,226.389 193.5,226.5 Z"/></g>
<g><path style="opacity:0.983" fill="#562ceb" d="M 474.5,206.5 C 477.7,219.963 479.366,233.63 479.5,247.5C 468.702,257.798 458.035,268.298 447.5,279C 446.906,279.464 446.239,279.631 445.5,279.5C 446.782,264.477 446.782,249.477 445.5,234.5C 455.167,225.167 464.833,215.833 474.5,206.5 Z"/></g>
<g><path style="opacity:0.985" fill="#be32e2" d="M 65.5,235.5 C 64.5328,243.414 64.1995,251.414 64.5,259.5C 54.1667,268.833 43.8333,278.167 33.5,287.5C 32.3961,281.231 31.7295,274.897 31.5,268.5C 42.1924,256.807 53.5257,245.807 65.5,235.5 Z"/></g>
<g><path style="opacity:0.986" fill="#752ee8" d="M 350.5,213.5 C 351.328,228.151 351.661,242.817 351.5,257.5C 340.535,267.965 329.702,278.631 319,289.5C 318.768,288.263 318.268,287.263 317.5,286.5C 318.397,271.522 318.73,256.522 318.5,241.5C 319.117,241.611 319.617,241.944 320,242.5C 329.754,232.242 339.92,222.576 350.5,213.5 Z"/></g>
<g><path style="opacity:0.975" fill="#9830e5" d="M 192.5,252.5 C 192.5,260.167 192.5,267.833 192.5,275.5C 182.167,285.5 171.833,295.5 161.5,305.5C 160.55,296.867 159.883,288.2 159.5,279.5C 170.413,270.091 180.913,260.091 191,249.5C 191.232,250.737 191.732,251.737 192.5,252.5 Z"/></g>
<g><path style="opacity:0.986" fill="#b832e2" d="M 64.5,259.5 C 64.4792,266.854 64.8125,274.187 65.5,281.5C 55.8861,289.777 46.5527,298.444 37.5,307.5C 35.5487,301.077 34.2154,294.411 33.5,287.5C 43.8333,278.167 54.1667,268.833 64.5,259.5 Z"/></g>
<g><path style="opacity:0.992" fill="#9230e6" d="M 192.5,275.5 C 192.931,283.209 193.598,290.875 194.5,298.5C 193.883,298.389 193.383,298.056 193,297.5C 174.965,315.368 157.132,333.368 139.5,351.5C 131.833,351.5 124.167,351.5 116.5,351.5C 126.833,340.833 137.167,330.167 147.5,319.5C 152.5,319.5 157.5,319.5 162.5,319.5C 162.167,314.833 161.833,310.167 161.5,305.5C 171.833,295.5 182.167,285.5 192.5,275.5 Z"/></g>
<g><path style="opacity:0.996" fill="#4a2cec" d="M 479.5,247.5 C 480.564,266.231 478.897,284.565 474.5,302.5C 474.631,301.761 474.464,301.094 474,300.5C 456.299,318.368 438.465,336.035 420.5,353.5C 405.871,351.516 390.871,350.85 375.5,351.5C 385.833,340.833 396.167,330.167 406.5,319.5C 416.416,319.819 426.25,319.486 436,318.5C 440.583,305.835 443.75,292.835 445.5,279.5C 446.239,279.631 446.906,279.464 447.5,279C 458.035,268.298 468.702,257.798 479.5,247.5 Z"/></g>
<g><path style="opacity:0.991" fill="#692dea" d="M 351.5,257.5 C 351.591,275.531 350.924,293.531 349.5,311.5C 348.778,311.082 348.278,310.416 348,309.5C 333.965,323.368 320.131,337.368 306.5,351.5C 290.167,351.5 273.833,351.5 257.5,351.5C 267.833,340.833 278.167,330.167 288.5,319.5C 297.167,319.5 305.833,319.5 314.5,319.5C 315.92,308.543 316.92,297.543 317.5,286.5C 318.268,287.263 318.768,288.263 319,289.5C 329.702,278.631 340.535,267.965 351.5,257.5 Z"/></g>
<g><path style="opacity:0.979" fill="#b131e3" d="M 65.5,281.5 C 67.0838,288.42 68.4171,295.42 69.5,302.5C 60.0802,310.917 51.4135,319.917 43.5,329.5C 40.8792,322.351 38.8792,315.018 37.5,307.5C 46.5527,298.444 55.8861,289.777 65.5,281.5 Z"/></g>
<g><path style="opacity:0.994" fill="#8c2fe7" d="M 194.5,298.5 C 194.729,304.897 195.396,311.231 196.5,317.5C 184.219,328.113 172.552,339.446 161.5,351.5C 154.167,351.5 146.833,351.5 139.5,351.5C 157.132,333.368 174.965,315.368 193,297.5C 193.383,298.056 193.883,298.389 194.5,298.5 Z"/></g>
<g><path style="opacity:0.983" fill="#ab31e4" d="M 69.5,302.5 C 71.4747,308.086 73.4747,313.753 75.5,319.5C 66.8333,327.833 58.1667,336.167 49.5,344.5C 47.2259,339.617 45.2259,334.617 43.5,329.5C 51.4135,319.917 60.0802,310.917 69.5,302.5 Z"/></g>
<g><path style="opacity:0.985" fill="#442ced" d="M 474.5,302.5 C 474.152,306.557 473.486,310.557 472.5,314.5C 419.583,365.916 367.083,417.916 315,470.5C 314.536,471.094 314.369,471.761 314.5,472.5C 300.675,475.865 286.675,478.198 272.5,479.5C 287.418,466.25 301.752,452.25 315.5,437.5C 360.295,421.62 395.295,393.62 420.5,353.5C 438.465,336.035 456.299,318.368 474,300.5C 474.464,301.094 474.631,301.761 474.5,302.5 Z"/></g>
<g><path style="opacity:0.989" fill="#602ceb" d="M 349.5,311.5 C 348.612,314.054 348.279,316.721 348.5,319.5C 352.5,319.5 356.5,319.5 360.5,319.5C 341.833,338.833 322.833,357.833 303.5,376.5C 305.702,368.558 307.702,360.558 309.5,352.5C 308.675,351.614 307.675,351.281 306.5,351.5C 320.131,337.368 333.965,323.368 348,309.5C 348.278,310.416 348.778,311.082 349.5,311.5 Z"/></g>
<g><path style="opacity:0.993" fill="#862ee7" d="M 196.5,317.5 C 202.412,319.456 208.745,320.123 215.5,319.5C 200.473,334.86 185.473,350.193 170.5,365.5C 169.669,361.187 168.836,356.853 168,352.5C 165.959,351.577 163.792,351.244 161.5,351.5C 172.552,339.446 184.219,328.113 196.5,317.5 Z"/></g>
<g><path style="opacity:0.993" fill="#a530e4" d="M 75.5,319.5 C 82.8333,319.5 90.1667,319.5 97.5,319.5C 84.4484,333.553 70.7817,346.886 56.5,359.5C 53.8957,354.625 51.5624,349.625 49.5,344.5C 58.1667,336.167 66.8333,327.833 75.5,319.5 Z"/></g>
<g><path style="opacity:0.997" fill="#9f31e5" d="M 97.5,319.5 C 105.167,319.5 112.833,319.5 120.5,319.5C 102.868,337.632 85.0351,355.632 67,373.5C 66.5357,374.094 66.369,374.761 66.5,375.5C 62.6802,370.539 59.3468,365.206 56.5,359.5C 70.7817,346.886 84.4484,333.553 97.5,319.5 Z"/></g>
<g><path style="opacity:1" fill="#9930e5" d="M 120.5,319.5 C 129.5,319.5 138.5,319.5 147.5,319.5C 137.167,330.167 126.833,340.833 116.5,351.5C 107.808,351.169 99.1411,351.502 90.5,352.5C 93.5263,357.184 96.5263,361.851 99.5,366.5C 92.1667,374.833 84.8333,383.167 77.5,391.5C 74.8644,388.69 72.3644,385.69 70,382.5C 68.295,380.423 67.1283,378.09 66.5,375.5C 66.369,374.761 66.5357,374.094 67,373.5C 85.0351,355.632 102.868,337.632 120.5,319.5 Z"/></g>
<g><path style="opacity:0.996" fill="#7f2ee8" d="M 215.5,319.5 C 224.5,319.5 233.5,319.5 242.5,319.5C 232.167,330.167 221.833,340.833 211.5,351.5C 208.102,351.18 204.768,351.513 201.5,352.5C 202.348,354.409 202.682,356.409 202.5,358.5C 194.555,368.113 185.889,377.113 176.5,385.5C 173.928,379.108 171.928,372.441 170.5,365.5C 185.473,350.193 200.473,334.86 215.5,319.5 Z"/></g>
<g><path style="opacity:1" fill="#752ee8" d="M 242.5,319.5 C 257.833,319.5 273.167,319.5 288.5,319.5C 278.167,330.167 267.833,340.833 257.5,351.5C 242.167,351.5 226.833,351.5 211.5,351.5C 221.833,340.833 232.167,330.167 242.5,319.5 Z"/></g>
<g><path style="opacity:0.989" fill="#592ceb" d="M 360.5,319.5 C 375.833,319.5 391.167,319.5 406.5,319.5C 396.167,330.167 385.833,340.833 375.5,351.5C 364.828,351.333 354.161,351.5 343.5,352C 342.185,356.407 341.185,360.907 340.5,365.5C 339.883,365.389 339.383,365.056 339,364.5C 321.965,381.702 304.799,398.702 287.5,415.5C 293.665,402.837 298.998,389.837 303.5,376.5C 322.833,357.833 341.833,338.833 360.5,319.5 Z"/></g>
<g><path style="opacity:0.989" fill="#3c2aee" d="M 472.5,314.5 C 447.5,394.833 394.833,447.5 314.5,472.5C 314.369,471.761 314.536,471.094 315,470.5C 367.083,417.916 419.583,365.916 472.5,314.5 Z"/></g>
<g><path style="opacity:0.987" fill="#542cec" d="M 340.5,365.5 C 337.926,376.814 334.592,387.814 330.5,398.5C 330.631,397.761 330.464,397.094 330,396.5C 302.298,424.035 274.798,451.701 247.5,479.5C 240.485,479.422 233.485,479.089 226.5,478.5C 226.369,477.761 226.536,477.094 227,476.5C 236.702,466.965 246.202,457.298 255.5,447.5C 264.385,445.139 271.551,440.139 277,432.5C 280.525,426.769 284.025,421.103 287.5,415.5C 304.799,398.702 321.965,381.702 339,364.5C 339.383,365.056 339.883,365.389 340.5,365.5 Z"/></g>
<g><path style="opacity:0.978" fill="#752ee8" d="M 202.5,358.5 C 205.991,370.78 209.658,383.114 213.5,395.5C 205.535,402.964 197.702,410.631 190,418.5C 189.329,417.748 188.496,417.414 187.5,417.5C 183.034,407.103 179.368,396.437 176.5,385.5C 185.889,377.113 194.555,368.113 202.5,358.5 Z"/></g>
<g><path style="opacity:0.985" fill="#8e30e6" d="M 99.5,366.5 C 106.094,375.101 113.094,383.435 120.5,391.5C 112.776,399.22 105.443,407.22 98.5,415.5C 90.5671,408.29 83.5671,400.29 77.5,391.5C 84.8333,383.167 92.1667,374.833 99.5,366.5 Z"/></g>
<g><path style="opacity:0.98" fill="#872ee7" d="M 120.5,391.5 C 124.192,394.862 127.859,398.195 131.5,401.5C 130.761,401.369 130.094,401.536 129.5,402C 121.906,409.089 114.906,416.589 108.5,424.5C 104.544,422.212 101.211,419.212 98.5,415.5C 105.443,407.22 112.776,399.22 120.5,391.5 Z"/></g>
<g><path style="opacity:0.992" fill="#4e2bec" d="M 330.5,398.5 C 326.541,411.701 321.208,424.367 314.5,436.5C 314.624,437.107 314.957,437.44 315.5,437.5C 301.752,452.25 287.418,466.25 272.5,479.5C 264.167,479.5 255.833,479.5 247.5,479.5C 274.798,451.701 302.298,424.035 330,396.5C 330.464,397.094 330.631,397.761 330.5,398.5 Z"/></g>
<g><path style="opacity:0.984" fill="#802ee8" d="M 131.5,401.5 C 136.833,405.5 142.167,409.5 147.5,413.5C 140.556,422.112 132.889,430.112 124.5,437.5C 118.562,433.894 113.229,429.561 108.5,424.5C 114.906,416.589 121.906,409.089 129.5,402C 130.094,401.536 130.761,401.369 131.5,401.5 Z"/></g>
<g><path style="opacity:0.989" fill="#692dea" d="M 213.5,395.5 C 218.559,405.951 223.893,416.284 229.5,426.5C 216.755,440.748 203.422,454.581 189.5,468C 188.207,468.49 186.873,468.657 185.5,468.5C 174.524,465.506 164.19,461.173 154.5,455.5C 161.777,446.887 169.443,438.553 177.5,430.5C 183.945,433.567 190.612,435.734 197.5,437C 194.026,430.552 190.693,424.052 187.5,417.5C 188.496,417.414 189.329,417.748 190,418.5C 197.702,410.631 205.535,402.964 213.5,395.5 Z"/></g>
<g><path style="opacity:0.973" fill="#752ee8" d="M 147.5,413.5 C 156.987,419.967 166.987,425.634 177.5,430.5C 169.443,438.553 161.777,446.887 154.5,455.5C 143.709,450.685 133.709,444.685 124.5,437.5C 132.889,430.112 140.556,422.112 147.5,413.5 Z"/></g>
<g><path style="opacity:0.982" fill="#5e2ceb" d="M 229.5,426.5 C 233.927,434.095 239.927,440.261 247.5,445C 250.202,445.84 252.868,446.673 255.5,447.5C 246.202,457.298 236.702,466.965 227,476.5C 226.536,477.094 226.369,477.761 226.5,478.5C 212.443,476.425 198.776,473.092 185.5,468.5C 186.873,468.657 188.207,468.49 189.5,468C 203.422,454.581 216.755,440.748 229.5,426.5 Z"/></g>
</svg>
