<?xml version="1.0" encoding="UTF-8"?>
<!DOCTYPE svg PUBLIC "-//W3C//DTD SVG 1.1//EN" "http://www.w3.org/Graphics/SVG/1.1/DTD/svg11.dtd">
<svg xmlns="http://www.w3.org/2000/svg" version="1.1" width="128px" height="128px" style="shape-rendering:geometricPrecision; text-rendering:geometricPrecision; image-rendering:optimizeQuality; fill-rule:evenodd; clip-rule:evenodd" xmlns:xlink="http://www.w3.org/1999/xlink">
<g><path style="opacity:0.99" fill="#d70f67" d="M 51.5,-0.5 C 54.1667,-0.5 56.8333,-0.5 59.5,-0.5C 81.8333,22.5 104.5,45.1667 127.5,67.5C 127.5,70.1667 127.5,72.8333 127.5,75.5C 127.167,75.5 126.833,75.5 126.5,75.5C 101.701,51.2016 77.0347,26.7016 52.5,2C 51.2625,1.76791 50.2625,1.26791 49.5,0.5C 50.4916,0.67158 51.1583,0.338246 51.5,-0.5 Z"/></g>
<g><path style="opacity:0.997" fill="#de0b64" d="M 59.5,-0.5 C 63.1667,-0.5 66.8333,-0.5 70.5,-0.5C 88.7983,18.2986 107.298,36.9653 126,55.5C 126.383,54.944 126.883,54.6107 127.5,54.5C 127.5,58.8333 127.5,63.1667 127.5,67.5C 104.5,45.1667 81.8333,22.5 59.5,-0.5 Z"/></g>
<g><path style="opacity:0.995" fill="#cf156b" d="M 49.5,0.5 C 50.2625,1.26791 51.2625,1.76791 52.5,2C 77.0347,26.7016 101.701,51.2016 126.5,75.5C 126.095,80.4564 124.762,85.1231 122.5,89.5C 108.229,74.7284 93.7291,60.0617 79,45.5C 78.79,43.9419 78.29,42.6085 77.5,41.5C 76.964,33.9642 72.964,29.6308 65.5,28.5C 64.0484,27.6981 62.3817,27.1981 60.5,27C 52.9642,19.6316 45.6308,12.1316 38.5,4.5C 41.8013,2.41552 45.468,1.08219 49.5,0.5 Z"/></g>
<g><path style="opacity:0.965" fill="#e80560" d="M 70.5,-0.5 C 72.1667,-0.5 73.8333,-0.5 75.5,-0.5C 103.14,6.47339 120.473,23.8067 127.5,51.5C 127.5,52.5 127.5,53.5 127.5,54.5C 126.883,54.6107 126.383,54.944 126,55.5C 107.298,36.9653 88.7983,18.2986 70.5,-0.5 Z"/></g>
<g><path style="opacity:0.994" fill="#c11e71" d="M 38.5,4.5 C 45.6308,12.1316 52.9642,19.6316 60.5,27C 62.3817,27.1981 64.0484,27.6981 65.5,28.5C 58.5963,27.7829 53.5963,30.4496 50.5,36.5C 41.5531,28.8898 32.8865,20.8898 24.5,12.5C 28.5392,8.81144 33.2058,6.14477 38.5,4.5 Z"/></g>
<g><path style="opacity:0.997" fill="#b42676" d="M 24.5,12.5 C 32.8865,20.8898 41.5531,28.8898 50.5,36.5C 48.3331,50.6651 54.3331,56.9985 68.5,55.5C 70.8333,58.1667 73.1667,60.8333 75.5,63.5C 68.8333,63.5 62.1667,63.5 55.5,63.5C 41.8333,49.5 28.1667,35.5 14.5,21.5C 17.2109,17.7881 20.5442,14.7881 24.5,12.5 Z"/></g>
<g><path style="opacity:0.999" fill="#a82c7a" d="M 14.5,21.5 C 28.1667,35.5 41.8333,49.5 55.5,63.5C 51.4338,63.307 47.4338,63.6403 43.5,64.5C 31.219,53.8869 19.5523,42.5535 8.5,30.5C 9.75889,26.9754 11.7589,23.9754 14.5,21.5 Z"/></g>
<g><path style="opacity:1" fill="#fefbfd" d="M 65.5,28.5 C 72.964,29.6308 76.964,33.9642 77.5,41.5C 77.5078,48.1614 74.5078,52.8281 68.5,55.5C 54.3331,56.9985 48.3331,50.6651 50.5,36.5C 53.5963,30.4496 58.5963,27.7829 65.5,28.5 Z"/></g>
<g><path style="opacity:0.992" fill="#9c3480" d="M 8.5,30.5 C 19.5523,42.5535 31.219,53.8869 43.5,64.5C 39.4167,66.6496 36.7501,69.983 35.5,74.5C 34.5489,75.9187 34.2155,77.5853 34.5,79.5C 23.5,68.8333 12.5,58.1667 1.5,47.5C 2.49491,41.1902 4.82824,35.5235 8.5,30.5 Z"/></g>
<g><path style="opacity:0.996" fill="#c41d70" d="M 77.5,41.5 C 78.29,42.6085 78.79,43.9419 79,45.5C 93.7291,60.0617 108.229,74.7284 122.5,89.5C 120.584,94.3386 117.918,98.6719 114.5,102.5C 107.5,94.8333 100.167,87.5 92.5,80.5C 92.7845,78.5853 92.4511,76.9187 91.5,75.5C 89.3756,67.391 84.0423,63.391 75.5,63.5C 73.1667,60.8333 70.8333,58.1667 68.5,55.5C 74.5078,52.8281 77.5078,48.1614 77.5,41.5 Z"/></g>
<g><path style="opacity:1" fill="#fefefe" d="M 55.5,63.5 C 62.1667,63.5 68.8333,63.5 75.5,63.5C 84.0423,63.391 89.3756,67.391 91.5,75.5C 91.5,83.1667 91.5,90.8333 91.5,98.5C 72.8333,98.5 54.1667,98.5 35.5,98.5C 35.5,90.5 35.5,82.5 35.5,74.5C 36.7501,69.983 39.4167,66.6496 43.5,64.5C 47.4338,63.6403 51.4338,63.307 55.5,63.5 Z"/></g>
<g><path style="opacity:0.917" fill="#7e458c" d="M 56.5,127.5 C 55.1667,127.5 53.8333,127.5 52.5,127.5C 24.1984,121.198 6.86504,103.865 0.5,75.5C 0.343323,74.1266 0.50999,72.7932 1,71.5C 19.7017,90.0347 38.2017,108.701 56.5,127.5 Z"/></g>
<g><path style="opacity:0.993" fill="#b42476" d="M 92.5,80.5 C 100.167,87.5 107.5,94.8333 114.5,102.5C 112.212,106.456 109.212,109.789 105.5,112.5C 101.202,108.704 97.0356,104.704 93,100.5C 92.5004,93.8417 92.3337,87.175 92.5,80.5 Z"/></g>
<g><path style="opacity:1" fill="#cb9cc1" d="M 35.5,74.5 C 35.5,82.5 35.5,90.5 35.5,98.5C 54.1667,98.5 72.8333,98.5 91.5,98.5C 87.03,99.4861 82.3633,99.8195 77.5,99.5C 73.5,99.5 69.5,99.5 65.5,99.5C 58.8333,99.5 52.1667,99.5 45.5,99.5C 41.8333,99.5 38.1667,99.5 34.5,99.5C 34.5,92.8333 34.5,86.1667 34.5,79.5C 34.2155,77.5853 34.5489,75.9187 35.5,74.5 Z"/></g>
<g><path style="opacity:0.992" fill="#8b3d86" d="M 1.5,47.5 C 12.5,58.1667 23.5,68.8333 34.5,79.5C 34.5,86.1667 34.5,92.8333 34.5,99.5C 38.1667,99.5 41.8333,99.5 45.5,99.5C 54.5,108.833 63.5,118.167 72.5,127.5C 67.1667,127.5 61.8333,127.5 56.5,127.5C 38.2017,108.701 19.7017,90.0347 1,71.5C 0.50999,72.7932 0.343323,74.1266 0.5,75.5C 0.166667,75.5 -0.166667,75.5 -0.5,75.5C -0.5,67.5 -0.5,59.5 -0.5,51.5C 0.166667,50.1667 0.833333,48.8333 1.5,47.5 Z"/></g>
<g><path style="opacity:0.986" fill="#973682" d="M 45.5,99.5 C 52.1667,99.5 58.8333,99.5 65.5,99.5C 72.8333,107.5 80.5,115.167 88.5,122.5C 84.0389,124.781 79.3723,126.447 74.5,127.5C 73.8333,127.5 73.1667,127.5 72.5,127.5C 63.5,118.167 54.5,108.833 45.5,99.5 Z"/></g>
<g><path style="opacity:0.982" fill="#a0307e" d="M 65.5,99.5 C 69.5,99.5 73.5,99.5 77.5,99.5C 83.5,106.167 89.8333,112.5 96.5,118.5C 94.1515,120.341 91.4848,121.674 88.5,122.5C 80.5,115.167 72.8333,107.5 65.5,99.5 Z"/></g>
<g><path style="opacity:0.987" fill="#ad337e" d="M 91.5,75.5 C 92.4511,76.9187 92.7845,78.5853 92.5,80.5C 92.3337,87.175 92.5004,93.8417 93,100.5C 97.0356,104.704 101.202,108.704 105.5,112.5C 103.025,115.241 100.025,117.241 96.5,118.5C 89.8333,112.5 83.5,106.167 77.5,99.5C 82.3633,99.8195 87.03,99.4861 91.5,98.5C 91.5,90.8333 91.5,83.1667 91.5,75.5 Z"/></g>
</svg>
