<?xml version="1.0" encoding="UTF-8"?>
<!DOCTYPE svg PUBLIC "-//W3C//DTD SVG 1.1//EN" "http://www.w3.org/Graphics/SVG/1.1/DTD/svg11.dtd">
<svg xmlns="http://www.w3.org/2000/svg" version="1.1" width="128px" height="128px" style="shape-rendering:geometricPrecision; text-rendering:geometricPrecision; image-rendering:optimizeQuality; fill-rule:evenodd; clip-rule:evenodd" xmlns:xlink="http://www.w3.org/1999/xlink">
<g><path style="opacity:0.997" fill="#041ead" d="M 51.5,-0.5 C 57.5,-0.5 63.5,-0.5 69.5,-0.5C 88.1154,19.7828 107.449,39.4495 127.5,58.5C 127.5,64.1667 127.5,69.8333 127.5,75.5C 126.36,78.3676 125.36,81.3676 124.5,84.5C 112.78,73.7809 101.78,62.4476 91.5,50.5C 93.795,47.7029 96.295,45.0362 99,42.5C 99.6667,40.8333 99.6667,39.1667 99,37.5C 95.5406,33.3612 91.5406,30.0279 87,27.5C 86.1667,27.6667 85.3333,27.8333 84.5,28C 81.9638,30.705 79.2971,33.205 76.5,35.5C 64.5524,25.2204 53.2191,14.2204 42.5,2.5C 45.6324,1.64002 48.6324,0.640024 51.5,-0.5 Z"/></g>
<g><path style="opacity:0.977" fill="#000a9f" d="M 69.5,-0.5 C 71.5,-0.5 73.5,-0.5 75.5,-0.5C 103.14,6.47339 120.473,23.8067 127.5,51.5C 127.5,53.8333 127.5,56.1667 127.5,58.5C 107.449,39.4495 88.1154,19.7828 69.5,-0.5 Z"/></g>
<g><path style="opacity:0.993" fill="#0033bb" d="M 42.5,2.5 C 53.2191,14.2204 64.5524,25.2204 76.5,35.5C 74.1667,38.5 71.5,41.1667 68.5,43.5C 56.253,32.7564 44.4197,21.423 33,9.5C 32.5357,8.90558 32.369,8.23891 32.5,7.5C 35.4841,5.3412 38.8174,3.67454 42.5,2.5 Z"/></g>
<g><path style="opacity:0.995" fill="#003fc3" d="M 32.5,7.5 C 32.369,8.23891 32.5357,8.90558 33,9.5C 44.4197,21.423 56.253,32.7564 68.5,43.5C 66.5,46.1667 64.1667,48.5 61.5,50.5C 48.2186,38.8864 35.5519,26.5531 23.5,13.5C 25.9505,10.7232 28.9505,8.72316 32.5,7.5 Z"/></g>
<g><path style="opacity:0.995" fill="#004bcb" d="M 23.5,13.5 C 35.5519,26.5531 48.2186,38.8864 61.5,50.5C 59.1667,53.5 56.5,56.1667 53.5,58.5C 40.4729,46.1396 27.8063,33.4729 15.5,20.5C 17.5691,17.4275 20.2358,15.0941 23.5,13.5 Z"/></g>
<g><path style="opacity:0.995" fill="#0054d1" d="M 15.5,20.5 C 27.8063,33.4729 40.4729,46.1396 53.5,58.5C 52.5,60.1667 51.1667,61.5 49.5,62.5C 36.4469,50.4481 24.1136,37.7814 12.5,24.5C 13.0256,22.7697 14.0256,21.4363 15.5,20.5 Z"/></g>
<g><path style="opacity:1" fill="#f6f8fd" d="M 91.5,50.5 C 88.5,52.8333 85.8333,55.5 83.5,58.5C 80.8333,60.5 78.5,62.8333 76.5,65.5C 73.8333,67.5 71.5,69.8333 69.5,72.5C 67.5,73.8333 65.8333,75.5 64.5,77.5C 61.8333,79.5 59.5,81.8333 57.5,84.5C 54.8333,86.5 52.5,88.8333 50.5,91.5C 49.5768,92.3029 48.5768,92.4696 47.5,92C 43.3333,87.8333 39.1667,83.6667 35,79.5C 34.5304,78.4232 34.6971,77.4232 35.5,76.5C 38.1667,74.5 40.5,72.1667 42.5,69.5C 45.1667,67.5 47.5,65.1667 49.5,62.5C 51.1667,61.5 52.5,60.1667 53.5,58.5C 56.5,56.1667 59.1667,53.5 61.5,50.5C 64.1667,48.5 66.5,46.1667 68.5,43.5C 71.5,41.1667 74.1667,38.5 76.5,35.5C 79.2971,33.205 81.9638,30.705 84.5,28C 85.3333,27.8333 86.1667,27.6667 87,27.5C 91.5406,30.0279 95.5406,33.3612 99,37.5C 99.6667,39.1667 99.6667,40.8333 99,42.5C 96.295,45.0362 93.795,47.7029 91.5,50.5 Z"/></g>
<g><path style="opacity:0.996" fill="#005ed8" d="M 12.5,24.5 C 24.1136,37.7814 36.4469,50.4481 49.5,62.5C 47.5,65.1667 45.1667,67.5 42.5,69.5C 30.7015,58.202 19.0349,46.702 7.5,35C 6.90558,34.5357 6.23891,34.369 5.5,34.5C 7.35352,30.7792 9.68685,27.4459 12.5,24.5 Z"/></g>
<g><path style="opacity:0.994" fill="#006be0" d="M 5.5,34.5 C 6.23891,34.369 6.90558,34.5357 7.5,35C 19.0349,46.702 30.7015,58.202 42.5,69.5C 40.5,72.1667 38.1667,74.5 35.5,76.5C 24.2534,66.757 13.4201,56.4237 3,45.5C 2.53566,44.9056 2.36899,44.2389 2.5,43.5C 3.21336,40.4061 4.21336,37.4061 5.5,34.5 Z"/></g>
<g><path style="opacity:1" fill="#133fbf" d="M 65.5,56.5 C 64.1667,56.5 63.5,55.8333 63.5,54.5C 70.9642,46.5351 78.6309,38.7017 86.5,31C 88.6667,30.5 89.5,31.3333 89,33.5C 81.2983,41.3691 73.4649,49.0358 65.5,56.5 Z"/></g>
<g><path style="opacity:0.992" fill="#0177e8" d="M 2.5,43.5 C 2.36899,44.2389 2.53566,44.9056 3,45.5C 13.4201,56.4237 24.2534,66.757 35.5,76.5C 34.6971,77.4232 34.5304,78.4232 35,79.5C 39.1667,83.6667 43.3333,87.8333 47.5,92C 48.5768,92.4696 49.5768,92.3029 50.5,91.5C 60.243,102.747 70.5763,113.58 81.5,124C 82.0944,124.464 82.7611,124.631 83.5,124.5C 80.5349,125.626 77.5349,126.626 74.5,127.5C 73.1667,127.5 71.8333,127.5 70.5,127.5C 46.8061,103.473 23.1394,79.4731 -0.5,55.5C -0.5,54.1667 -0.5,52.8333 -0.5,51.5C 0.5,48.8333 1.5,46.1667 2.5,43.5 Z"/></g>
<g><path style="opacity:0.991" fill="#0033bb" d="M 91.5,50.5 C 101.78,62.4476 112.78,73.7809 124.5,84.5C 123.088,88.3208 121.422,91.9874 119.5,95.5C 106.78,83.7813 94.7801,71.4479 83.5,58.5C 85.8333,55.5 88.5,52.8333 91.5,50.5 Z"/></g>
<g><path style="opacity:0.998" fill="#0080ee" d="M -0.5,55.5 C 23.1394,79.4731 46.8061,103.473 70.5,127.5C 67.5,127.5 64.5,127.5 61.5,127.5C 52.8333,118.5 44.1667,109.5 35.5,100.5C 37.288,100.785 38.9547,100.452 40.5,99.5C 40.3764,98.8933 40.0431,98.56 39.5,98.5C 36.1667,94.5 32.5,90.8333 28.5,87.5C 28.44,86.9569 28.1067,86.6236 27.5,86.5C 26.5481,88.0453 26.2148,89.712 26.5,91.5C 17.5,82.8333 8.5,74.1667 -0.5,65.5C -0.5,62.1667 -0.5,58.8333 -0.5,55.5 Z"/></g>
<g><path style="opacity:0.994" fill="#003fc3" d="M 83.5,58.5 C 94.7801,71.4479 106.78,83.7813 119.5,95.5C 117.975,98.563 115.975,101.23 113.5,103.5C 100.447,91.4481 88.1136,78.7814 76.5,65.5C 78.5,62.8333 80.8333,60.5 83.5,58.5 Z"/></g>
<g><path style="opacity:0.994" fill="#004bcb" d="M 76.5,65.5 C 88.1136,78.7814 100.447,91.4481 113.5,103.5C 111.906,106.764 109.573,109.431 106.5,111.5C 94.2015,99.702 82.0349,87.702 70,75.5C 69.5172,74.552 69.3505,73.552 69.5,72.5C 71.5,69.8333 73.8333,67.5 76.5,65.5 Z"/></g>
<g><path style="opacity:0.982" fill="#008af5" d="M -0.5,65.5 C 8.5,74.1667 17.5,82.8333 26.5,91.5C 26.5,94.5 26.5,97.5 26.5,100.5C 29.5,100.5 32.5,100.5 35.5,100.5C 44.1667,109.5 52.8333,118.5 61.5,127.5C 58.5,127.5 55.5,127.5 52.5,127.5C 49.4651,126.626 46.4651,125.626 43.5,124.5C 31.0353,111.535 18.3686,98.7015 5.5,86C 4.56323,85.3083 3.89657,85.475 3.5,86.5C 2.01312,82.8835 0.679783,79.2169 -0.5,75.5C -0.5,72.1667 -0.5,68.8333 -0.5,65.5 Z"/></g>
<g><path style="opacity:1" fill="#1567da" d="M 63.5,54.5 C 63.5,55.8333 64.1667,56.5 65.5,56.5C 58.0358,64.4649 50.3691,72.2983 42.5,80C 41.552,80.4828 40.552,80.6495 39.5,80.5C 39.3505,79.448 39.5172,78.448 40,77.5C 47.7017,69.6309 55.5351,61.9642 63.5,54.5 Z"/></g>
<g><path style="opacity:0.995" fill="#0054d1" d="M 69.5,72.5 C 69.3505,73.552 69.5172,74.552 70,75.5C 82.0349,87.702 94.2015,99.702 106.5,111.5C 105.564,112.974 104.23,113.974 102.5,114.5C 89.2186,102.886 76.5519,90.5531 64.5,77.5C 65.8333,75.5 67.5,73.8333 69.5,72.5 Z"/></g>
<g><path style="opacity:0.995" fill="#005ed8" d="M 64.5,77.5 C 76.5519,90.5531 89.2186,102.886 102.5,114.5C 99.8388,117.502 96.5055,119.502 92.5,120.5C 80.8333,108.5 69.1667,96.5 57.5,84.5C 59.5,81.8333 61.8333,79.5 64.5,77.5 Z"/></g>
<g><path style="opacity:0.955" fill="#0093fb" d="M 43.5,124.5 C 24.0021,118.336 10.6688,105.669 3.5,86.5C 3.89657,85.475 4.56323,85.3083 5.5,86C 18.3686,98.7015 31.0353,111.535 43.5,124.5 Z"/></g>
<g><path style="opacity:1" fill="#f2f7fe" d="M 28.5,87.5 C 32.5,90.8333 36.1667,94.5 39.5,98.5C 35.7016,99.4834 31.7016,99.8168 27.5,99.5C 27.1832,95.2984 27.5166,91.2984 28.5,87.5 Z"/></g>
<g><path style="opacity:0.994" fill="#006be0" d="M 57.5,84.5 C 69.1667,96.5 80.8333,108.5 92.5,120.5C 89.9122,122.625 86.9122,123.958 83.5,124.5C 82.7611,124.631 82.0944,124.464 81.5,124C 70.5763,113.58 60.243,102.747 50.5,91.5C 52.5,88.8333 54.8333,86.5 57.5,84.5 Z"/></g>
<g><path style="opacity:1" fill="#96ccf9" d="M 28.5,87.5 C 27.5166,91.2984 27.1832,95.2984 27.5,99.5C 31.7016,99.8168 35.7016,99.4834 39.5,98.5C 40.0431,98.56 40.3764,98.8933 40.5,99.5C 38.9547,100.452 37.288,100.785 35.5,100.5C 32.5,100.5 29.5,100.5 26.5,100.5C 26.5,97.5 26.5,94.5 26.5,91.5C 26.2148,89.712 26.5481,88.0453 27.5,86.5C 28.1067,86.6236 28.44,86.9569 28.5,87.5 Z"/></g>
</svg>
