<?xml version="1.0" encoding="UTF-8"?>
<!DOCTYPE svg PUBLIC "-//W3C//DTD SVG 1.1//EN" "http://www.w3.org/Graphics/SVG/1.1/DTD/svg11.dtd">
<svg xmlns="http://www.w3.org/2000/svg" version="1.1" width="128px" height="128px" style="shape-rendering:geometricPrecision; text-rendering:geometricPrecision; image-rendering:optimizeQuality; fill-rule:evenodd; clip-rule:evenodd" xmlns:xlink="http://www.w3.org/1999/xlink">
<g><path style="opacity:0.99" fill="#d70f67" d="M 51.5,-0.5 C 54.1667,-0.5 56.8333,-0.5 59.5,-0.5C 81.8333,22.5 104.5,45.1667 127.5,67.5C 127.5,70.1667 127.5,72.8333 127.5,75.5C 127.167,75.5 126.833,75.5 126.5,75.5C 101.701,51.2016 77.0347,26.7016 52.5,2C 51.2625,1.76791 50.2625,1.26791 49.5,0.5C 50.4916,0.67158 51.1583,0.338246 51.5,-0.5 Z"/></g>
<g><path style="opacity:0.997" fill="#de0b64" d="M 59.5,-0.5 C 63.1667,-0.5 66.8333,-0.5 70.5,-0.5C 88.7983,18.2986 107.298,36.9653 126,55.5C 126.383,54.944 126.883,54.6107 127.5,54.5C 127.5,58.8333 127.5,63.1667 127.5,67.5C 104.5,45.1667 81.8333,22.5 59.5,-0.5 Z"/></g>
<g><path style="opacity:0.986" fill="#e60661" d="M 70.5,-0.5 C 72.1667,-0.5 73.8333,-0.5 75.5,-0.5C 103.14,6.47339 120.473,23.8067 127.5,51.5C 127.5,52.5 127.5,53.5 127.5,54.5C 126.883,54.6107 126.383,54.944 126,55.5C 107.298,36.9653 88.7983,18.2986 70.5,-0.5 Z"/></g>
<g><path style="opacity:0.995" fill="#d0146a" d="M 49.5,0.5 C 50.2625,1.26791 51.2625,1.76791 52.5,2C 77.0347,26.7016 101.701,51.2016 126.5,75.5C 126.326,77.861 125.993,80.1944 125.5,82.5C 108.419,66.9209 91.7519,50.7543 75.5,34C 74.9056,33.5357 74.2389,33.369 73.5,33.5C 73.3893,32.8826 73.056,32.3826 72.5,32C 69.854,31.5026 67.1873,31.3359 64.5,31.5C 55.8333,22.5 47.1667,13.5 38.5,4.5C 41.8013,2.41552 45.468,1.08219 49.5,0.5 Z"/></g>
<g><path style="opacity:0.985" fill="#c61c6f" d="M 38.5,4.5 C 47.1667,13.5 55.8333,22.5 64.5,31.5C 60.5,31.5 56.5,31.5 52.5,31.5C 52.6621,29.4727 52.4955,27.4727 52,25.5C 50.6439,24.6198 49.1439,24.2865 47.5,24.5C 41.8333,19.1667 36.1667,13.8333 30.5,8.5C 32.6123,6.22946 35.279,4.89612 38.5,4.5 Z"/></g>
<g><path style="opacity:0.988" fill="#ba2173" d="M 30.5,8.5 C 36.1667,13.8333 41.8333,19.1667 47.5,24.5C 45.8325,26.4786 45.1658,28.812 45.5,31.5C 41.8333,31.5 38.1667,31.5 34.5,31.5C 29.8063,26.1396 24.8063,21.1396 19.5,16.5C 22.6012,13.0669 26.2679,10.4002 30.5,8.5 Z"/></g>
<g><path style="opacity:1" fill="#fdf9fb" d="M 47.5,24.5 C 49.1439,24.2865 50.6439,24.6198 52,25.5C 52.4955,27.4727 52.6621,29.4727 52.5,31.5C 56.5,31.5 60.5,31.5 64.5,31.5C 67.1873,31.3359 69.854,31.5026 72.5,32C 73.056,32.3826 73.3893,32.8826 73.5,33.5C 74.0838,36.285 73.0838,37.9517 70.5,38.5C 63.4926,37.4806 60.8259,40.4806 62.5,47.5C 61.1411,52.7202 58.8078,57.5536 55.5,62C 58.7195,64.5311 62.2195,66.6978 66,68.5C 66.4935,70.1341 66.6602,71.8008 66.5,73.5C 64.1667,73.5 61.8333,73.5 59.5,73.5C 56.1441,71.4007 52.6441,69.4007 49,67.5C 44.3985,71.2233 39.2318,73.39 33.5,74C 31.6751,72.5341 31.1751,70.7008 32,68.5C 33.6516,67.6006 35.1516,66.6006 36.5,65.5C 38.8421,65.4959 40.8421,64.6625 42.5,63C 38.6311,59.4662 35.1311,55.6328 32,51.5C 31.3603,49.735 31.5269,48.0683 32.5,46.5C 33.7382,45.5876 35.0715,45.4209 36.5,46C 39.9812,50.6482 43.9812,54.8148 48.5,58.5C 53.5795,52.8969 56.2461,46.2303 56.5,38.5C 46.4944,38.6665 36.4944,38.4998 26.5,38C 23.8333,36 23.8333,34 26.5,32C 29.146,31.5026 31.8127,31.3359 34.5,31.5C 38.1667,31.5 41.8333,31.5 45.5,31.5C 45.1658,28.812 45.8325,26.4786 47.5,24.5 Z"/></g>
<g><path style="opacity:0.997" fill="#a4307d" d="M 11.5,25.5 C 11.369,26.2389 11.5357,26.9056 12,27.5C 18.4228,34.4284 25.2562,40.7617 32.5,46.5C 31.5269,48.0683 31.3603,49.735 32,51.5C 35.1311,55.6328 38.6311,59.4662 42.5,63C 40.8421,64.6625 38.8421,65.4959 36.5,65.5C 35.7611,65.631 35.0944,65.4643 34.5,65C 24.965,55.2978 15.2984,45.7978 5.5,36.5C 6.7219,32.3881 8.7219,28.7214 11.5,25.5 Z"/></g>
<g><path style="opacity:0.995" fill="#cb196d" d="M 73.5,33.5 C 74.2389,33.369 74.9056,33.5357 75.5,34C 91.7519,50.7543 108.419,66.9209 125.5,82.5C 124.677,85.4802 123.343,88.1469 121.5,90.5C 103.782,73.7825 86.7816,56.4491 70.5,38.5C 73.0838,37.9517 74.0838,36.285 73.5,33.5 Z"/></g>
<g><path style="opacity:0.992" fill="#9d3681" d="M 5.5,36.5 C 15.2984,45.7978 24.965,55.2978 34.5,65C 35.0944,65.4643 35.7611,65.631 36.5,65.5C 35.1516,66.6006 33.6516,67.6006 32,68.5C 31.1751,70.7008 31.6751,72.5341 33.5,74C 39.2318,73.39 44.3985,71.2233 49,67.5C 52.6441,69.4007 56.1441,71.4007 59.5,73.5C 58.7611,73.369 58.0944,73.5357 57.5,74C 60.432,77.442 63.7653,80.2754 67.5,82.5C 65.6185,87.265 63.4518,91.9317 61,96.5C 59.4876,101.656 61.1542,103.323 66,101.5C 67.5,98.5 69,95.5 70.5,92.5C 77.656,91.1812 84.656,91.1812 91.5,92.5C 84.8002,92.17 78.1335,92.5033 71.5,93.5C 79.521,102.188 87.8543,110.521 96.5,118.5C 91.4459,122.19 85.7792,124.523 79.5,125.5C 53.8333,99.1667 27.8333,73.1667 1.5,47.5C 1.6667,43.3266 3.00003,39.6599 5.5,36.5 Z"/></g>
<g><path style="opacity:1" fill="#b22a79" d="M 19.5,16.5 C 24.8063,21.1396 29.8063,26.1396 34.5,31.5C 31.8127,31.3359 29.146,31.5026 26.5,32C 23.8333,34 23.8333,36 26.5,38C 36.4944,38.4998 46.4944,38.6665 56.5,38.5C 56.2461,46.2303 53.5795,52.8969 48.5,58.5C 43.9812,54.8148 39.9812,50.6482 36.5,46C 35.0715,45.4209 33.7382,45.5876 32.5,46.5C 25.2562,40.7617 18.4228,34.4284 12,27.5C 11.5357,26.9056 11.369,26.2389 11.5,25.5C 13.4528,21.8797 16.1195,18.8797 19.5,16.5 Z"/></g>
<g><path style="opacity:0.996" fill="#c22172" d="M 70.5,38.5 C 86.7816,56.4491 103.782,73.7825 121.5,90.5C 118.813,98.5256 114.146,105.192 107.5,110.5C 107.414,109.504 107.748,108.671 108.5,108C 105.882,105.894 103.882,103.394 102.5,100.5C 96.921,87.3372 90.7544,74.3372 84,61.5C 81.1019,59.9282 78.9352,60.5948 77.5,63.5C 72.2595,59.767 67.4262,55.4337 63,50.5C 62.5172,49.552 62.3505,48.552 62.5,47.5C 60.8259,40.4806 63.4926,37.4806 70.5,38.5 Z"/></g>
<g><path style="opacity:0.993" fill="#923984" d="M 1.5,47.5 C 27.8333,73.1667 53.8333,99.1667 79.5,125.5C 77.8333,126.167 76.1667,126.833 74.5,127.5C 73.8333,127.5 73.1667,127.5 72.5,127.5C 48.7833,102.783 24.45,78.7827 -0.5,55.5C -0.5,54.1667 -0.5,52.8333 -0.5,51.5C 0.166667,50.1667 0.833333,48.8333 1.5,47.5 Z"/></g>
<g><path style="opacity:0.994" fill="#8c3c86" d="M -0.5,55.5 C 24.45,78.7827 48.7833,102.783 72.5,127.5C 69.5,127.5 66.5,127.5 63.5,127.5C 42.5,105.833 21.1667,84.5 -0.5,63.5C -0.5,60.8333 -0.5,58.1667 -0.5,55.5 Z"/></g>
<g><path style="opacity:1" fill="#fdfbfc" d="M 102.5,100.5 C 101.162,102.113 99.4952,102.613 97.5,102C 95.3503,98.8533 93.3503,95.6867 91.5,92.5C 84.656,91.1812 77.656,91.1812 70.5,92.5C 69,95.5 67.5,98.5 66,101.5C 61.1542,103.323 59.4876,101.656 61,96.5C 63.4518,91.9317 65.6185,87.265 67.5,82.5C 71.0718,76.3592 74.4051,70.0259 77.5,63.5C 78.9352,60.5948 81.1019,59.9282 84,61.5C 90.7544,74.3372 96.921,87.3372 102.5,100.5 Z"/></g>
<g><path style="opacity:0.995" fill="#873f88" d="M -0.5,63.5 C 21.1667,84.5 42.5,105.833 63.5,127.5C 61.1667,127.5 58.8333,127.5 56.5,127.5C 38.2017,108.701 19.7017,90.0347 1,71.5C 0.50999,72.7932 0.343323,74.1266 0.5,75.5C 0.166667,75.5 -0.166667,75.5 -0.5,75.5C -0.5,71.5 -0.5,67.5 -0.5,63.5 Z"/></g>
<g><path style="opacity:1" fill="#b4327c" d="M 62.5,47.5 C 62.3505,48.552 62.5172,49.552 63,50.5C 67.4262,55.4337 72.2595,59.767 77.5,63.5C 74.4051,70.0259 71.0718,76.3592 67.5,82.5C 63.7653,80.2754 60.432,77.442 57.5,74C 58.0944,73.5357 58.7611,73.369 59.5,73.5C 61.8333,73.5 64.1667,73.5 66.5,73.5C 66.6602,71.8008 66.4935,70.1341 66,68.5C 62.2195,66.6978 58.7195,64.5311 55.5,62C 58.8078,57.5536 61.1411,52.7202 62.5,47.5 Z"/></g>
<g><path style="opacity:0.985" fill="#80448b" d="M 56.5,127.5 C 55.1667,127.5 53.8333,127.5 52.5,127.5C 24.1984,121.198 6.86504,103.865 0.5,75.5C 0.343323,74.1266 0.50999,72.7932 1,71.5C 19.7017,90.0347 38.2017,108.701 56.5,127.5 Z"/></g>
<g><path style="opacity:1" fill="#b6307b" d="M 80.5,72.5 C 83.5575,75.5935 85.8909,79.2601 87.5,83.5C 83.5546,84.4909 79.5546,84.8242 75.5,84.5C 76.6109,80.2769 78.2776,76.2769 80.5,72.5 Z"/></g>
<g><path style="opacity:0.992" fill="#ab2b7a" d="M 91.5,92.5 C 93.3503,95.6867 95.3503,98.8533 97.5,102C 99.4952,102.613 101.162,102.113 102.5,100.5C 103.882,103.394 105.882,105.894 108.5,108C 107.748,108.671 107.414,109.504 107.5,110.5C 104.399,113.933 100.732,116.6 96.5,118.5C 87.8543,110.521 79.521,102.188 71.5,93.5C 78.1335,92.5033 84.8002,92.17 91.5,92.5 Z"/></g>
</svg>
