<?xml version="1.0" encoding="UTF-8"?>
<!DOCTYPE svg PUBLIC "-//W3C//DTD SVG 1.1//EN" "http://www.w3.org/Graphics/SVG/1.1/DTD/svg11.dtd">
<svg xmlns="http://www.w3.org/2000/svg" version="1.1" width="512px" height="512px" style="shape-rendering:geometricPrecision; text-rendering:geometricPrecision; image-rendering:optimizeQuality; fill-rule:evenodd; clip-rule:evenodd" xmlns:xlink="http://www.w3.org/1999/xlink">
<g><path style="opacity:0.98" fill="#ca32e1" d="M 244.5,31.5 C 227.167,49.5 209.5,67.1667 191.5,84.5C 190.607,57.1003 203.274,39.6003 229.5,32C 234.489,31.5007 239.489,31.3341 244.5,31.5 Z"/></g>
<g><path style="opacity:0.994" fill="#c432e1" d="M 244.5,31.5 C 252.167,31.5 259.833,31.5 267.5,31.5C 257.369,42.1317 247.035,52.6317 236.5,63C 237.056,63.3826 237.389,63.8826 237.5,64.5C 229.344,66.3203 224.677,71.3203 223.5,79.5C 223.649,78.448 223.483,77.448 223,76.5C 205.965,93.3681 189.132,110.368 172.5,127.5C 168.5,124.167 164.833,120.5 161.5,116.5C 168.443,108.22 175.776,100.22 183.5,92.5C 184.815,93.4756 186.148,94.4756 187.5,95.5C 188.736,94.7542 190.07,94.4208 191.5,94.5C 191.5,91.1667 191.5,87.8333 191.5,84.5C 209.5,67.1667 227.167,49.5 244.5,31.5 Z"/></g>
<g><path style="opacity:0.995" fill="#be32e2" d="M 267.5,31.5 C 272.179,31.3342 276.845,31.5008 281.5,32C 284.104,32.3903 286.438,33.2237 288.5,34.5C 278.5,43.8333 268.833,53.5 259.5,63.5C 252.11,63.2363 244.777,63.5696 237.5,64.5C 237.389,63.8826 237.056,63.3826 236.5,63C 247.035,52.6317 257.369,42.1317 267.5,31.5 Z"/></g>
<g><path style="opacity:0.986" fill="#b831e2" d="M 288.5,34.5 C 294.305,36.2325 299.305,39.2325 303.5,43.5C 302.761,43.369 302.094,43.5357 301.5,44C 293.906,51.0888 286.906,58.5888 280.5,66.5C 273.759,64.0189 266.759,63.0189 259.5,63.5C 268.833,53.5 278.5,43.8333 288.5,34.5 Z"/></g>
<g><path style="opacity:0.986" fill="#b232e3" d="M 303.5,43.5 C 308.603,47.0385 312.269,51.7052 314.5,57.5C 305.5,66.1667 296.5,74.8333 287.5,83.5C 287.683,76.6969 285.35,71.0303 280.5,66.5C 286.906,58.5888 293.906,51.0888 301.5,44C 302.094,43.5357 302.761,43.369 303.5,43.5 Z"/></g>
<g><path style="opacity:0.991" fill="#ab31e4" d="M 314.5,57.5 C 317.704,62.9716 319.371,68.9716 319.5,75.5C 308.833,85.8333 298.167,96.1667 287.5,106.5C 287.5,98.8333 287.5,91.1667 287.5,83.5C 296.5,74.8333 305.5,66.1667 314.5,57.5 Z"/></g>
<g><path style="opacity:0.992" fill="#d734df" d="M 153.5,72.5 C 127.202,99.2987 100.702,125.965 74,152.5C 73.5172,153.448 73.3505,154.448 73.5,155.5C 70.8333,146.833 70.8333,138.167 73.5,129.5C 92.5,111.167 111.167,92.5 129.5,73.5C 137.287,71.2659 145.287,70.9325 153.5,72.5 Z"/></g>
<g><path style="opacity:0.98" fill="#9f31e5" d="M 370.5,71.5 C 351.615,88.8818 333.115,106.882 315,125.5C 314.536,126.094 314.369,126.761 314.5,127.5C 308.436,124.798 302.436,122.131 296.5,119.5C 305.447,111.89 314.114,103.89 322.5,95.5C 329.315,89.5244 336.315,83.6911 343.5,78C 351.87,73.226 360.87,71.0593 370.5,71.5 Z"/></g>
<g><path style="opacity:0.986" fill="#9930e5" d="M 370.5,71.5 C 377.576,71.6471 384.242,73.3138 390.5,76.5C 381.5,85.8333 372.5,95.1667 363.5,104.5C 354.063,112.765 344.73,121.265 335.5,130C 331.259,131.457 326.926,131.791 322.5,131C 319.929,129.546 317.262,128.38 314.5,127.5C 314.369,126.761 314.536,126.094 315,125.5C 333.115,106.882 351.615,88.8818 370.5,71.5 Z"/></g>
<g><path style="opacity:0.989" fill="#d133e0" d="M 153.5,72.5 C 158.654,73.5452 163.321,75.5452 167.5,78.5C 160.153,87.526 151.819,96.1927 142.5,104.5C 139.206,104.259 136.206,105.092 133.5,107C 123.266,116.564 113.766,126.731 105,137.5C 104.503,140.146 104.336,142.813 104.5,145.5C 95.7776,153.221 87.7776,161.554 80.5,170.5C 76.8478,166.192 74.5144,161.192 73.5,155.5C 73.3505,154.448 73.5172,153.448 74,152.5C 100.702,125.965 127.202,99.2987 153.5,72.5 Z"/></g>
<g><path style="opacity:0.92" fill="#db33de" d="M 129.5,73.5 C 111.167,92.5 92.5,111.167 73.5,129.5C 74.9833,122.866 77.8167,116.866 82,111.5C 91.8333,101.667 101.667,91.8333 111.5,82C 116.866,77.8167 122.866,74.9833 129.5,73.5 Z"/></g>
<g><path style="opacity:0.994" fill="#a631e4" d="M 319.5,75.5 C 319.5,81.8333 319.5,88.1667 319.5,94.5C 320.791,94.2627 321.791,94.596 322.5,95.5C 314.114,103.89 305.447,111.89 296.5,119.5C 292.246,118.415 289.413,115.748 288,111.5C 287.506,109.866 287.34,108.199 287.5,106.5C 298.167,96.1667 308.833,85.8333 319.5,75.5 Z"/></g>
<g><path style="opacity:0.995" fill="#be32e2" d="M 223.5,79.5 C 223.667,90.1719 223.5,100.839 223,111.5C 221.623,113.754 220.123,115.92 218.5,118C 208.418,122.139 198.418,126.472 188.5,131C 185.167,131.667 181.833,131.667 178.5,131C 175.975,130.576 173.975,129.41 172.5,127.5C 189.132,110.368 205.965,93.3681 223,76.5C 223.483,77.448 223.649,78.448 223.5,79.5 Z"/></g>
<g><path style="opacity:0.979" fill="#922fe6" d="M 390.5,76.5 C 395.774,78.634 400.107,81.9673 403.5,86.5C 395.776,94.2203 388.443,102.22 381.5,110.5C 376.702,105.139 370.702,103.139 363.5,104.5C 372.5,95.1667 381.5,85.8333 390.5,76.5 Z"/></g>
<g><path style="opacity:0.981" fill="#cb33e1" d="M 167.5,78.5 C 173.747,82.0776 179.08,86.7442 183.5,92.5C 175.776,100.22 168.443,108.22 161.5,116.5C 157.668,112.836 153.668,109.336 149.5,106C 147.323,104.798 144.989,104.298 142.5,104.5C 151.819,96.1927 160.153,87.526 167.5,78.5 Z"/></g>
<g><path style="opacity:0.984" fill="#8c2fe6" d="M 403.5,86.5 C 407.5,89.8333 411.167,93.5 414.5,97.5C 407.167,105.5 399.5,113.167 391.5,120.5C 387.833,117.5 384.5,114.167 381.5,110.5C 388.443,102.22 395.776,94.2203 403.5,86.5 Z"/></g>
<g><path style="opacity:0.967" fill="#862ee7" d="M 414.5,97.5 C 418.833,101.167 422.833,105.167 426.5,109.5C 418.5,116.833 410.833,124.5 403.5,132.5C 399.167,128.833 395.167,124.833 391.5,120.5C 399.5,113.167 407.167,105.5 414.5,97.5 Z"/></g>
<g><path style="opacity:0.976" fill="#7f2ee8" d="M 426.5,109.5 C 431.612,114.049 434.946,119.716 436.5,126.5C 417.5,145.167 398.5,163.833 379.5,182.5C 379.259,179.206 380.092,176.206 382,173.5C 390.736,165.434 398.736,156.767 406,147.5C 407.132,142.116 406.298,137.116 403.5,132.5C 410.833,124.5 418.5,116.833 426.5,109.5 Z"/></g>
<g><path style="opacity:0.99" fill="#792ee8" d="M 436.5,126.5 C 439.034,132.798 440.034,139.464 439.5,146.5C 421.5,164.167 403.5,181.833 385.5,199.5C 382.109,194.373 380.109,188.706 379.5,182.5C 398.5,163.833 417.5,145.167 436.5,126.5 Z"/></g>
<g><path style="opacity:0.987" fill="#cb33e1" d="M 104.5,145.5 C 105.128,148.09 106.295,150.423 108,152.5C 110.705,155.036 113.205,157.703 115.5,160.5C 107.776,168.22 100.443,176.22 93.5,184.5C 88.46,180.461 84.1266,175.794 80.5,170.5C 87.7776,161.554 95.7776,153.221 104.5,145.5 Z"/></g>
<g><path style="opacity:0.979" fill="#732de9" d="M 439.5,146.5 C 438.651,156.55 435.151,165.55 429,173.5C 424.667,177.833 420.333,182.167 416,186.5C 416.019,188.107 416.185,189.774 416.5,191.5C 408.5,199.833 400.5,208.167 392.5,216.5C 389.6,211.152 387.267,205.485 385.5,199.5C 403.5,181.833 421.5,164.167 439.5,146.5 Z"/></g>
<g><path style="opacity:0.996" fill="#c432e1" d="M 115.5,160.5 C 119.833,164.167 123.833,168.167 127.5,172.5C 110.368,189.132 93.3681,205.965 76.5,223C 77.056,223.383 77.3893,223.883 77.5,224.5C 71.039,225.626 66.7057,229.293 64.5,235.5C 53.5,246.167 42.5,256.833 31.5,267.5C 31.5,259.833 31.5,252.167 31.5,244.5C 49.5,227.167 67.1667,209.5 84.5,191.5C 87.8333,191.5 91.1667,191.5 94.5,191.5C 94.4208,190.07 94.7542,188.736 95.5,187.5C 94.8075,186.482 94.1408,185.482 93.5,184.5C 100.443,176.22 107.776,168.22 115.5,160.5 Z"/></g>
<g><path style="opacity:0.993" fill="#be32e2" d="M 127.5,172.5 C 129.136,173.749 130.303,175.416 131,177.5C 131.667,181.167 131.667,184.833 131,188.5C 126.472,198.418 122.139,208.418 118,218.5C 115.92,220.123 113.754,221.623 111.5,223C 100.121,223.209 88.7879,223.709 77.5,224.5C 77.3893,223.883 77.056,223.383 76.5,223C 93.3681,205.965 110.368,189.132 127.5,172.5 Z"/></g>
<g><path style="opacity:0.994" fill="#9f31e4" d="M 263.5,175.5 C 263.631,176.239 263.464,176.906 263,177.5C 233.965,206.368 205.132,235.368 176.5,264.5C 175.326,256.653 175.326,248.653 176.5,240.5C 198.167,219.5 219.5,198.167 240.5,176.5C 248.111,175.566 255.778,175.233 263.5,175.5 Z"/></g>
<g><path style="opacity:0.977" fill="#9930e5" d="M 263.5,175.5 C 271.632,176.115 279.299,178.115 286.5,181.5C 277.085,190.921 267.418,199.921 257.5,208.5C 235.071,208.463 219.571,218.796 211,239.5C 209.058,246.028 208.225,252.695 208.5,259.5C 199.78,268.223 190.78,276.556 181.5,284.5C 178.291,278.33 176.624,271.663 176.5,264.5C 205.132,235.368 233.965,206.368 263,177.5C 263.464,176.906 263.631,176.239 263.5,175.5 Z"/></g>
<g><path style="opacity:0.975" fill="#a431e4" d="M 240.5,176.5 C 219.5,198.167 198.167,219.5 176.5,240.5C 184.843,206.157 206.176,184.824 240.5,176.5 Z"/></g>
<g><path style="opacity:0.981" fill="#922fe6" d="M 286.5,181.5 C 291.827,183.159 296.493,185.826 300.5,189.5C 293.112,197.889 285.112,205.556 276.5,212.5C 270.428,209.92 264.095,208.587 257.5,208.5C 267.418,199.921 277.085,190.921 286.5,181.5 Z"/></g>
<g><path style="opacity:0.982" fill="#8c30e6" d="M 300.5,189.5 C 305.381,191.709 309.381,195.043 312.5,199.5C 304.776,207.22 297.443,215.22 290.5,223.5C 286.383,219.04 281.716,215.373 276.5,212.5C 285.112,205.556 293.112,197.889 300.5,189.5 Z"/></g>
<g><path style="opacity:0.98" fill="#ca32e1" d="M 84.5,191.5 C 67.1667,209.5 49.5,227.167 31.5,244.5C 30.6069,217.1 43.2736,199.6 69.5,192C 74.4889,191.501 79.4889,191.334 84.5,191.5 Z"/></g>
<g><path style="opacity:0.99" fill="#6d2ee9" d="M 416.5,191.5 C 425.017,191.174 433.35,191.507 441.5,192.5C 440.448,192.351 439.448,192.517 438.5,193C 428.298,203.035 418.298,213.202 408.5,223.5C 401.32,224.902 395.987,222.569 392.5,216.5C 400.5,208.167 408.5,199.833 416.5,191.5 Z"/></g>
<g><path style="opacity:0.991" fill="#672dea" d="M 441.5,192.5 C 447.779,193.477 453.446,195.81 458.5,199.5C 449.807,207.861 441.14,216.194 432.5,224.5C 424.586,223.533 416.586,223.199 408.5,223.5C 418.298,213.202 428.298,203.035 438.5,193C 439.448,192.517 440.448,192.351 441.5,192.5 Z"/></g>
<g><path style="opacity:0.982" fill="#872fe7" d="M 312.5,199.5 C 316.869,203.237 320.535,207.57 323.5,212.5C 315.167,220.5 306.833,228.5 298.5,236.5C 296.599,231.698 293.932,227.364 290.5,223.5C 297.443,215.22 304.776,207.22 312.5,199.5 Z"/></g>
<g><path style="opacity:0.991" fill="#5c2ceb" d="M 458.5,199.5 C 468.323,206.138 474.989,215.138 478.5,226.5C 477.761,226.369 477.094,226.536 476.5,227C 466.965,236.702 457.298,246.202 447.5,255.5C 447.991,247.344 447.158,239.344 445,231.5C 442.125,226.778 437.958,224.445 432.5,224.5C 441.14,216.194 449.807,207.861 458.5,199.5 Z"/></g>
<g><path style="opacity:0.985" fill="#802fe8" d="M 323.5,212.5 C 327.128,218.044 329.795,224.044 331.5,230.5C 322.194,240.473 312.527,250.14 302.5,259.5C 302.96,251.472 301.627,243.806 298.5,236.5C 306.833,228.5 315.167,220.5 323.5,212.5 Z"/></g>
<g><path style="opacity:0.994" fill="#542cec" d="M 478.5,226.5 C 479.386,233.457 479.72,240.457 479.5,247.5C 468.535,257.965 457.702,268.631 447,279.5C 446.617,278.944 446.117,278.611 445.5,278.5C 447.202,270.951 447.868,263.285 447.5,255.5C 457.298,246.202 466.965,236.702 476.5,227C 477.094,226.536 477.761,226.369 478.5,226.5 Z"/></g>
<g><path style="opacity:0.979" fill="#782ee8" d="M 331.5,230.5 C 333.849,236.928 335.182,243.595 335.5,250.5C 306.783,278.216 278.783,306.55 251.5,335.5C 243.86,334.841 236.526,333.174 229.5,330.5C 230.552,330.649 231.552,330.483 232.5,330C 241.702,320.965 250.702,311.798 259.5,302.5C 284.117,298.549 298.451,284.216 302.5,259.5C 312.527,250.14 322.194,240.473 331.5,230.5 Z"/></g>
<g><path style="opacity:0.994" fill="#be32e1" d="M 64.5,235.5 C 63.6351,243.466 63.3018,251.466 63.5,259.5C 53.7809,269.222 43.7809,278.555 33.5,287.5C 31.7944,280.967 31.1277,274.3 31.5,267.5C 42.5,256.833 53.5,246.167 64.5,235.5 Z"/></g>
<g><path style="opacity:0.998" fill="#4d2bec" d="M 479.5,247.5 C 479.667,258.838 479.5,270.172 479,281.5C 473.833,301.333 461.333,313.833 441.5,319C 433.173,319.5 424.84,319.666 416.5,319.5C 416.579,320.93 416.246,322.264 415.5,323.5C 417.856,326.186 420.189,328.853 422.5,331.5C 414.473,338.86 406.806,346.527 399.5,354.5C 394.5,350.167 389.833,345.5 385.5,340.5C 404.84,322.167 423.173,303.5 440.5,284.5C 442.167,282.5 443.833,280.5 445.5,278.5C 446.117,278.611 446.617,278.944 447,279.5C 457.702,268.631 468.535,257.965 479.5,247.5 Z"/></g>
<g><path style="opacity:0.99" fill="#722ee9" d="M 335.5,250.5 C 335.725,288.099 318.725,314.599 284.5,330C 273.814,333.688 262.814,335.521 251.5,335.5C 278.783,306.55 306.783,278.216 335.5,250.5 Z"/></g>
<g><path style="opacity:0.988" fill="#b832e2" d="M 63.5,259.5 C 63.0189,266.759 64.0189,273.759 66.5,280.5C 65.7611,280.369 65.0944,280.536 64.5,281C 56.9061,288.089 49.9061,295.589 43.5,303.5C 39.1798,298.876 35.8465,293.543 33.5,287.5C 43.7809,278.555 53.7809,269.222 63.5,259.5 Z"/></g>
<g><path style="opacity:0.985" fill="#932fe6" d="M 208.5,259.5 C 209.523,264.925 210.856,270.258 212.5,275.5C 212.649,276.552 212.483,277.552 212,278.5C 204.632,286.036 197.132,293.369 189.5,300.5C 185.776,295.718 183.109,290.385 181.5,284.5C 190.78,276.556 199.78,268.223 208.5,259.5 Z"/></g>
<g><path style="opacity:0.984" fill="#8c2fe7" d="M 212.5,275.5 C 215.413,280.422 218.746,285.088 222.5,289.5C 215.445,297.556 207.779,304.89 199.5,311.5C 195.456,308.457 192.123,304.791 189.5,300.5C 197.132,293.369 204.632,286.036 212,278.5C 212.483,277.552 212.649,276.552 212.5,275.5 Z"/></g>
<g><path style="opacity:0.985" fill="#b232e3" d="M 66.5,280.5 C 71.0303,285.35 76.6969,287.683 83.5,287.5C 75.1131,296.889 66.1131,305.555 56.5,313.5C 51.0212,311.692 46.6879,308.358 43.5,303.5C 49.9061,295.589 56.9061,288.089 64.5,281C 65.0944,280.536 65.7611,280.369 66.5,280.5 Z"/></g>
<g><path style="opacity:0.992" fill="#552cec" d="M 440.5,284.5 C 423.173,303.5 404.84,322.167 385.5,340.5C 379.851,335.828 378.018,329.828 380,322.5C 384.528,312.582 388.861,302.582 393,292.5C 395.08,290.877 397.246,289.377 399.5,288C 410.167,287.667 420.833,287.333 431.5,287C 434.657,286.604 437.657,285.771 440.5,284.5 Z"/></g>
<g><path style="opacity:0.992" fill="#ab31e4" d="M 83.5,287.5 C 91.1667,287.5 98.8333,287.5 106.5,287.5C 96.1667,298.167 85.8333,308.833 75.5,319.5C 68.4491,319.482 62.1158,317.482 56.5,313.5C 66.1131,305.555 75.1131,296.889 83.5,287.5 Z"/></g>
<g><path style="opacity:0.993" fill="#a530e4" d="M 106.5,287.5 C 110.331,287.249 113.664,288.416 116.5,291C 118.16,292.488 119.16,294.321 119.5,296.5C 111.89,305.447 103.89,314.114 95.5,322.5C 94.596,321.791 94.2627,320.791 94.5,319.5C 88.1667,319.5 81.8333,319.5 75.5,319.5C 85.8333,308.833 96.1667,298.167 106.5,287.5 Z"/></g>
<g><path style="opacity:0.985" fill="#872fe7" d="M 222.5,289.5 C 226.508,292.17 230.508,294.836 234.5,297.5C 226.167,305.167 218.167,313.167 210.5,321.5C 206.209,318.877 202.543,315.544 199.5,311.5C 207.779,304.89 215.445,297.556 222.5,289.5 Z"/></g>
<g><path style="opacity:0.98" fill="#9f31e5" d="M 119.5,296.5 C 122.131,302.436 124.798,308.436 127.5,314.5C 126.761,314.369 126.094,314.536 125.5,315C 107.632,333.035 89.6319,350.868 71.5,368.5C 71.3214,359.56 73.4881,351.227 78,343.5C 83.6911,336.315 89.5244,329.315 95.5,322.5C 103.89,314.114 111.89,305.447 119.5,296.5 Z"/></g>
<g><path style="opacity:0.985" fill="#802ee8" d="M 234.5,297.5 C 242.485,300.776 250.819,302.443 259.5,302.5C 250.702,311.798 241.702,320.965 232.5,330C 231.552,330.483 230.552,330.649 229.5,330.5C 222.779,328.306 216.446,325.306 210.5,321.5C 218.167,313.167 226.167,305.167 234.5,297.5 Z"/></g>
<g><path style="opacity:0.986" fill="#9930e5" d="M 127.5,314.5 C 128.38,317.262 129.546,319.929 131,322.5C 132.068,327.768 131.401,332.768 129,337.5C 120.235,345.76 112.068,354.427 104.5,363.5C 95.1667,372.5 85.8333,381.5 76.5,390.5C 73.0534,383.605 71.3867,376.271 71.5,368.5C 89.6319,350.868 107.632,333.035 125.5,315C 126.094,314.536 126.761,314.369 127.5,314.5 Z"/></g>
<g><path style="opacity:0.982" fill="#452ced" d="M 422.5,331.5 C 428.679,336.684 433.345,343.018 436.5,350.5C 407.584,377.915 379.084,405.915 351,434.5C 350.536,435.094 350.369,435.761 350.5,436.5C 343.018,433.345 336.684,428.679 331.5,422.5C 339.224,414.78 346.557,406.78 353.5,398.5C 356.39,401.553 359.724,404.053 363.5,406C 368.44,407.041 373.106,406.374 377.5,404C 387.734,394.436 397.234,384.269 406,373.5C 406.667,370.167 406.667,366.833 406,363.5C 404.314,360.117 402.147,357.117 399.5,354.5C 406.806,346.527 414.473,338.86 422.5,331.5 Z"/></g>
<g><path style="opacity:0.99" fill="#3c2bee" d="M 436.5,350.5 C 442.379,368.152 439.879,384.485 429,399.5C 419.167,409.333 409.333,419.167 399.5,429C 384.485,439.879 368.152,442.379 350.5,436.5C 350.369,435.761 350.536,435.094 351,434.5C 379.084,405.915 407.584,377.915 436.5,350.5 Z"/></g>
<g><path style="opacity:0.977" fill="#922fe5" d="M 104.5,363.5 C 103.139,370.702 105.139,376.702 110.5,381.5C 102.22,388.443 94.2203,395.776 86.5,403.5C 82.432,399.761 79.0986,395.428 76.5,390.5C 85.8333,381.5 95.1667,372.5 104.5,363.5 Z"/></g>
<g><path style="opacity:0.99" fill="#792ee8" d="M 181.5,379.5 C 188.112,379.813 194.112,381.813 199.5,385.5C 181.833,403.5 164.167,421.5 146.5,439.5C 139.464,440.034 132.798,439.034 126.5,436.5C 144.465,418.035 162.632,399.701 181,381.5C 181.464,380.906 181.631,380.239 181.5,379.5 Z"/></g>
<g><path style="opacity:0.993" fill="#552cec" d="M 340.5,385.5 C 322.868,403.632 305.035,421.632 287,439.5C 286.617,438.944 286.117,438.611 285.5,438.5C 286.06,436.199 286.56,433.866 287,431.5C 287.333,420.833 287.667,410.167 288,399.5C 289.377,397.246 290.877,395.08 292.5,393C 302.582,388.861 312.582,384.528 322.5,380C 329.828,378.018 335.828,379.851 340.5,385.5 Z"/></g>
<g><path style="opacity:0.973" fill="#7f2ee8" d="M 181.5,379.5 C 181.631,380.239 181.464,380.906 181,381.5C 162.632,399.701 144.465,418.035 126.5,436.5C 119.716,434.946 114.049,431.612 109.5,426.5C 116.833,418.5 124.5,410.833 132.5,403.5C 139.291,407.653 145.957,407.487 152.5,403C 159.5,396 166.5,389 173.5,382C 175.909,380.293 178.575,379.46 181.5,379.5 Z"/></g>
<g><path style="opacity:0.981" fill="#8c2fe6" d="M 110.5,381.5 C 114.167,384.5 117.5,387.833 120.5,391.5C 113.167,399.5 105.5,407.167 97.5,414.5C 93.5,411.167 89.8333,407.5 86.5,403.5C 94.2203,395.776 102.22,388.443 110.5,381.5 Z"/></g>
<g><path style="opacity:0.982" fill="#732ee9" d="M 199.5,385.5 C 205.485,387.267 211.152,389.6 216.5,392.5C 208.167,400.5 199.833,408.5 191.5,416.5C 189.774,416.185 188.107,416.019 186.5,416C 178.381,426.55 168.048,433.884 155.5,438C 152.522,438.696 149.522,439.196 146.5,439.5C 164.167,421.5 181.833,403.5 199.5,385.5 Z"/></g>
<g><path style="opacity:0.997" fill="#4d2cec" d="M 340.5,385.5 C 345.167,389.5 349.5,393.833 353.5,398.5C 346.557,406.78 339.224,414.78 331.5,422.5C 329.037,420.539 326.703,418.372 324.5,416C 322.893,416.019 321.226,416.185 319.5,416.5C 323.35,437.784 317.35,455.617 301.5,470C 295.328,474.086 288.661,477.086 281.5,479C 270.172,479.5 258.838,479.667 247.5,479.5C 258.631,467.868 269.965,456.368 281.5,445C 281.272,444.601 280.938,444.435 280.5,444.5C 282.167,442.5 283.833,440.5 285.5,438.5C 286.117,438.611 286.617,438.944 287,439.5C 305.035,421.632 322.868,403.632 340.5,385.5 Z"/></g>
<g><path style="opacity:0.963" fill="#862ee7" d="M 120.5,391.5 C 124.833,395.167 128.833,399.167 132.5,403.5C 124.5,410.833 116.833,418.5 109.5,426.5C 105.167,422.833 101.167,418.833 97.5,414.5C 105.5,407.167 113.167,399.5 120.5,391.5 Z"/></g>
<g><path style="opacity:0.992" fill="#6d2ee9" d="M 216.5,392.5 C 222.569,395.987 224.902,401.32 223.5,408.5C 213.368,418.131 203.368,427.964 193.5,438C 192.906,438.464 192.239,438.631 191.5,438.5C 191.5,431.167 191.5,423.833 191.5,416.5C 199.833,408.5 208.167,400.5 216.5,392.5 Z"/></g>
<g><path style="opacity:0.99" fill="#672dea" d="M 223.5,408.5 C 223.255,417.208 223.589,425.874 224.5,434.5C 215.554,441.778 207.221,449.778 199.5,458.5C 195.201,452.557 192.535,445.891 191.5,438.5C 192.239,438.631 192.906,438.464 193.5,438C 203.368,427.964 213.368,418.131 223.5,408.5 Z"/></g>
<g><path style="opacity:0.994" fill="#542cec" d="M 280.5,444.5 C 280.938,444.435 281.272,444.601 281.5,445C 269.965,456.368 258.631,467.868 247.5,479.5C 240.457,479.72 233.457,479.386 226.5,478.5C 226.369,477.761 226.536,477.094 227,476.5C 236.702,466.965 246.202,457.298 255.5,447.5C 264.086,448.113 272.42,447.113 280.5,444.5 Z"/></g>
<g><path style="opacity:0.992" fill="#5c2deb" d="M 224.5,434.5 C 226.596,442.092 231.596,446.258 239.5,447C 244.823,447.499 250.156,447.666 255.5,447.5C 246.202,457.298 236.702,466.965 227,476.5C 226.536,477.094 226.369,477.761 226.5,478.5C 215.195,474.851 206.195,468.184 199.5,458.5C 207.221,449.778 215.554,441.778 224.5,434.5 Z"/></g>
</svg>
