<?xml version="1.0" encoding="UTF-8"?>
<!DOCTYPE svg PUBLIC "-//W3C//DTD SVG 1.1//EN" "http://www.w3.org/Graphics/SVG/1.1/DTD/svg11.dtd">
<svg xmlns="http://www.w3.org/2000/svg" version="1.1" width="512px" height="512px" style="shape-rendering:geometricPrecision; text-rendering:geometricPrecision; image-rendering:optimizeQuality; fill-rule:evenodd; clip-rule:evenodd" xmlns:xlink="http://www.w3.org/1999/xlink">
<g><path style="opacity:0.991" fill="#34569f" d="M 201.5,-0.5 C 237.5,-0.5 273.5,-0.5 309.5,-0.5C 346.759,1.24092 384.092,4.07426 421.5,8C 434.703,9.67854 447.036,13.8452 458.5,20.5C 445.105,26.6968 431.771,33.1968 418.5,40C 420.076,40.4396 421.41,41.273 422.5,42.5C 423.812,41.5396 425.146,41.7063 426.5,43C 419.966,51.2345 413.8,59.7345 408,68.5C 408.077,67.2624 407.911,66.2624 407.5,65.5C 403.286,67.9497 398.952,69.783 394.5,71C 401.833,60.6667 409.167,50.3333 416.5,40C 416,39.5 415.5,39 415,38.5C 407.333,49.8333 399.667,61.1667 392,72.5C 388.845,75.5637 387.512,75.2303 388,71.5C 385.633,76.4235 381.8,78.9235 376.5,79C 385.957,65.253 395.29,51.4197 404.5,37.5C 403.998,36.479 403.332,36.3123 402.5,37C 391.662,52.6622 380.662,68.1622 369.5,83.5C 369.167,83.3333 368.833,83.1667 368.5,83C 378.92,67.4921 389.587,52.1588 400.5,37C 400,36.5 399.5,36 399,35.5C 397.542,36.7468 396.042,36.7468 394.5,35.5C 393.808,36.0253 393.308,36.6919 393,37.5C 391.938,35.2054 390.438,34.5388 388.5,35.5C 384.486,33.797 380.82,34.4637 377.5,37.5C 376.707,36.6446 377.04,35.8113 378.5,35C 378,34.8333 377.5,34.6667 377,34.5C 374.689,36.976 372.189,39.3093 369.5,41.5C 370.007,39 371.341,36.5 373.5,34C 370.901,33.231 368.401,33.3977 366,34.5C 365.5,34 365,33.5 364.5,33C 346.849,31.5487 329.182,30.382 311.5,29.5C 277.457,28.3707 243.457,28.3707 209.5,29.5C 185.746,30.2004 162.08,31.5337 138.5,33.5C 126.494,34.4673 114.494,35.6339 102.5,37C 64.7972,46.3699 42.6306,70.2032 36,108.5C 33.2741,132.77 31.4407,157.104 30.5,181.5C 29.6482,195.003 28.9816,208.67 28.5,222.5C 18.7214,226.555 9.05469,230.889 -0.5,235.5C -0.5,223.833 -0.5,212.167 -0.5,200.5C 1.28415,161.208 4.45082,121.874 9,82.5C 18.8333,43.3333 43.3333,18.8333 82.5,9C 122.209,4.42028 161.875,1.25361 201.5,-0.5 Z"/></g>
<g><path style="opacity:1" fill="#305297" d="M 209.5,29.5 C 243.457,28.3707 277.457,28.3707 311.5,29.5C 296.247,52.6009 280.747,75.6009 265,98.5C 263.263,100.625 261.096,101.458 258.5,101C 273.92,78.1592 289.587,55.4925 305.5,33C 301.107,34.1087 296.94,35.942 293,38.5C 277.333,61.5 261.667,84.5 246,107.5C 241.698,109.819 237.365,112.152 233,114.5C 216.98,138.553 200.48,162.22 183.5,185.5C 183.167,185.167 182.833,184.833 182.5,184.5C 213.805,138.696 245.305,93.0291 277,47.5C 277.688,46.6683 277.521,46.0016 276.5,45.5C 260.853,66.7794 245.687,88.4461 231,110.5C 229.167,112.833 227.333,115.167 225.5,117.5C 221.091,119.453 216.924,121.787 213,124.5C 197.333,147.5 181.667,170.5 166,193.5C 162.964,195.172 159.964,196.839 157,198.5C 140.957,222.087 124.79,245.587 108.5,269C 105.139,269.88 104.639,269.047 107,266.5C 138.809,221.161 169.809,175.495 200,129.5C 183.42,152.993 167.087,176.659 151,200.5C 146.45,202.459 142.117,204.792 138,207.5C 129.667,219.833 121.333,232.167 113,244.5C 111.185,246.405 109.185,248.072 107,249.5C 93.2902,269.754 79.4568,289.92 65.5,310C 64.2411,310.982 62.9078,311.315 61.5,311C 75.5,291 89.5,271 103.5,251C 101.893,250.885 100.393,251.385 99,252.5C 97.6233,251.964 97.6233,250.964 99,249.5C 111.638,230.696 124.471,212.029 137.5,193.5C 136.132,192.406 134.965,192.74 134,194.5C 120.314,215.22 106.147,235.553 91.5,255.5C 90.479,254.998 90.3123,254.332 91,253.5C 104.167,234.333 117.333,215.167 130.5,196C 129.365,195.251 128.365,195.417 127.5,196.5C 113.138,217.029 98.9714,237.696 85,258.5C 84.1072,259.711 83.2739,259.711 82.5,258.5C 102.862,229.304 123.029,199.971 143,170.5C 143.688,169.668 143.521,169.002 142.5,168.5C 134.451,178.39 126.951,188.723 120,199.5C 119.163,201.007 117.996,201.507 116.5,201C 131.128,180.983 144.794,160.816 157.5,140.5C 154.506,142.662 152.006,145.328 150,148.5C 136.976,166.535 124.309,184.868 112,203.5C 111.282,204.451 110.449,204.617 109.5,204C 116.226,194.701 122.559,185.201 128.5,175.5C 149.804,145.346 170.97,115.013 192,84.5C 192.27,83.0677 191.604,82.0677 190,81.5C 188.333,83.8333 186.667,86.1667 185,88.5C 184.383,87.5509 184.549,86.7175 185.5,86C 184.551,85.3828 183.718,85.5494 183,86.5C 182.308,85.9747 181.808,85.3081 181.5,84.5C 193.472,66.6958 205.638,49.0292 218,31.5C 218.432,30.3999 217.932,29.7332 216.5,29.5C 214.313,30.0725 211.979,30.0725 209.5,29.5 Z"/></g>
<g><path style="opacity:1" fill="#2e4f92" d="M 209.5,29.5 C 211.979,30.0725 214.313,30.0725 216.5,29.5C 217.932,29.7332 218.432,30.3999 218,31.5C 205.638,49.0292 193.472,66.6958 181.5,84.5C 181.808,85.3081 182.308,85.9747 183,86.5C 183.718,85.5494 184.551,85.3828 185.5,86C 184.549,86.7175 184.383,87.5509 185,88.5C 186.667,86.1667 188.333,83.8333 190,81.5C 191.604,82.0677 192.27,83.0677 192,84.5C 170.97,115.013 149.804,145.346 128.5,175.5C 126.983,175.511 125.816,176.177 125,177.5C 93.9809,223.552 62.4809,269.219 30.5,314.5C 29.7189,313.271 29.2189,311.938 29,310.5C 28.5,281.169 28.3334,251.835 28.5,222.5C 28.9816,208.67 29.6482,195.003 30.5,181.5C 30.3354,184.518 30.502,187.518 31,190.5C 66.8433,138.138 102.677,85.8045 138.5,33.5C 162.08,31.5337 185.746,30.2004 209.5,29.5 Z"/></g>
<g><path style="opacity:1" fill="#345598" d="M 311.5,29.5 C 329.182,30.382 346.849,31.5487 364.5,33C 365,33.5 365.5,34 366,34.5C 368.401,33.3977 370.901,33.231 373.5,34C 371.341,36.5 370.007,39 369.5,41.5C 372.189,39.3093 374.689,36.976 377,34.5C 377.5,34.6667 378,34.8333 378.5,35C 377.04,35.8113 376.707,36.6446 377.5,37.5C 380.82,34.4637 384.486,33.797 388.5,35.5C 377.199,51.8102 365.866,68.1435 354.5,84.5C 347.313,84.1755 340.313,84.5088 333.5,85.5C 301.061,90.7654 278.895,108.765 267,139.5C 265.194,145.056 263.861,150.722 263,156.5C 262.5,179.498 262.333,202.498 262.5,225.5C 248.167,225.5 233.833,225.5 219.5,225.5C 219.5,250.5 219.5,275.5 219.5,300.5C 220.694,301.272 221.694,302.272 222.5,303.5C 192.399,346.847 162.399,390.347 132.5,434C 136.28,434.238 140.28,434.405 144.5,434.5C 144.281,433.325 144.614,432.325 145.5,431.5C 146.711,432.274 146.711,433.107 145.5,434C 149.5,434.333 153.5,434.667 157.5,435C 155.167,436 152.833,437 150.5,438C 157.937,437.804 165.437,438.304 173,439.5C 175.401,438.398 177.901,438.231 180.5,439C 176.81,439.424 176.643,440.258 180,441.5C 181.399,440.773 182.899,440.273 184.5,440C 180.586,439.103 180.752,438.603 185,438.5C 186.167,438.667 187.333,438.833 188.5,439C 187.549,439.718 187.383,440.551 188,441.5C 193.942,440.977 199.942,440.643 206,440.5C 207.225,440.862 208.391,441.362 209.5,442C 208.304,442.654 208.304,443.154 209.5,443.5C 213.434,440.14 217.601,440.14 222,443.5C 224.451,442.357 226.951,441.357 229.5,440.5C 230.711,441.274 230.711,442.107 229.5,443C 233.568,443.846 237.401,443.346 241,441.5C 241.75,443.066 243.584,443.732 246.5,443.5C 248.808,443.635 250.808,442.969 252.5,441.5C 253.696,441.846 253.696,442.346 252.5,443C 255.817,443.498 259.15,443.665 262.5,443.5C 262.5,446.167 262.5,448.833 262.5,451.5C 261.711,451.783 261.044,452.283 260.5,453C 240.5,453.167 220.5,453.333 200.5,453.5C 178.022,453.125 155.688,453.125 133.5,453.5C 131.036,453.41 128.87,452.743 127,451.5C 125.004,453.059 122.671,453.726 120,453.5C 118.167,453.167 116.333,452.833 114.5,452.5C 115.506,451.604 115.506,450.938 114.5,450.5C 113.167,451.5 111.833,452.5 110.5,453.5C 110.002,452.397 109.669,451.397 109.5,450.5C 108.369,451.751 107.036,452.751 105.5,453.5C 104.137,452.802 102.971,452.802 102,453.5C 101.642,449.587 99.9757,449.587 97,453.5C 96.3828,452.551 96.5494,451.718 97.5,451C 95.0759,450.403 93.2425,451.237 92,453.5C 90.437,452.898 90.6037,452.065 92.5,451C 88.2452,450.204 84.0785,450.371 80,451.5C 79.2496,450.874 78.4162,450.374 77.5,450C 78.4506,449.282 78.6172,448.449 78,447.5C 75.0243,451.413 73.3576,451.413 73,447.5C 71.276,450.73 69.276,451.064 67,448.5C 65.6883,450.658 64.0217,450.991 62,449.5C 58.9031,450.289 58.7364,451.456 61.5,453C 47.1705,453.5 32.8372,453.667 18.5,453.5C 12.9366,443.978 9.43661,433.645 8,422.5C 4.16268,385.085 1.32935,347.752 -0.5,310.5C -0.5,285.5 -0.5,260.5 -0.5,235.5C 9.05469,230.889 18.7214,226.555 28.5,222.5C 28.3334,251.835 28.5,281.169 29,310.5C 29.2189,311.938 29.7189,313.271 30.5,314.5C 62.4809,269.219 93.9809,223.552 125,177.5C 125.816,176.177 126.983,175.511 128.5,175.5C 122.559,185.201 116.226,194.701 109.5,204C 110.449,204.617 111.282,204.451 112,203.5C 124.309,184.868 136.976,166.535 150,148.5C 152.006,145.328 154.506,142.662 157.5,140.5C 144.794,160.816 131.128,180.983 116.5,201C 117.996,201.507 119.163,201.007 120,199.5C 126.951,188.723 134.451,178.39 142.5,168.5C 143.521,169.002 143.688,169.668 143,170.5C 123.029,199.971 102.862,229.304 82.5,258.5C 83.2739,259.711 84.1072,259.711 85,258.5C 98.9714,237.696 113.138,217.029 127.5,196.5C 128.365,195.417 129.365,195.251 130.5,196C 117.333,215.167 104.167,234.333 91,253.5C 90.3123,254.332 90.479,254.998 91.5,255.5C 106.147,235.553 120.314,215.22 134,194.5C 134.965,192.74 136.132,192.406 137.5,193.5C 124.471,212.029 111.638,230.696 99,249.5C 97.6233,250.964 97.6233,251.964 99,252.5C 100.393,251.385 101.893,250.885 103.5,251C 89.5,271 75.5,291 61.5,311C 62.9078,311.315 64.2411,310.982 65.5,310C 79.4568,289.92 93.2902,269.754 107,249.5C 109.185,248.072 111.185,246.405 113,244.5C 121.333,232.167 129.667,219.833 138,207.5C 142.117,204.792 146.45,202.459 151,200.5C 167.087,176.659 183.42,152.993 200,129.5C 169.809,175.495 138.809,221.161 107,266.5C 104.639,269.047 105.139,269.88 108.5,269C 124.79,245.587 140.957,222.087 157,198.5C 159.964,196.839 162.964,195.172 166,193.5C 181.667,170.5 197.333,147.5 213,124.5C 216.924,121.787 221.091,119.453 225.5,117.5C 227.333,115.167 229.167,112.833 231,110.5C 245.687,88.4461 260.853,66.7794 276.5,45.5C 277.521,46.0016 277.688,46.6683 277,47.5C 245.305,93.0291 213.805,138.696 182.5,184.5C 182.833,184.833 183.167,185.167 183.5,185.5C 200.48,162.22 216.98,138.553 233,114.5C 237.365,112.152 241.698,109.819 246,107.5C 261.667,84.5 277.333,61.5 293,38.5C 296.94,35.942 301.107,34.1087 305.5,33C 289.587,55.4925 273.92,78.1592 258.5,101C 261.096,101.458 263.263,100.625 265,98.5C 280.747,75.6009 296.247,52.6009 311.5,29.5 Z"/></g>
<g><path style="opacity:1" fill="#2a4c8d" d="M 138.5,33.5 C 102.677,85.8045 66.8433,138.138 31,190.5C 30.502,187.518 30.3354,184.518 30.5,181.5C 31.4407,157.104 33.2741,132.77 36,108.5C 42.6306,70.2032 64.7972,46.3699 102.5,37C 114.494,35.6339 126.494,34.4673 138.5,33.5 Z"/></g>
<g><path style="opacity:0.995" fill="#37579c" d="M 458.5,20.5 C 489.443,41.3741 504.943,70.7074 505,108.5C 507.189,130.457 508.689,152.457 509.5,174.5C 493.167,158.5 476.833,142.5 460.5,126.5C 447.167,112.5 433.5,98.8333 419.5,85.5C 398.006,84.5027 376.34,84.1693 354.5,84.5C 365.866,68.1435 377.199,51.8102 388.5,35.5C 390.438,34.5388 391.938,35.2054 393,37.5C 393.308,36.6919 393.808,36.0253 394.5,35.5C 396.042,36.7468 397.542,36.7468 399,35.5C 399.5,36 400,36.5 400.5,37C 389.587,52.1588 378.92,67.4921 368.5,83C 368.833,83.1667 369.167,83.3333 369.5,83.5C 380.662,68.1622 391.662,52.6622 402.5,37C 403.332,36.3123 403.998,36.479 404.5,37.5C 395.29,51.4197 385.957,65.253 376.5,79C 381.8,78.9235 385.633,76.4235 388,71.5C 387.512,75.2303 388.845,75.5637 392,72.5C 399.667,61.1667 407.333,49.8333 415,38.5C 415.5,39 416,39.5 416.5,40C 409.167,50.3333 401.833,60.6667 394.5,71C 398.952,69.783 403.286,67.9497 407.5,65.5C 407.911,66.2624 408.077,67.2624 408,68.5C 413.8,59.7345 419.966,51.2345 426.5,43C 425.146,41.7063 423.812,41.5396 422.5,42.5C 421.41,41.273 420.076,40.4396 418.5,40C 431.771,33.1968 445.105,26.6968 458.5,20.5 Z"/></g>
<g><path style="opacity:1" fill="#fdfefe" d="M 333.5,85.5 C 361.833,85.5 390.167,85.5 418.5,85.5C 418.5,110.167 418.5,134.833 418.5,159.5C 401.163,159.333 383.83,159.5 366.5,160C 360.417,162.415 355.917,166.582 353,172.5C 352.5,190.164 352.333,207.83 352.5,225.5C 371.167,225.5 389.833,225.5 408.5,225.5C 411.833,225.5 415.167,225.5 418.5,225.5C 416.087,250.468 414.087,275.468 412.5,300.5C 392.5,300.5 372.5,300.5 352.5,300.5C 352.5,355.833 352.5,411.167 352.5,466.5C 352.5,480.5 352.5,494.5 352.5,508.5C 338.078,509.64 323.744,510.64 309.5,511.5C 293.833,511.5 278.167,511.5 262.5,511.5C 262.5,503.167 262.5,494.833 262.5,486.5C 262.5,482.833 262.5,479.167 262.5,475.5C 262.5,472.167 262.5,468.833 262.5,465.5C 262.5,460.833 262.5,456.167 262.5,451.5C 262.5,448.833 262.5,446.167 262.5,443.5C 262.5,408.5 262.5,373.5 262.5,338.5C 262.5,325.833 262.5,313.167 262.5,300.5C 248.167,300.5 233.833,300.5 219.5,300.5C 219.5,275.5 219.5,250.5 219.5,225.5C 233.833,225.5 248.167,225.5 262.5,225.5C 262.333,202.498 262.5,179.498 263,156.5C 263.861,150.722 265.194,145.056 267,139.5C 278.895,108.765 301.061,90.7654 333.5,85.5 Z"/></g>
<g><path style="opacity:1" fill="#284886" d="M 419.5,85.5 C 433.5,98.8333 447.167,112.5 460.5,126.5C 457.065,135.374 453.065,144.04 448.5,152.5C 448.667,152.833 448.833,153.167 449,153.5C 450.574,152.016 451.907,150.349 453,148.5C 452.355,154.993 448.855,159.326 442.5,161.5C 440.624,169.577 436.791,176.91 431,183.5C 424.333,196.833 417.667,210.167 411,223.5C 410.005,224.066 409.172,224.733 408.5,225.5C 389.833,225.5 371.167,225.5 352.5,225.5C 352.333,207.83 352.5,190.164 353,172.5C 355.917,166.582 360.417,162.415 366.5,160C 383.83,159.5 401.163,159.333 418.5,159.5C 419.498,135.006 419.831,110.339 419.5,85.5 Z"/></g>
<g><path style="opacity:1" fill="#9eadc9" d="M 333.5,85.5 C 340.313,84.5088 347.313,84.1755 354.5,84.5C 376.34,84.1693 398.006,84.5027 419.5,85.5C 419.831,110.339 419.498,135.006 418.5,159.5C 418.5,134.833 418.5,110.167 418.5,85.5C 390.167,85.5 361.833,85.5 333.5,85.5 Z"/></g>
<g><path style="opacity:1" fill="#2f4f8d" d="M 460.5,126.5 C 476.833,142.5 493.167,158.5 509.5,174.5C 509.433,175.959 509.766,177.292 510.5,178.5C 509.022,178.238 507.689,178.571 506.5,179.5C 464.5,262.833 422.5,346.167 380.5,429.5C 382.469,431.421 383.969,431.421 385,429.5C 386.067,430.191 387.234,430.691 388.5,431C 385.876,431.576 385.209,432.91 386.5,435C 385.672,435.915 384.672,436.581 383.5,437C 385.833,437.333 388.167,437.667 390.5,438C 391.694,440.602 391.694,443.102 390.5,445.5C 391.892,444.395 393.059,443.061 394,441.5C 394.772,442.849 395.939,443.682 397.5,444C 397.167,444.333 396.833,444.667 396.5,445C 398.256,445.202 399.922,445.702 401.5,446.5C 401.291,447.086 400.957,447.586 400.5,448C 403.407,448.854 405.74,448.021 407.5,445.5C 408.711,446.274 408.711,447.107 407.5,448C 408.784,448.684 409.951,448.517 411,447.5C 413.096,448.715 412.929,449.549 410.5,450C 413.043,452.964 415.876,453.13 419,450.5C 419.667,451.167 420.333,451.833 421,452.5C 422.412,451.077 423.579,451.244 424.5,453C 424.167,453.333 423.833,453.667 423.5,454C 424.333,454.167 425.167,454.333 426,454.5C 428.281,452.972 430.781,452.472 433.5,453C 433.167,453.333 432.833,453.667 432.5,454C 434.167,454.333 435.833,454.667 437.5,455C 434.456,455.359 434.122,456.026 436.5,457C 436.167,457.333 435.833,457.667 435.5,458C 438.014,458.569 440.348,458.069 442.5,456.5C 445.552,457.563 448.385,458.896 451,460.5C 451.915,459.672 452.581,458.672 453,457.5C 455.907,458.192 458.741,459.192 461.5,460.5C 463.167,459.833 464.833,459.167 466.5,458.5C 468.373,458.482 468.706,458.982 467.5,460C 474.078,460.606 480.411,461.772 486.5,463.5C 482.61,470.062 477.61,475.729 471.5,480.5C 471.5,479.167 471.5,477.833 471.5,476.5C 468.734,476.67 466.067,477.336 463.5,478.5C 461.833,477.833 460.167,477.167 458.5,476.5C 456.318,476.697 454.318,477.364 452.5,478.5C 449.741,477.192 446.907,476.192 444,475.5C 443.388,478.032 441.888,478.865 439.5,478C 439.833,477.667 440.167,477.333 440.5,477C 437.776,476.73 435.109,476.23 432.5,475.5C 431.201,476.09 430.368,477.09 430,478.5C 425.384,475.678 420.384,475.011 415,476.5C 412.5,476 410,475.5 407.5,475C 415.412,474.476 415.412,473.642 407.5,472.5C 406.108,473.605 404.941,474.939 404,476.5C 401.931,475.736 399.764,475.236 397.5,475C 399.833,474.667 402.167,474.333 404.5,474C 399.843,472.609 395.177,472.442 390.5,473.5C 387.416,473.184 384.583,472.184 382,470.5C 380.279,471.895 378.279,472.561 376,472.5C 374.04,471.102 371.206,470.102 367.5,469.5C 366.201,470.09 365.368,471.09 365,472.5C 362.208,470.593 359.042,469.427 355.5,469C 357.167,468.667 358.833,468.333 360.5,468C 358.485,467.576 356.651,466.742 355,465.5C 354.098,465.743 353.265,466.077 352.5,466.5C 352.5,411.167 352.5,355.833 352.5,300.5C 372.5,300.5 392.5,300.5 412.5,300.5C 414.087,275.468 416.087,250.468 418.5,225.5C 415.167,225.5 411.833,225.5 408.5,225.5C 409.172,224.733 410.005,224.066 411,223.5C 417.667,210.167 424.333,196.833 431,183.5C 436.791,176.91 440.624,169.577 442.5,161.5C 448.855,159.326 452.355,154.993 453,148.5C 451.907,150.349 450.574,152.016 449,153.5C 448.833,153.167 448.667,152.833 448.5,152.5C 453.065,144.04 457.065,135.374 460.5,126.5 Z"/></g>
<g><path style="opacity:0.998" fill="#345393" d="M 510.5,178.5 C 510.175,186.019 510.508,193.352 511.5,200.5C 511.5,237.167 511.5,273.833 511.5,310.5C 509.671,347.752 506.837,385.085 503,422.5C 501.093,437.746 495.593,451.412 486.5,463.5C 480.411,461.772 474.078,460.606 467.5,460C 468.706,458.982 468.373,458.482 466.5,458.5C 464.833,459.167 463.167,459.833 461.5,460.5C 458.741,459.192 455.907,458.192 453,457.5C 452.581,458.672 451.915,459.672 451,460.5C 448.385,458.896 445.552,457.563 442.5,456.5C 440.348,458.069 438.014,458.569 435.5,458C 435.833,457.667 436.167,457.333 436.5,457C 434.122,456.026 434.456,455.359 437.5,455C 435.833,454.667 434.167,454.333 432.5,454C 432.833,453.667 433.167,453.333 433.5,453C 430.781,452.472 428.281,452.972 426,454.5C 425.167,454.333 424.333,454.167 423.5,454C 423.833,453.667 424.167,453.333 424.5,453C 423.579,451.244 422.412,451.077 421,452.5C 420.333,451.833 419.667,451.167 419,450.5C 415.876,453.13 413.043,452.964 410.5,450C 412.929,449.549 413.096,448.715 411,447.5C 409.951,448.517 408.784,448.684 407.5,448C 408.711,447.107 408.711,446.274 407.5,445.5C 405.74,448.021 403.407,448.854 400.5,448C 400.957,447.586 401.291,447.086 401.5,446.5C 399.922,445.702 398.256,445.202 396.5,445C 396.833,444.667 397.167,444.333 397.5,444C 395.939,443.682 394.772,442.849 394,441.5C 393.059,443.061 391.892,444.395 390.5,445.5C 391.694,443.102 391.694,440.602 390.5,438C 388.167,437.667 385.833,437.333 383.5,437C 384.672,436.581 385.672,435.915 386.5,435C 385.209,432.91 385.876,431.576 388.5,431C 387.234,430.691 386.067,430.191 385,429.5C 383.969,431.421 382.469,431.421 380.5,429.5C 422.5,346.167 464.5,262.833 506.5,179.5C 507.689,178.571 509.022,178.238 510.5,178.5 Z"/></g>
<g><path style="opacity:1" fill="#24437d" d="M 219.5,300.5 C 233.833,300.5 248.167,300.5 262.5,300.5C 262.5,313.167 262.5,325.833 262.5,338.5C 249.167,326.833 235.833,315.167 222.5,303.5C 221.694,302.272 220.694,301.272 219.5,300.5 Z"/></g>
<g><path style="opacity:1" fill="#395898" d="M 222.5,303.5 C 235.833,315.167 249.167,326.833 262.5,338.5C 262.5,373.5 262.5,408.5 262.5,443.5C 259.15,443.665 255.817,443.498 252.5,443C 253.696,442.346 253.696,441.846 252.5,441.5C 250.808,442.969 248.808,443.635 246.5,443.5C 243.584,443.732 241.75,443.066 241,441.5C 237.401,443.346 233.568,443.846 229.5,443C 230.711,442.107 230.711,441.274 229.5,440.5C 226.951,441.357 224.451,442.357 222,443.5C 217.601,440.14 213.434,440.14 209.5,443.5C 208.304,443.154 208.304,442.654 209.5,442C 208.391,441.362 207.225,440.862 206,440.5C 199.942,440.643 193.942,440.977 188,441.5C 187.383,440.551 187.549,439.718 188.5,439C 187.333,438.833 186.167,438.667 185,438.5C 180.752,438.603 180.586,439.103 184.5,440C 182.899,440.273 181.399,440.773 180,441.5C 176.643,440.258 176.81,439.424 180.5,439C 177.901,438.231 175.401,438.398 173,439.5C 165.437,438.304 157.937,437.804 150.5,438C 152.833,437 155.167,436 157.5,435C 153.5,434.667 149.5,434.333 145.5,434C 146.711,433.107 146.711,432.274 145.5,431.5C 144.614,432.325 144.281,433.325 144.5,434.5C 140.28,434.405 136.28,434.238 132.5,434C 162.399,390.347 192.399,346.847 222.5,303.5 Z"/></g>
<g><path style="opacity:0.999" fill="#325292" d="M 262.5,451.5 C 262.5,456.167 262.5,460.833 262.5,465.5C 186.397,465.947 107.73,466.281 26.5,466.5C 23.0482,462.701 20.3815,458.368 18.5,453.5C 32.8372,453.667 47.1705,453.5 61.5,453C 58.7364,451.456 58.9031,450.289 62,449.5C 64.0217,450.991 65.6883,450.658 67,448.5C 69.276,451.064 71.276,450.73 73,447.5C 73.3576,451.413 75.0243,451.413 78,447.5C 78.6172,448.449 78.4506,449.282 77.5,450C 78.4162,450.374 79.2496,450.874 80,451.5C 84.0785,450.371 88.2452,450.204 92.5,451C 90.6037,452.065 90.437,452.898 92,453.5C 93.2425,451.237 95.0759,450.403 97.5,451C 96.5494,451.718 96.3828,452.551 97,453.5C 99.9757,449.587 101.642,449.587 102,453.5C 102.971,452.802 104.137,452.802 105.5,453.5C 107.036,452.751 108.369,451.751 109.5,450.5C 109.669,451.397 110.002,452.397 110.5,453.5C 111.833,452.5 113.167,451.5 114.5,450.5C 115.506,450.938 115.506,451.604 114.5,452.5C 116.333,452.833 118.167,453.167 120,453.5C 122.671,453.726 125.004,453.059 127,451.5C 128.87,452.743 131.036,453.41 133.5,453.5C 155.688,453.125 178.022,453.125 200.5,453.5C 220.5,453.333 240.5,453.167 260.5,453C 261.044,452.283 261.711,451.783 262.5,451.5 Z"/></g>
<g><path style="opacity:1" fill="#2e4e8c" d="M 262.5,465.5 C 262.5,468.833 262.5,472.167 262.5,475.5C 214.478,476.116 165.811,476.116 116.5,475.5C 89.4915,475.5 62.8249,476.167 36.5,477.5C 32.4564,474.457 29.1231,470.791 26.5,466.5C 107.73,466.281 186.397,465.947 262.5,465.5 Z"/></g>
<g><path style="opacity:1" fill="#274784" d="M 471.5,480.5 C 459.161,491.336 444.827,498.503 428.5,502C 403.257,505.27 377.924,507.437 352.5,508.5C 352.5,494.5 352.5,480.5 352.5,466.5C 353.265,466.077 354.098,465.743 355,465.5C 356.651,466.742 358.485,467.576 360.5,468C 358.833,468.333 357.167,468.667 355.5,469C 359.042,469.427 362.208,470.593 365,472.5C 365.368,471.09 366.201,470.09 367.5,469.5C 371.206,470.102 374.04,471.102 376,472.5C 378.279,472.561 380.279,471.895 382,470.5C 384.583,472.184 387.416,473.184 390.5,473.5C 395.177,472.442 399.843,472.609 404.5,474C 402.167,474.333 399.833,474.667 397.5,475C 399.764,475.236 401.931,475.736 404,476.5C 404.941,474.939 406.108,473.605 407.5,472.5C 415.412,473.642 415.412,474.476 407.5,475C 410,475.5 412.5,476 415,476.5C 420.384,475.011 425.384,475.678 430,478.5C 430.368,477.09 431.201,476.09 432.5,475.5C 435.109,476.23 437.776,476.73 440.5,477C 440.167,477.333 439.833,477.667 439.5,478C 441.888,478.865 443.388,478.032 444,475.5C 446.907,476.192 449.741,477.192 452.5,478.5C 454.318,477.364 456.318,476.697 458.5,476.5C 460.167,477.167 461.833,477.833 463.5,478.5C 466.067,477.336 468.734,476.67 471.5,476.5C 471.5,477.833 471.5,479.167 471.5,480.5 Z"/></g>
<g><path style="opacity:1" fill="#284885" d="M 262.5,475.5 C 262.5,479.167 262.5,482.833 262.5,486.5C 191.499,486.333 120.499,486.5 49.5,487C 50.056,487.383 50.3893,487.883 50.5,488.5C 45.0986,485.796 40.432,482.129 36.5,477.5C 62.8249,476.167 89.4915,475.5 116.5,475.5C 165.811,476.116 214.478,476.116 262.5,475.5 Z"/></g>
<g><path style="opacity:1" fill="#204079" d="M 262.5,486.5 C 262.5,494.833 262.5,503.167 262.5,511.5C 242.167,511.5 221.833,511.5 201.5,511.5C 161.875,509.746 122.209,506.58 82.5,502C 70.7011,499.909 60.0344,495.409 50.5,488.5C 50.3893,487.883 50.056,487.383 49.5,487C 120.499,486.5 191.499,486.333 262.5,486.5 Z"/></g>
</svg>
