<?xml version="1.0" encoding="UTF-8"?>
<!DOCTYPE svg PUBLIC "-//W3C//DTD SVG 1.1//EN" "http://www.w3.org/Graphics/SVG/1.1/DTD/svg11.dtd">
<svg xmlns="http://www.w3.org/2000/svg" version="1.1" width="512px" height="512px" style="shape-rendering:geometricPrecision; text-rendering:geometricPrecision; image-rendering:optimizeQuality; fill-rule:evenodd; clip-rule:evenodd" xmlns:xlink="http://www.w3.org/1999/xlink">
<g><path style="opacity:1" fill="#fff3a2" d="M -0.5,19.5 C 170.167,19.5 340.833,19.5 511.5,19.5C 511.5,33.5 511.5,47.5 511.5,61.5C 340.833,61.5 170.167,61.5 -0.5,61.5C -0.5,47.5 -0.5,33.5 -0.5,19.5 Z"/></g>
<g><path style="opacity:1" fill="#fff49a" d="M -0.5,162.5 C 170.167,162.5 340.833,162.5 511.5,162.5C 511.5,176.5 511.5,190.5 511.5,204.5C 340.833,204.5 170.167,204.5 -0.5,204.5C -0.5,190.5 -0.5,176.5 -0.5,162.5 Z"/></g>
<g><path style="opacity:1" fill="#fff49a" d="M -0.5,306.5 C 170.167,306.5 340.833,306.5 511.5,306.5C 511.5,320.5 511.5,334.5 511.5,348.5C 340.833,348.5 170.167,348.5 -0.5,348.5C -0.5,334.5 -0.5,320.5 -0.5,306.5 Z"/></g>
<g><path style="opacity:1" fill="#fff3a2" d="M -0.5,449.5 C 170.167,449.5 340.833,449.5 511.5,449.5C 511.5,463.5 511.5,477.5 511.5,491.5C 340.833,491.5 170.167,491.5 -0.5,491.5C -0.5,477.5 -0.5,463.5 -0.5,449.5 Z"/></g>
</svg>
