<?xml version="1.0" encoding="UTF-8"?>
<!DOCTYPE svg PUBLIC "-//W3C//DTD SVG 1.1//EN" "http://www.w3.org/Graphics/SVG/1.1/DTD/svg11.dtd">
<svg xmlns="http://www.w3.org/2000/svg" version="1.1" width="128px" height="128px" style="shape-rendering:geometricPrecision; text-rendering:geometricPrecision; image-rendering:optimizeQuality; fill-rule:evenodd; clip-rule:evenodd" xmlns:xlink="http://www.w3.org/1999/xlink">
<g><path style="opacity:0.997" fill="#0017a8" d="M 51.5,0.5 C 51.5,0.166667 51.5,-0.166667 51.5,-0.5C 57.5,-0.5 63.5,-0.5 69.5,-0.5C 88.1154,19.7828 107.449,39.4495 127.5,58.5C 127.5,60.8333 127.5,63.1667 127.5,65.5C 114.827,53.4939 102.494,41.1606 90.5,28.5C 88.0268,27.2031 85.6934,27.2031 83.5,28.5C 82.8333,28.5 82.1667,28.5 81.5,28.5C 72.7023,19.2016 63.7023,10.035 54.5,1C 53.552,0.517215 52.552,0.350549 51.5,0.5 Z"/></g>
<g><path style="opacity:0.977" fill="#000a9f" d="M 69.5,-0.5 C 71.5,-0.5 73.5,-0.5 75.5,-0.5C 103.14,6.47339 120.473,23.8067 127.5,51.5C 127.5,53.8333 127.5,56.1667 127.5,58.5C 107.449,39.4495 88.1154,19.7828 69.5,-0.5 Z"/></g>
<g><path style="opacity:0.994" fill="#002cb6" d="M 51.5,0.5 C 52.552,0.350549 53.552,0.517215 54.5,1C 63.7023,10.035 72.7023,19.2016 81.5,28.5C 77.6096,30.7268 75.2762,34.0601 74.5,38.5C 73.6981,39.9516 73.1981,41.6183 73,43.5C 60.298,30.9652 47.798,18.2985 35.5,5.5C 40.4368,2.63257 45.7701,0.965899 51.5,0.5 Z"/></g>
<g><path style="opacity:0.992" fill="#033dc2" d="M 35.5,5.5 C 47.798,18.2985 60.298,30.9652 73,43.5C 73.1981,41.6183 73.6981,39.9516 74.5,38.5C 74.3444,41.0661 74.6777,43.5661 75.5,46C 72.3396,48.9943 69.3396,52.1609 66.5,55.5C 67.8333,57.5 69.5,59.1667 71.5,60.5C 72.8518,59.4756 74.1851,58.4756 75.5,57.5C 81.8922,62.89 87.5588,68.89 92.5,75.5C 88.6333,74.2705 84.7999,74.2705 81,75.5C 71.6525,65.9856 62.1525,56.6523 52.5,47.5C 52.4124,43.6195 52.2458,39.6195 52,35.5C 50.1952,31.8571 47.3619,29.5237 43.5,28.5C 41.369,27.6862 39.0356,27.1862 36.5,27C 31.9633,22.6312 27.6299,18.1312 23.5,13.5C 26.8033,9.84418 30.8033,7.17751 35.5,5.5 Z"/></g>
<g><path style="opacity:0.991" fill="#064dcb" d="M 23.5,13.5 C 27.6299,18.1312 31.9633,22.6312 36.5,27C 39.0356,27.1862 41.369,27.6862 43.5,28.5C 41.4727,28.3379 39.4727,28.5045 37.5,29C 39.8333,31.3333 42.1667,33.6667 44.5,36C 42.2968,38.3722 39.9635,40.5389 37.5,42.5C 30.5271,34.8604 23.1937,27.5271 15.5,20.5C 17.5691,17.4275 20.2358,15.0941 23.5,13.5 Z"/></g>
<g><path style="opacity:1" fill="#f4f6fc" d="M 43.5,28.5 C 47.3619,29.5237 50.1952,31.8571 52,35.5C 52.2458,39.6195 52.4124,43.6195 52.5,47.5C 62.1525,56.6523 71.6525,65.9856 81,75.5C 84.7999,74.2705 88.6333,74.2705 92.5,75.5C 95.6472,77.3129 97.6472,79.9796 98.5,83.5C 98.6621,85.5273 98.4955,87.5273 98,89.5C 95.6667,87.1667 93.3333,84.8333 91,82.5C 88.6278,84.7032 86.4611,87.0365 84.5,89.5C 83.7109,89.7828 83.0442,90.2828 82.5,91C 84.8333,93.3333 87.1667,95.6667 89.5,98C 77.2293,98.7225 72.5626,93.0558 75.5,81C 65.8333,71.3333 56.1667,61.6667 46.5,52C 45.1807,51.805 43.8474,51.9717 42.5,52.5C 32.1925,52.6936 27.6925,47.6936 29,37.5C 31.3333,39.8333 33.6667,42.1667 36,44.5C 36.7172,43.9558 37.2172,43.2891 37.5,42.5C 39.9635,40.5389 42.2968,38.3722 44.5,36C 42.1667,33.6667 39.8333,31.3333 37.5,29C 39.4727,28.5045 41.4727,28.3379 43.5,28.5 Z"/></g>
<g><path style="opacity:1" fill="#f5f7fc" d="M 81.5,28.5 C 82.1667,28.5 82.8333,28.5 83.5,28.5C 85.5273,28.3379 87.5273,28.5045 89.5,29C 87.1667,31.3333 84.8333,33.6667 82.5,36C 85.3333,38.8333 88.1667,41.6667 91,44.5C 93.3333,42.1667 95.6667,39.8333 98,37.5C 99.7539,43.6487 97.9206,48.3154 92.5,51.5C 88.6333,52.7295 84.7999,52.7295 81,51.5C 78.9604,53.3702 77.1271,55.3702 75.5,57.5C 74.1851,58.4756 72.8518,59.4756 71.5,60.5C 69.5,59.1667 67.8333,57.5 66.5,55.5C 69.3396,52.1609 72.3396,48.9943 75.5,46C 74.6777,43.5661 74.3444,41.0661 74.5,38.5C 75.2762,34.0601 77.6096,30.7268 81.5,28.5 Z"/></g>
<g><path style="opacity:0.996" fill="#0460d9" d="M 15.5,20.5 C 23.1937,27.5271 30.5271,34.8604 37.5,42.5C 37.2172,43.2891 36.7172,43.9558 36,44.5C 33.6667,42.1667 31.3333,39.8333 29,37.5C 27.6925,47.6936 32.1925,52.6936 42.5,52.5C 41.3915,53.29 40.0581,53.79 38.5,54C 43.3699,58.7021 48.0366,63.5354 52.5,68.5C 50.7059,70.7966 48.7059,72.9633 46.5,75C 45.1807,75.195 43.8474,75.0283 42.5,74.5C 41.0484,73.6981 39.3817,73.1981 37.5,73C 26.5801,61.5767 15.2468,50.7433 3.5,40.5C 5.98098,32.8629 9.98098,26.1962 15.5,20.5 Z"/></g>
<g><path style="opacity:0.991" fill="#0822af" d="M 83.5,28.5 C 85.6934,27.2031 88.0268,27.2031 90.5,28.5C 102.494,41.1606 114.827,53.4939 127.5,65.5C 127.5,68.8333 127.5,72.1667 127.5,75.5C 126.36,78.3676 125.36,81.3676 124.5,84.5C 113.113,74.1141 102.446,63.1141 92.5,51.5C 97.9206,48.3154 99.7539,43.6487 98,37.5C 95.6667,39.8333 93.3333,42.1667 91,44.5C 88.1667,41.6667 85.3333,38.8333 82.5,36C 84.8333,33.6667 87.1667,31.3333 89.5,29C 87.5273,28.5045 85.5273,28.3379 83.5,28.5 Z"/></g>
<g><path style="opacity:0.994" fill="#026fe3" d="M 3.5,40.5 C 15.2468,50.7433 26.5801,61.5767 37.5,73C 39.3817,73.1981 41.0484,73.6981 42.5,74.5C 37.7291,73.7418 33.7291,75.0751 30.5,78.5C 20.5,69.5 10.5,60.5 0.5,51.5C 0.742412,47.521 1.74241,43.8544 3.5,40.5 Z"/></g>
<g><path style="opacity:0.992" fill="#0237bd" d="M 92.5,51.5 C 102.446,63.1141 113.113,74.1141 124.5,84.5C 121.875,91.75 118.209,98.4167 113.5,104.5C 108.092,100.6 103.092,96.0998 98.5,91C 99.8143,88.3953 99.8143,85.8953 98.5,83.5C 97.6472,79.9796 95.6472,77.3129 92.5,75.5C 87.5588,68.89 81.8922,62.89 75.5,57.5C 77.1271,55.3702 78.9604,53.3702 81,51.5C 84.7999,52.7295 88.6333,52.7295 92.5,51.5 Z"/></g>
<g><path style="opacity:0.999" fill="#097eec" d="M -0.5,51.5 C -0.166667,51.5 0.166667,51.5 0.5,51.5C 10.5,60.5 20.5,69.5 30.5,78.5C 26.4473,90.7159 28.2806,92.0492 36,82.5C 38.8333,85.3333 41.6667,88.1667 44.5,91C 34.9508,98.7194 36.2841,100.553 48.5,96.5C 57.4731,107.14 67.1397,117.14 77.5,126.5C 76.209,126.263 75.209,126.596 74.5,127.5C 70.1667,127.5 65.8333,127.5 61.5,127.5C 41.1667,106.5 20.5,85.8333 -0.5,65.5C -0.5,60.8333 -0.5,56.1667 -0.5,51.5 Z"/></g>
<g><path style="opacity:1" fill="#f5f9fd" d="M 52.5,80.5 C 52.5108,83.5364 52.3442,86.8697 52,90.5C 51.4363,92.8867 50.2696,94.8867 48.5,96.5C 36.2841,100.553 34.9508,98.7194 44.5,91C 41.6667,88.1667 38.8333,85.3333 36,82.5C 28.2806,92.0492 26.4473,90.7159 30.5,78.5C 33.7291,75.0751 37.7291,73.7418 42.5,74.5C 43.8474,75.0283 45.1807,75.195 46.5,75C 48.7059,72.9633 50.7059,70.7966 52.5,68.5C 55.9694,66.1508 58.6361,67.1508 60.5,71.5C 57.811,74.5198 55.1444,77.5198 52.5,80.5 Z"/></g>
<g><path style="opacity:0.982" fill="#008cf6" d="M -0.5,65.5 C 20.5,85.8333 41.1667,106.5 61.5,127.5C 58.5,127.5 55.5,127.5 52.5,127.5C 24.2818,120.949 6.61511,103.615 -0.5,75.5C -0.5,72.1667 -0.5,68.8333 -0.5,65.5 Z"/></g>
<g><path style="opacity:0.996" fill="#075cd6" d="M 84.5,89.5 C 91.5,97.1667 98.8333,104.5 106.5,111.5C 102.521,115.494 97.8546,118.494 92.5,120.5C 79.5,106.833 66.1667,93.5 52.5,80.5C 55.1444,77.5198 57.811,74.5198 60.5,71.5C 58.6361,67.1508 55.9694,66.1508 52.5,68.5C 48.0366,63.5354 43.3699,58.7021 38.5,54C 40.0581,53.79 41.3915,53.29 42.5,52.5C 43.8474,51.9717 45.1807,51.805 46.5,52C 56.1667,61.6667 65.8333,71.3333 75.5,81C 72.5626,93.0558 77.2293,98.7225 89.5,98C 87.1667,95.6667 84.8333,93.3333 82.5,91C 83.0442,90.2828 83.7109,89.7828 84.5,89.5 Z"/></g>
<g><path style="opacity:0.989" fill="#084ecc" d="M 98.5,83.5 C 99.8143,85.8953 99.8143,88.3953 98.5,91C 103.092,96.0998 108.092,100.6 113.5,104.5C 111.5,107.167 109.167,109.5 106.5,111.5C 98.8333,104.5 91.5,97.1667 84.5,89.5C 86.4611,87.0365 88.6278,84.7032 91,82.5C 93.3333,84.8333 95.6667,87.1667 98,89.5C 98.4955,87.5273 98.6621,85.5273 98.5,83.5 Z"/></g>
<g><path style="opacity:0.994" fill="#026de1" d="M 52.5,80.5 C 66.1667,93.5 79.5,106.833 92.5,120.5C 88.0437,123.657 83.0437,125.657 77.5,126.5C 67.1397,117.14 57.4731,107.14 48.5,96.5C 50.2696,94.8867 51.4363,92.8867 52,90.5C 52.3442,86.8697 52.5108,83.5364 52.5,80.5 Z"/></g>
</svg>
