<?xml version="1.0" encoding="UTF-8"?>
<!DOCTYPE svg PUBLIC "-//W3C//DTD SVG 1.1//EN" "http://www.w3.org/Graphics/SVG/1.1/DTD/svg11.dtd">
<svg xmlns="http://www.w3.org/2000/svg" version="1.1" width="128px" height="128px" style="shape-rendering:geometricPrecision; text-rendering:geometricPrecision; image-rendering:optimizeQuality; fill-rule:evenodd; clip-rule:evenodd" xmlns:xlink="http://www.w3.org/1999/xlink">
<g><path style="opacity:0.99" fill="#d71067" d="M 51.5,-0.5 C 54.1667,-0.5 56.8333,-0.5 59.5,-0.5C 81.8333,22.5 104.5,45.1667 127.5,67.5C 127.5,70.1667 127.5,72.8333 127.5,75.5C 127.167,75.5 126.833,75.5 126.5,75.5C 116.833,66.1667 107.167,56.8333 97.5,47.5C 97.7271,45.0672 96.7271,43.4006 94.5,42.5C 93.791,41.596 92.791,41.2627 91.5,41.5C 78.0848,27.083 64.0848,13.4163 49.5,0.5C 50.4916,0.67158 51.1583,0.338246 51.5,-0.5 Z"/></g>
<g><path style="opacity:0.997" fill="#de0b64" d="M 59.5,-0.5 C 63.1667,-0.5 66.8333,-0.5 70.5,-0.5C 88.7983,18.2986 107.298,36.9653 126,55.5C 126.383,54.944 126.883,54.6107 127.5,54.5C 127.5,58.8333 127.5,63.1667 127.5,67.5C 104.5,45.1667 81.8333,22.5 59.5,-0.5 Z"/></g>
<g><path style="opacity:0.986" fill="#e60661" d="M 70.5,-0.5 C 72.1667,-0.5 73.8333,-0.5 75.5,-0.5C 103.14,6.47339 120.473,23.8067 127.5,51.5C 127.5,52.5 127.5,53.5 127.5,54.5C 126.883,54.6107 126.383,54.944 126,55.5C 107.298,36.9653 88.7983,18.2986 70.5,-0.5 Z"/></g>
<g><path style="opacity:0.992" fill="#ce156b" d="M 49.5,0.5 C 64.0848,13.4163 78.0848,27.083 91.5,41.5C 85.8333,41.5 80.1667,41.5 74.5,41.5C 62.5,29.1667 50.5,16.8333 38.5,4.5C 41.8013,2.41552 45.468,1.08219 49.5,0.5 Z"/></g>
<g><path style="opacity:0.99" fill="#c61a6e" d="M 38.5,4.5 C 50.5,16.8333 62.5,29.1667 74.5,41.5C 70.8333,41.5 67.1667,41.5 63.5,41.5C 52.8333,30.1667 41.8333,19.1667 30.5,8.5C 32.6123,6.22946 35.279,4.89612 38.5,4.5 Z"/></g>
<g><path style="opacity:0.991" fill="#bb2173" d="M 30.5,8.5 C 41.8333,19.1667 52.8333,30.1667 63.5,41.5C 57.1667,41.5 50.8333,41.5 44.5,41.5C 44.7845,39.5853 44.4511,37.9187 43.5,36.5C 41.8965,32.5275 38.8965,30.8608 34.5,31.5C 29.8063,26.1396 24.8063,21.1396 19.5,16.5C 22.6012,13.0669 26.2679,10.4002 30.5,8.5 Z"/></g>
<g><path style="opacity:0.996" fill="#ae2979" d="M 19.5,16.5 C 24.8063,21.1396 29.8063,26.1396 34.5,31.5C 30.5769,33.6832 29.0769,37.0165 30,41.5C 31,42.8333 32,42.8333 33,41.5C 32.6289,36.0097 34.7955,34.3431 39.5,36.5C 39.6662,42.5092 39.4995,48.5092 39,54.5C 29.242,45.2461 20.0753,35.5794 11.5,25.5C 13.4528,21.8797 16.1195,18.8797 19.5,16.5 Z"/></g>
<g><path style="opacity:1" fill="#fcf8fa" d="M 34.5,31.5 C 38.8965,30.8608 41.8965,32.5275 43.5,36.5C 43.5,38.5 43.5,40.5 43.5,42.5C 60.5,42.5 77.5,42.5 94.5,42.5C 96.7271,43.4006 97.7271,45.0672 97.5,47.5C 95.0002,50.4937 93.0002,53.827 91.5,57.5C 88.331,61.833 85.6643,66.4997 83.5,71.5C 82.6906,72.4687 81.6906,73.3021 80.5,74C 71.1726,74.4998 61.8393,74.6665 52.5,74.5C 48.8183,74.3347 45.1516,74.5014 41.5,75C 40.0652,77.2672 40.3985,79.2672 42.5,81C 57.8297,81.4999 73.163,81.6666 88.5,81.5C 89.8333,82.5 89.8333,83.5 88.5,84.5C 72.4965,84.6666 56.4965,84.4999 40.5,84C 36.7674,81.2314 35.7674,77.7314 37.5,73.5C 38.4584,73.0472 39.2917,72.3805 40,71.5C 40.8261,59.6593 40.6595,47.9927 39.5,36.5C 34.7955,34.3431 32.6289,36.0097 33,41.5C 32,42.8333 31,42.8333 30,41.5C 29.0769,37.0165 30.5769,33.6832 34.5,31.5 Z"/></g>
<g><path style="opacity:0.993" fill="#a3307d" d="M 11.5,25.5 C 20.0753,35.5794 29.242,45.2461 39,54.5C 39.4995,48.5092 39.6662,42.5092 39.5,36.5C 40.6595,47.9927 40.8261,59.6593 40,71.5C 39.2917,72.3805 38.4584,73.0472 37.5,73.5C 27.4235,61.9199 16.7568,50.7533 5.5,40C 4.90558,39.5357 4.23891,39.369 3.5,39.5C 5.66228,34.5044 8.32894,29.8377 11.5,25.5 Z"/></g>
<g><path style="opacity:1" fill="#d9679f" d="M 43.5,36.5 C 44.4511,37.9187 44.7845,39.5853 44.5,41.5C 50.8333,41.5 57.1667,41.5 63.5,41.5C 67.1667,41.5 70.8333,41.5 74.5,41.5C 80.1667,41.5 85.8333,41.5 91.5,41.5C 92.791,41.2627 93.791,41.596 94.5,42.5C 77.5,42.5 60.5,42.5 43.5,42.5C 43.5,40.5 43.5,38.5 43.5,36.5 Z"/></g>
<g><path style="opacity:1" fill="#c94f8b" d="M 58.5,45.5 C 59.5,45.5 60.5,45.5 61.5,45.5C 61.5,46.8333 61.5,48.1667 61.5,49.5C 60.5,49.5 59.5,49.5 58.5,49.5C 58.5,48.1667 58.5,46.8333 58.5,45.5 Z"/></g>
<g><path style="opacity:1" fill="#cd4f8a" d="M 65.5,45.5 C 66.5,45.5 67.5,45.5 68.5,45.5C 68.5,46.8333 68.5,48.1667 68.5,49.5C 67.5,49.5 66.5,49.5 65.5,49.5C 65.5,48.1667 65.5,46.8333 65.5,45.5 Z"/></g>
<g><path style="opacity:1" fill="#ce4584" d="M 73.5,45.5 C 74.5862,45.62 75.2528,46.2867 75.5,47.5C 74.6964,49.9573 73.6964,49.9573 72.5,47.5C 72.8627,46.8165 73.1961,46.1499 73.5,45.5 Z"/></g>
<g><path style="opacity:1" fill="#d6518b" d="M 80.5,45.5 C 83.8606,46.2032 84.1939,47.5365 81.5,49.5C 79.3576,48.5629 79.0243,47.2296 80.5,45.5 Z"/></g>
<g><path style="opacity:1" fill="#d94c88" d="M 87.5,45.5 C 90.8606,46.2032 91.1939,47.5365 88.5,49.5C 86.3576,48.5629 86.0243,47.2296 87.5,45.5 Z"/></g>
<g><path style="opacity:0.993" fill="#973a84" d="M 3.5,39.5 C 4.23891,39.369 4.90558,39.5357 5.5,40C 16.7568,50.7533 27.4235,61.9199 37.5,73.5C 35.7674,77.7314 36.7674,81.2314 40.5,84C 56.4965,84.4999 72.4965,84.6666 88.5,84.5C 85.3752,85.4794 82.0419,85.8128 78.5,85.5C 73.5,85.5 68.5,85.5 63.5,85.5C 59.4862,85.3345 55.4862,85.5012 51.5,86C 63.7015,98.3687 76.0349,110.535 88.5,122.5C 84.0389,124.781 79.3723,126.447 74.5,127.5C 73.8333,127.5 73.1667,127.5 72.5,127.5C 48.7833,102.783 24.45,78.7827 -0.5,55.5C -0.5,54.1667 -0.5,52.8333 -0.5,51.5C 0.818976,47.5841 2.15231,43.5841 3.5,39.5 Z"/></g>
<g><path style="opacity:1" fill="#c45491" d="M 55.5,52.5 C 58.8606,53.2032 59.1939,54.5365 56.5,56.5C 54.3576,55.5629 54.0243,54.2296 55.5,52.5 Z"/></g>
<g><path style="opacity:1" fill="#c7518e" d="M 62.5,52.5 C 65.8606,53.2032 66.1939,54.5365 63.5,56.5C 61.3576,55.5629 61.0243,54.2296 62.5,52.5 Z"/></g>
<g><path style="opacity:1" fill="#cb4f8c" d="M 69.5,52.5 C 72.8606,53.2032 73.1939,54.5365 70.5,56.5C 68.3576,55.5629 68.0243,54.2296 69.5,52.5 Z"/></g>
<g><path style="opacity:1" fill="#cf4f8b" d="M 76.5,52.5 C 79.8606,53.2032 80.1939,54.5365 77.5,56.5C 75.3576,55.5629 75.0243,54.2296 76.5,52.5 Z"/></g>
<g><path style="opacity:1" fill="#d14583" d="M 83.5,52.5 C 85.9118,52.6941 86.9118,54.0274 86.5,56.5C 85.5,56.5 84.5,56.5 83.5,56.5C 83.5,55.1667 83.5,53.8333 83.5,52.5 Z"/></g>
<g><path style="opacity:0.992" fill="#ce166b" d="M 97.5,47.5 C 107.167,56.8333 116.833,66.1667 126.5,75.5C 126.095,80.4564 124.762,85.1231 122.5,89.5C 112.194,78.86 101.861,68.1933 91.5,57.5C 93.0002,53.827 95.0002,50.4937 97.5,47.5 Z"/></g>
<g><path style="opacity:1" fill="#b33981" d="M 51.5,60.5 C 52.5,60.5 53.5,60.5 54.5,60.5C 54.5,61.5 54.5,62.5 54.5,63.5C 53.5,63.5 52.5,63.5 51.5,63.5C 51.5,62.5 51.5,61.5 51.5,60.5 Z"/></g>
<g><path style="opacity:1" fill="#b7377f" d="M 58.5,60.5 C 59.5,60.5 60.5,60.5 61.5,60.5C 61.5,61.5 61.5,62.5 61.5,63.5C 60.5,63.5 59.5,63.5 58.5,63.5C 58.5,62.5 58.5,61.5 58.5,60.5 Z"/></g>
<g><path style="opacity:1" fill="#bb347d" d="M 65.5,60.5 C 66.5,60.5 67.5,60.5 68.5,60.5C 68.5,61.5 68.5,62.5 68.5,63.5C 67.5,63.5 66.5,63.5 65.5,63.5C 65.5,62.5 65.5,61.5 65.5,60.5 Z"/></g>
<g><path style="opacity:1" fill="#c0337c" d="M 72.5,60.5 C 73.5,60.5 74.5,60.5 75.5,60.5C 75.5,61.5 75.5,62.5 75.5,63.5C 74.5,63.5 73.5,63.5 72.5,63.5C 72.5,62.5 72.5,61.5 72.5,60.5 Z"/></g>
<g><path style="opacity:1" fill="#c32c79" d="M 79.5,60.5 C 80.5,60.5 81.5,60.5 82.5,60.5C 81.7542,64.31 80.7542,64.31 79.5,60.5 Z"/></g>
<g><path style="opacity:0.995" fill="#893e87" d="M -0.5,55.5 C 24.45,78.7827 48.7833,102.783 72.5,127.5C 67.1667,127.5 61.8333,127.5 56.5,127.5C 38.2017,108.701 19.7017,90.0347 1,71.5C 0.50999,72.7932 0.343323,74.1266 0.5,75.5C 0.166667,75.5 -0.166667,75.5 -0.5,75.5C -0.5,68.8333 -0.5,62.1667 -0.5,55.5 Z"/></g>
<g><path style="opacity:0.99" fill="#c11e71" d="M 91.5,57.5 C 101.861,68.1933 112.194,78.86 122.5,89.5C 120.584,94.3386 117.918,98.6719 114.5,102.5C 104.5,91.8333 94.1667,81.5 83.5,71.5C 85.6643,66.4997 88.331,61.833 91.5,57.5 Z"/></g>
<g><path style="opacity:1" fill="#ad3d84" d="M 47.5,67.5 C 48.5,67.5 49.5,67.5 50.5,67.5C 50.5,68.5 50.5,69.5 50.5,70.5C 49.5,70.5 48.5,70.5 47.5,70.5C 47.5,69.5 47.5,68.5 47.5,67.5 Z"/></g>
<g><path style="opacity:1" fill="#b6488a" d="M 54.5,67.5 C 55.9778,67.238 57.3112,67.5713 58.5,68.5C 56.5365,71.1939 55.2032,70.8606 54.5,67.5 Z"/></g>
<g><path style="opacity:1" fill="#ba4588" d="M 61.5,67.5 C 62.9778,67.238 64.3112,67.5713 65.5,68.5C 63.5365,71.1939 62.2032,70.8606 61.5,67.5 Z"/></g>
<g><path style="opacity:1" fill="#be4486" d="M 68.5,67.5 C 69.9778,67.238 71.3112,67.5713 72.5,68.5C 70.5365,71.1939 69.2032,70.8606 68.5,67.5 Z"/></g>
<g><path style="opacity:1" fill="#be357d" d="M 76.5,67.5 C 77.5,67.5 78.5,67.5 79.5,67.5C 79.5,68.5 79.5,69.5 79.5,70.5C 78.5,70.5 77.5,70.5 76.5,70.5C 76.5,69.5 76.5,68.5 76.5,67.5 Z"/></g>
<g><path style="opacity:0.993" fill="#b52576" d="M 83.5,71.5 C 94.1667,81.5 104.5,91.8333 114.5,102.5C 112.212,106.456 109.212,109.789 105.5,112.5C 99.5,107.167 93.8333,101.5 88.5,95.5C 91.4992,92.1615 90.8325,89.8282 86.5,88.5C 84.9623,88.4534 83.9623,89.1201 83.5,90.5C 81.5,89.1667 79.8333,87.5 78.5,85.5C 82.0419,85.8128 85.3752,85.4794 88.5,84.5C 89.8333,83.5 89.8333,82.5 88.5,81.5C 78.3415,80.6697 68.0081,80.1697 57.5,80C 55.6266,78.2962 53.9599,76.4628 52.5,74.5C 61.8393,74.6665 71.1726,74.4998 80.5,74C 81.6906,73.3021 82.6906,72.4687 83.5,71.5 Z"/></g>
<g><path style="opacity:0.985" fill="#80448b" d="M 56.5,127.5 C 55.1667,127.5 53.8333,127.5 52.5,127.5C 24.1984,121.198 6.86504,103.865 0.5,75.5C 0.343323,74.1266 0.50999,72.7932 1,71.5C 19.7017,90.0347 38.2017,108.701 56.5,127.5 Z"/></g>
<g><path style="opacity:1" fill="#a83b84" d="M 52.5,74.5 C 53.9599,76.4628 55.6266,78.2962 57.5,80C 68.0081,80.1697 78.3415,80.6697 88.5,81.5C 73.163,81.6666 57.8297,81.4999 42.5,81C 40.3985,79.2672 40.0652,77.2672 41.5,75C 45.1516,74.5014 48.8183,74.3347 52.5,74.5 Z"/></g>
<g><path style="opacity:0.989" fill="#a0307e" d="M 63.5,85.5 C 74.1667,96.8333 85.1667,107.833 96.5,118.5C 94.1515,120.341 91.4848,121.674 88.5,122.5C 76.0349,110.535 63.7015,98.3687 51.5,86C 55.4862,85.5012 59.4862,85.3345 63.5,85.5 Z"/></g>
<g><path style="opacity:0.993" fill="#aa2b7a" d="M 63.5,85.5 C 68.5,85.5 73.5,85.5 78.5,85.5C 79.8333,87.5 81.5,89.1667 83.5,90.5C 82.8333,94.5 84.5,96.1667 88.5,95.5C 93.8333,101.5 99.5,107.167 105.5,112.5C 103.025,115.241 100.025,117.241 96.5,118.5C 85.1667,107.833 74.1667,96.8333 63.5,85.5 Z"/></g>
<g><path style="opacity:1" fill="#f9f4f8" d="M 45.5,88.5 C 50.3276,88.3852 51.6609,90.5519 49.5,95C 44.5705,95.427 43.2372,93.2604 45.5,88.5 Z"/></g>
<g><path style="opacity:1" fill="#f8edf3" d="M 88.5,95.5 C 84.5,96.1667 82.8333,94.5 83.5,90.5C 83.9623,89.1201 84.9623,88.4534 86.5,88.5C 90.8325,89.8282 91.4992,92.1615 88.5,95.5 Z"/></g>
</svg>
